<?xml version="1.0" standalone="no"?>
<!DOCTYPE svg PUBLIC "-//W3C//DTD SVG 1.1//EN" "http://www.w3.org/Graphics/SVG/1.1/DTD/svg11.dtd" >
<svg xmlns="http://www.w3.org/2000/svg" xmlns:xlink="http://www.w3.org/1999/xlink" version="1.1">
<metadata></metadata>
<defs>
<font id="ice_kingdombold" horiz-adv-x="1108" >
<font-face units-per-em="2048" ascent="1638" descent="-410" />
<missing-glyph horiz-adv-x="508" />
<glyph horiz-adv-x="0" />
<glyph horiz-adv-x="682" />
<glyph horiz-adv-x="0" />
<glyph horiz-adv-x="0" />
<glyph unicode=" "  horiz-adv-x="508" />
<glyph unicode="&#x09;" horiz-adv-x="508" />
<glyph unicode="&#xa0;" horiz-adv-x="508" />
<glyph unicode="!" horiz-adv-x="720" d="M85 435v0h-1v0h1zM290 422q0 3 2 5q11 39 11 54l-3 66q2 21 2 43q0 2 1 4l-1 2q0 54 -6 111q14 9 14 10v3q0 4 -6 11l-8 -2l-2 1q0 36 -1 102h-2q-3 0 -10 -52h-3l-1 6v2q0 12 9 76q-5 21 -5 31v5q0 27 -10 63l-3 3q10 76 -7 103q-11 197 -15 250v1h5v1q0 3 -3 6 q-8 0 -8 32v18q0 26 -4 85q-3 0 -5 2q0 6 1 41q-6 38 -8 41q1 0 1 1q9 -3 22 -3h3l16 3l82 1l46 -18q-1 16 13 16h1l-1 2l1 2l18 -1q14 0 81 -6q6 1 10 1q0 7 26 8q0 -1 2 -1q0 -68 -4 -104l14 6q-7 -6 -16 -63v-1q0 -17 -12 -17q0 -3 11 -9q0 -7 -13 -161q-25 -19 -25 -21 t3 -2q1 0 8 2h7q2 0 6 -2q-4 -64 -7 -88q-10 -7 -10 -17q10 -19 10 -45l-9 -9q0 -2 -1 -3l-2 1q-5 -189 -12 -205l-4 -62v-7q0 -12 -9 -12q0 -22 2 -56q0 -13 -5 -40q3 -29 3 -31v-2q-2 -3 -3 -3q0 -47 2 -57q-1 -1 -1 -6q3 -42 3 -47l-1 -9l5 -15l-8 -8h-2q5 -29 10 -34v-1 q-11 0 -18 6q-47 20 -61 23l-13 -5q-7 7 -14 7h-5q-7 0 -21 -1q-8 0 -24 -15q-2 0 -2 5h-2q-23 -22 -32 -22zM465 462v0h-1v0h1zM334 201q-3 0 -15 4q-1 0 -3 2q-2 0 -5 6l-3 9l-1 1v-2q-6 11 -6 15v4l-1 3v1l-1 5q1 1 1 2v1q0 6 3 11q2 6 4 10q0 3 3 6q2 2 6 4q1 7 3 11 q0 5 4 8l14 14q7 6 14 8q1 0 6 1h1q1 0 15 5q16 2 22 3t9 1h1q4 0 10 -3l5 -1q0 1 3 2l11 -4q2 -1 4 -1h3q5 0 16 -7q2 -1 2 -5q0 -1 2 -1l3 2q1 0 5 -4q4 -1 6 -1q4 -5 8 -6q17 -16 17 -22q0 -1 -1 -8v-1l4 1q0 -4 3 -5q3 -5 3 -7q-1 -3 -1 -4q0 -2 3 -8v-1q-3 -2 -3 -3 l1 -4v-1l-1 -20q0 -1 1 -3l-1 -2v-3q0 -1 -2 -9v-4q0 -3 -4 -19q0 -2 -2 -2l-2 2h-1q1 -4 1 -5q0 -3 -6 -20q0 -6 -7 -12l-1 -1h-1q-1 0 -5 1q-1 0 -1 -1t2 -3q0 -5 -5 -12l-16 -16q-2 -1 -4 -3l1 -1v-1q-4 -3 -10 -6h-2q-2 0 -5 -3q-5 -3 -6 -3q-5 3 -8 4q-1 -3 -3 -3h-1 q3 -2 3 -3t-6 -1h-14q-4 0 -6 -4q-1 0 -1 -1q4 0 4 -1q-4 -2 -6 -2l-20 1q-3 0 -6 -1q-2 0 -4 4q-1 0 -1 -1v-3h-2q-3 0 -9 2q-2 0 -4 2q-11 5 -12 7h-2l2 1v1q-3 1 -10 2q-10 3 -13 7q-1 2 -10 9q-7 7 -12 10q1 0 1 2q0 3 -9 17l-1 1v-1h-1q-2 11 -5 11q0 1 -4 8 q-5 8 -5 12v3q-2 4 -2 7v1l1 3q-1 6 -1 12q0 19 10 39q1 3 3 6q1 2 2 5q3 9 9 11q-7 -13 -8 -23q-1 -6 -1 -17q0 -2 2 -12q1 -3 5 -19l1 -2l1 5q3 -12 6 -17q2 -1 4 -6l3 -4l1 1l5 -4q9 -6 15 -8h3v-1h-2q0 -2 18 -3h7q0 1 1 1q1 -3 2 -3t5 3l1 1l2 -2q4 1 5 2q3 1 8 4 q2 1 5 2h2q1 0 1 3h1l1 -2q1 0 8 8q6 4 6 7q0 2 -2 4q6 4 6 6q0 1 3 4q1 4 5 11q0 10 1 10l3 4q0 1 -2 2v8q0 2 1 3q-2 0 -2 1q2 4 2 8q0 1 -1 6q0 1 -1 1l-4 -2q-1 4 -5 7h-1q-1 0 -4 4q-2 1 -2 3l1 2l-4 1q-1 2 -6 3q-4 1 -6 1q-1 0 -3 -1q-2 2 -4 2h-2q-2 0 -10 3 q-1 1 -3 1t-7 -3h-1q-2 0 -2 2h-2l-3 -2v-1l-4 -2q-2 -4 -4 -14v-4q2 -12 3 -12l6 -10q2 -4 4 -4h1q1 0 5 -6l-1 -1h1q1 0 2 1h2q0 -1 -2 -2h4q4 -3 10 -3q4 0 7 2q2 1 4 3h1q-6 -12 -8 -14l-1 2q-7 -4 -8 -4l-3 -1q-3 2 -4 2q-2 0 -3 -1q-4 0 -20 4z" />
<glyph unicode="&#x22;" horiz-adv-x="559" d="M95 1490q3 3 29 -6q8 10 13 4l3 3t9 2q12 1 25 6q0 -14 4 -15l4 5q0 -12 2 -5q1 3 3 5q4 15 8 7q8 -6 14 -9q4 -2 5 -1v0q0 1 5 8q2 1 13 2q3 -1 -5 -14q-8 -19 -12 -38q-9 -50 -10 -55v-21q0 -9 -6 -19l-4 -15q-8 -23 -9 -38q-2 -24 -5 -27q-1 -4 -4 -11q-1 -14 -1 -22 q-6 -1 -5 -5q1 -8 2 -11q-1 -7 -7 -6l4 -4q-3 -4 -15 -2q-6 -7 -16 -2q-3 -1 -5 -1l-10 1q2 7 2 30q0 12 -4 19q1 8 -1 22q-1 8 -7 30q-4 28 -11 58l-7 7q6 1 0 36q-2 21 -4 51q-7 6 -6 31q8 -2 9 0zM325 1490q3 3 29 -6q8 10 13 4l3 3t9 2q12 1 25 6q0 -14 4 -15l4 5 q0 -12 2 -5q1 3 3 5q4 15 8 7q8 -6 14 -9q4 -2 5 -1v0q0 1 5 8q2 1 13 2q3 -1 -5 -14q-8 -19 -12 -38q-9 -50 -10 -55v-21q0 -9 -6 -19l-4 -15q-8 -23 -9 -38q-2 -24 -5 -27q-1 -4 -4 -11q-1 -14 -1 -22q-6 -1 -5 -5q1 -8 2 -11q-1 -7 -7 -6l4 -4q-3 -4 -15 -2q-6 -7 -16 -2 q-3 -1 -5 -1l-10 1q2 7 2 30q0 12 -4 19q1 8 -1 22q-1 8 -7 30q-4 28 -11 58l-7 7q6 1 0 36q-2 21 -4 51q-7 6 -6 31q8 -2 9 0z" />
<glyph unicode="#" horiz-adv-x="1773" d="M763 1300l5 1q28 9 65 3q72 -11 83 -8l3 1q3 1 6 4h1l1 -1q-8 -70 -20 -105q-3 -11 -5 -18q-7 -34 -18 -74l-3 -11q-3 -8 -5 -14q-18 -32 -21 -39l-2 -6q-2 -8 -3 -14q3 -24 1 -30q-8 -29 -48 -160q-10 -40 -12 -50q-15 -39 -17 -45l-2 -10q-1 -2 -3 -8q-7 -20 -10 -29 l-1 -5q-1 -4 3 -10q8 -19 4 -32q-6 -23 -21 -61l-2 -10q-6 -20 -9 -28q-8 -50 -19 -86l-1 -6q-10 -31 -26 -84q-5 -24 -9 -38q-10 -55 -14 -68l-3 -8q-26 -69 -27 -76q-4 -12 -10 -36q-12 -38 -16 -55l-1 -3q-10 -38 -11 -42l-4 -14q-3 -13 -4 -27q-2 -2 -3 -2q-11 -1 -22 9 q-31 -2 -42 0q-8 13 -17 10q-9 -4 -10 -5h-3q-9 3 -15 3q-5 -3 -9 -4q-3 -1 -3 0q-10 2 -63 -6q-11 -1 -8 11q13 31 13 33q2 6 0 8l2 2l1 2q25 14 26 21q6 35 7 39q1 2 -1 1h-1l-10 -10h-1q-2 -1 1 10v4q4 11 9 26q8 29 10 36q30 93 32 102q6 18 7 26l5 14q4 14 5 21 q6 18 11 39l3 8q23 89 38 161l24 90q2 11 6 23q3 12 17 66q2 4 9 29q5 17 7 25q1 4 4 12l19 82q30 72 35 93q5 34 5 37l3 8q3 9 4 18q13 32 42 123q1 6 3 15l5 15q6 22 14 37v3q1 4 -1 12q-10 33 -10 40q1 5 27 15zM1231 1300l4 1q29 9 66 3q71 -11 83 -8l2 1q4 1 7 4h1 l1 -1q-9 -70 -20 -105q-4 -11 -5 -18q-7 -34 -19 -74l-3 -11q-2 -8 -4 -14q-18 -32 -21 -39l-2 -6q-3 -8 -3 -14q2 -24 0 -30q-8 -29 -47 -160q-11 -40 -13 -50q-15 -39 -17 -45l-2 -10q-1 -2 -2 -8q-8 -20 -10 -29l-1 -5q-1 -4 2 -10q8 -19 5 -32q-7 -23 -21 -61l-2 -10 q-7 -20 -9 -28q-9 -50 -19 -86l-2 -6q-9 -31 -25 -84q-5 -24 -9 -38q-11 -55 -15 -68l-2 -8q-26 -69 -28 -76l-9 -36q-12 -38 -17 -55l-1 -3q-9 -38 -10 -42l-5 -14q-3 -13 -4 -27q-1 -2 -2 -2q-11 -1 -23 9q-31 -2 -41 0q-9 13 -17 10q-9 -4 -11 -5h-2q-9 3 -15 3 q-5 -3 -9 -4t-3 0q-10 2 -63 -6q-12 -1 -8 11q13 31 13 33q1 6 0 8l1 2l1 2q26 14 27 21q5 35 7 39q0 2 -1 1h-1l-10 -10h-1q-3 -1 0 10l1 4q3 11 9 26q8 29 10 36q30 93 32 102q5 18 7 26l5 14q3 14 5 21q5 18 11 39l2 8q23 89 39 161q20 75 23 90q3 11 7 23q2 12 17 66 q1 4 9 29q5 17 6 25q2 4 4 12l19 82q30 72 36 93q5 34 5 37l2 8q4 9 5 18q13 32 41 123q1 6 4 15l4 15q6 22 14 37v3q1 4 -1 12q-10 33 -9 40q1 5 27 15zM304 798l-2 4q-17 25 -21 62q-8 72 -15 82l-1 3q-2 3 -5 5l-1 1l1 1q70 10 107 9q11 -1 18 0q34 2 76 1l12 1 q8 -1 15 -1q35 -9 42 -10h7q8 0 14 1q23 9 29 8q30 0 167 -2h51q41 -3 48 -4l10 1h8q22 -2 31 -2h5q4 0 9 5q16 13 30 13q24 0 65 -4l10 1q21 -1 29 -2q50 6 88 5h6q33 0 88 -2q24 2 39 2q56 4 70 4h7q74 -7 81 -7q12 0 37 1q40 -1 58 -1h3q39 1 43 1l15 -1q13 1 27 3 q2 0 3 -1q4 -11 -3 -25q10 -29 11 -40q-10 -11 -5 -18q6 -8 7 -9q1 -2 1 -3q0 -9 1 -15l7 -7q2 -4 0 -4q1 -10 23 -59q4 -11 -8 -10q-33 4 -36 4q-6 -1 -8 -3l-2 1l-2 1q-20 20 -27 20q-35 -4 -40 -4q-2 0 0 -1v-1l12 -7v-1q2 -2 -9 -3h-4q-12 0 -28 2h-37q-98 4 -107 3 q-19 1 -27 0l-14 1h-23h-40h-8q-92 -2 -166 -6q-77 -1 -93 -2q-11 0 -24 1q-12 -1 -68 -1q-4 0 -30 1q-18 0 -26 -1q-4 1 -12 1l-85 -4q-77 10 -99 9q-34 -4 -37 -4h-8q-9 0 -19 -1q-34 4 -129 7q-7 0 -16 -1l-15 1q-23 0 -40 3h-3q-3 0 -11 -4q-29 -19 -36 -20 q-5 -1 -21 22zM250 394l-2 3q-16 25 -21 63q-8 71 -15 82l-1 2q-2 3 -5 5l-1 1l1 1q70 11 107 9h18q34 2 76 2h12h15q35 -10 42 -10l7 -1q9 0 14 1q23 9 29 9q30 0 167 -3q41 0 51 1q41 -4 48 -4h10h8q22 -2 31 -2h5q4 0 9 5q16 13 30 13q24 0 65 -3h10q21 -1 29 -1 q50 5 88 5h6q33 -1 88 -2q24 1 39 1q56 5 70 5l7 -1q74 -6 81 -6q13 0 37 1q40 -2 58 -2h4q38 1 42 1h15q13 0 27 3q2 -1 3 -2q4 -11 -3 -24q10 -30 11 -40q-10 -12 -5 -19q6 -8 7 -9q1 -2 1 -3q0 -9 1 -15l7 -7q2 -3 0 -3q1 -11 23 -59q4 -11 -8 -11q-33 4 -36 4 q-5 0 -8 -2h-2l-2 1q-20 21 -27 20q-35 -4 -40 -4q-2 0 0 -1v-1l12 -7v-1q2 -2 -9 -2h-4q-12 0 -27 1h-38q-98 4 -107 4q-19 0 -27 -1l-14 1h-23h-40h-8q-92 -1 -166 -6q-77 0 -92 -1h-25q-12 -1 -68 -1q-4 0 -30 1q-17 0 -26 -1q-4 1 -12 1l-85 -4q-77 10 -99 10 q-34 -4 -36 -5h-9q-9 1 -18 0q-35 3 -130 7q-7 -1 -16 -1h-15q-23 0 -40 4l-3 -1q-3 0 -11 -4q-29 -19 -36 -20q-5 0 -21 23z" />
<glyph unicode="$" horiz-adv-x="1037" d="M630 1428q26 0 112 -18q61 -20 61 -32v-3q-3 -25 -4 -44q-7 -10 -7 -17q-10 -15 1 -44l-10 -54q-25 12 -38 8q-4 22 -26 13q-23 -8 -60 8q0 -5 -98 -25q-23 -8 -32 -8h-1q-2 0 -18 5v-5q-35 -19 -45 -26q-17 -20 -22 -20l-5 4h-1q-7 -4 -31 -40h-10v-4q4 0 6 -1 q-4 -12 -13 -12h-6q-2 0 -4 -5q0 -7 2 -7q-1 -10 -1 -15v-29q0 -64 16 -77q18 -25 50 -45q7 -8 34 -15q73 -40 74 -43l-1 -12q5 -1 17 -15q4 -2 7 -2q25 3 31 3h1q5 -7 15 -33q10 -11 71 -26q9 -4 33 -25q20 -9 26 -23q-6 -13 -6 -17v-23h2q8 4 21 15q10 0 20 -27 q0 -3 65 -52q41 -46 46 -62l-1 -12q1 -4 3 -4h8l5 1q7 -7 43 -113q-4 18 -55 30h-3q49 -22 49 -53q1 0 1 -7q-2 -1 -3 -1v-7q9 -40 9 -58v-12q-8 -44 -18 -125q-21 -32 -61 -40l-12 -59h-3l-1 6h-1q-10 0 -10 -15q-55 -42 -111 -56q-17 0 -73 -19q-58 -15 -84 -25 q-13 1 -13 2q-1 0 -1 -1l-68 2q-33 -17 -40 -17h-2q-17 1 -17 4v1q0 2 1 4q0 9 -34 9h-5q-14 0 -47 -5h-5q-44 6 -70 6q-7 16 -47 16q0 1 -19 2v1q0 16 12 20q13 11 13 19l-3 2h-1q-12 0 -53 -40q-72 14 -72 17v15q0 2 2 2l6 -1q17 66 17 101q-5 2 -5 9q0 39 13 84 q0 6 14 49q3 28 13 28q8 -19 50 -57q2 -3 3 -7q-1 -2 -1 -3q22 -8 29 -11q12 -9 46 -17q53 -4 55 -11q-14 -10 -14 -17v-1l3 -22h5v3q10 31 12 32q2 3 82 -5q15 -5 82 -5q5 0 50 3q1 0 4 -1q17 0 33 28q12 15 26 15q16 4 22 16q24 37 24 80v7q0 54 -50 134q-27 35 -57 43 q-45 11 -133 46q-15 7 -15 17q0 2 3 15q-1 2 -1 3q-2 0 -11 -2h-6q-33 0 -33 9q0 13 -32 35q-13 6 -87 35q-9 7 -13 7q-7 -2 -8 -2q-53 36 -87 86q-11 12 -21 44q-8 4 -21 43q-10 19 -10 29q0 5 1 14q-2 12 -2 15q2 15 2 25q0 4 -8 11q-5 39 -5 54v4q19 14 28 27q-3 3 -15 6 q-2 0 -2 2v5q0 26 49 128q25 38 60 98q43 47 51 47q0 5 82 10q28 16 88 37q23 12 45 17v-1l2 1q2 0 2 -2v-13l5 -1q18 2 22 2h1q-4 15 -4 20q0 2 38 11q12 0 79 -1q4 5 9 5zM471 -86q0 9 10 52q1 10 1 15l1 4q-2 19 -2 48v19v20q-2 117 -4 158q1 12 0 24v10q0 3 2 47 q0 27 -4 120l1 107q0 10 -1 15v32v37v85v30v116q3 93 3 207v11v50v27v18v33q0 12 -3 133v46q0 19 -1 34l1 4q0 14 0 13h1l3 -13h1q1 -1 1 1q0 6 1 51q1 9 -10 27v2v3v10q1 4 -2 43q0 15 6 14q24 -10 29 -8q0 2 2 1q1 -2 4 -6q3 0 7 4h2q0 -1 4 -6q4 -4 10 13q4 2 19 0 q7 12 12 11q1 0 2 -2q-2 -19 -2 -35v-18v-54v-4q0 -22 1 -71q-1 -31 -1 -46q0 -10 4 -99v-9q1 -18 -1 -88q0 -19 -1 -49q1 -68 1 -109v-7q0 -48 -2 -111q0 -11 1 -36v-13q1 -50 1 -79q0 -17 -6 -42q-3 -8 -3 -12v-7q0 -12 2 -37v-11v-13q0 -8 1 -57v-64q3 -169 3 -207 q0 -8 -5 -39v-17v-8l5 -50v-19v-14v-95v-23q1 -45 -4 -136l-1 -1h-1q0 4 -2 5l-1 1q-5 5 -41 -10q-19 -7 -31 4l-2 1q-12 13 -11 19z" />
<glyph unicode="%" horiz-adv-x="1756" d="M1331 1420q-5 -8 -44 -45q-9 -9 -11 -13l-2 -3q-4 -17 -16 -42l-7 -16q-5 -10 -9 -17q-44 -101 -57 -137q-6 -10 -10 -20l-4 -9q-2 -3 -25 -41q-11 -23 -38 -103l-48 -92q-4 -9 -5 -13q-5 -9 -14 -28q-12 -27 -14 -32q-29 -60 -36 -73q-6 -14 -12 -26q-9 -17 -49 -100 q-43 -80 -92 -179l-4 -9q-11 -23 -20 -43l-12 -24l-6 -15q-5 -9 -14 -29q-5 -10 -50 -114q-3 -7 -19 -40q-6 -16 -12 -29l-2 -4q-6 -12 -8 -11h-1l-3 11h-1q-1 1 -2 -1q-2 -5 -25 -44q-4 -7 12 -23v-2v-2q-4 -3 -7 -9q-2 -3 -13 -37q-6 -13 -18 -12q-52 9 -65 7q-1 -2 -4 -1 q-3 2 -6 5q-7 0 -19 -3h-3q-1 1 -8 5q-7 3 -27 -11q-13 -2 -46 0q-21 -11 -33 -10q-1 0 -1 2q11 16 18 30l7 16l23 46l2 4q9 19 27 61q14 27 20 40q4 8 33 85l3 8q7 15 41 76q8 16 22 42q26 59 42 94l3 6q19 41 51 96q4 9 13 31l6 11q16 43 28 68q7 15 32 36q9 7 11 11l3 6 q5 10 13 32q3 6 4 9l6 11q3 7 19 50q6 11 27 55q66 146 81 178q3 7 26 34q4 6 8 15l3 7q3 8 9 43q3 7 7 16l6 12q21 45 41 82q4 8 9 20q17 39 66 117l2 1h1q1 -3 4 -4l2 -1q10 -4 99 9q46 6 70 -4l4 -1q21 -11 18 -16zM617 1074q-6 0 -15 4q-9 3 -22 3h-2h-16q-10 2 -24 13 q-6 10 -20 15q-14 2 -14 5q-2 0 -9 11q-17 19 -17 30q0 1 -1 12h1l-9 5q-1 0 -5 12l-2 4q-1 0 -5 -1q-1 0 -2 12q-4 16 -7 19q-7 6 -7 23v2q0 10 6 49q2 7 3 20q6 15 18 35q1 2 8 5q4 6 4 12v0q3 -1 6 -1q8 0 11 8v4q0 11 15 16q22 8 44 15v5q-11 -7 -26 -8l-1 1 q10 10 21 13q11 7 28 10q25 6 46 5l11 -1q11 4 19 3h2q9 0 24 -8h1h8q13 0 22 -12h15h1q5 0 9 -5q12 -10 23 -14q5 -2 5 -3q1 -6 1 -8q15 -4 16 -7q17 -15 26 -27q14 -33 15 -34q7 -5 8 -9q4 -11 4 -23v-11q3 -2 3 -7v-3q0 -11 -5 -48q-7 -26 -12 -31q-5 -7 -13 -19 q-3 -4 -10 -11q-6 -7 -13 -18l-20 -4v-1q0 -1 1 -4q0 -7 -12 -15q-17 -13 -32 -19q-10 -5 -11 -6v0q-3 0 -10 3h-3q-6 0 -14 -8q-1 -2 -2 -2q-7 1 -12 1q-9 0 -23 -4q0 -2 -29 -3zM697 1157l6 -1v5l8 3q3 9 3 10q11 6 16 19q2 7 5 21l8 3q-2 3 -3 6v11q3 8 3 21v30 q0 11 -15 40q0 5 -10 7q-2 0 -5 6q-5 4 -8 9q-9 10 -19 14l-7 1l-12 10l-15 1q-8 5 -15 5h-2q-4 0 -5 -2q-3 -1 -19 -5q-4 4 -10 4v0q-15 0 -37 -18q-8 -10 -14 -20q-5 0 -6 -10q-3 -15 -6 -20q-3 -7 -3 -14q0 -1 -2 -7q6 0 6 -7v-14q0 -10 -5 -12q0 -1 -1 0q3 -8 7 -40 q1 -8 4 -8q7 -7 7 -15q0 -3 -1 -6q6 -9 17 -19l16 -14q5 -1 11 -7q24 -9 26 -9q25 -2 28 -2l4 -1q26 9 28 11q5 3 11 12q2 2 6 2zM1168 13q-6 0 -15 4q-9 3 -22 3h-2h-17q-9 2 -24 14q-6 9 -20 14q-14 3 -14 5q-2 0 -9 12q-18 19 -18 29q0 2 -1 12h1q0 2 -9 6l-5 13l-1 3 q-1 0 -6 -1q-1 0 -2 12q-4 17 -7 20q-7 5 -7 23v2q0 10 6 49q3 8 3 20q6 16 19 35q0 3 7 6q5 6 5 12v0q2 0 6 -1q8 0 11 8v4q0 12 15 16q22 9 44 16v5q-11 -6 -26 -7h-1q11 10 21 14q11 6 29 9q25 6 47 5l10 -1q12 4 20 3h2q9 0 25 -8l1 -1q6 1 7 1q13 0 23 -12q8 1 15 0h1 q5 0 9 -5q13 -10 24 -15q4 -1 4 -3q2 -6 2 -8q14 -4 15 -7q17 -15 27 -27q15 -34 15 -35q7 -4 8 -8q4 -11 4 -24v-11q3 -2 3 -7v-3q0 -10 -5 -48q-7 -27 -12 -32q-5 -7 -13 -19q-4 -5 -10 -11q-6 -7 -13 -18l-21 -5v0q1 -1 2 -6q0 -6 -13 -13q-17 -13 -32 -20q-10 -5 -11 -6 v0q-4 0 -11 2l-2 1q-7 0 -15 -7l-1 -3q-8 1 -13 1q-9 0 -24 -4q0 -2 -29 -3zM1250 97l5 -1v5q0 1 9 3q2 10 3 11q11 6 16 18q2 7 5 22q8 2 8 3q-2 3 -3 6v10q3 9 3 21v31q0 12 -15 41q0 5 -10 7q-2 1 -6 6q-4 4 -7 9q-10 10 -19 15h-8l-12 10l-15 1q-8 5 -15 5h-3 q-3 0 -4 -2l-20 -5q-3 4 -9 4h-1q-15 1 -37 -18q-9 -10 -15 -20q-4 0 -6 -10q-2 -15 -6 -20q-2 -8 -2 -15l-3 -7q6 0 6 -7q1 -10 1 -13q0 -11 -5 -12q-1 -1 -2 -1q3 -9 8 -41q1 -7 3 -7q7 -7 7 -16q0 -3 -1 -6q7 -9 17 -19l17 -14q5 -1 11 -7q24 -9 27 -9q25 -3 28 -3h3 l30 10q4 4 10 13q3 2 7 2z" />
<glyph unicode="'" horiz-adv-x="406" d="M145 1490q3 3 29 -6q8 10 13 4l3 3t9 2q12 1 25 6q0 -14 4 -15l4 5q0 -12 2 -5q1 3 3 5q4 15 8 7q8 -6 14 -9q4 -2 5 -1v0q0 1 5 8q2 1 13 2q3 -1 -5 -14q-8 -19 -12 -38q-9 -50 -10 -55v-21q0 -9 -6 -19l-4 -15q-8 -23 -9 -38q-2 -24 -5 -27q-1 -4 -4 -11q-1 -14 -1 -22 q-6 -1 -5 -5q1 -8 2 -11q-1 -7 -7 -6l4 -4q-3 -4 -15 -2q-6 -7 -16 -2q-3 -1 -5 -1l-10 1q2 7 2 30q0 12 -4 19q1 8 -1 22q-1 8 -7 30q-4 28 -11 58l-7 7q6 1 0 36q-2 21 -4 51q-7 6 -6 31q8 -2 9 0z" />
<glyph unicode="(" horiz-adv-x="650" d="M542 1608v-2l-7 -8v-2q0 -3 3 -3h27q29 0 41 -8q0 -3 -19 -51q0 -3 -62 -59q-25 9 -31 9q-4 0 -4 -3v-3q0 -4 7 -25v-2q-59 -75 -89 -130q-26 -61 -31 -61h-14q-5 0 -6 -19v-40q-23 -80 -40 -162q-6 -55 -10 -55q-8 0 -21 2q-4 -3 -4 -5v-7q23 -18 23 -40v-6 q0 -24 -4 -55q7 -33 7 -38q-3 -49 -3 -59q0 -30 10 -115l-1 -3q-8 9 -9 9v-2q32 -133 32 -159v-3q-14 -17 -14 -24q1 -6 1 -10q32 -31 33 -46q13 -71 19 -90q17 -85 29 -85q10 -10 14 -26q7 -94 28 -94q19 -19 19 -38q16 -69 43 -105q50 -79 50 -82v-2q0 -6 -1 -16 q0 -3 11 -13q38 -13 38 -40v-9q0 -3 -3 -3h-94q-24 20 -63 68q-24 46 -33 55q-8 0 -9 -4q-2 0 -4 1q-43 44 -81 110q0 6 3 16q0 6 -13 16q-12 2 -44 62q-9 55 -16 62q-16 5 -23 10q-70 166 -70 196v11q0 11 14 27q0 4 -30 16q-29 125 -29 163q0 9 7 82q0 1 -1 9 q-12 14 -12 19v124q0 67 20 100q16 66 16 119q0 45 19 57q27 10 27 30q-1 18 -1 19q0 8 22 53q15 59 27 65q28 29 30 54q15 39 29 39q9 4 41 52q14 60 21 60h20q31 23 39 23q16 9 22 32q40 30 59 52q45 -3 45 -10z" />
<glyph unicode=")" horiz-adv-x="658" d="M100 -169v1l7 9v1q0 3 -3 3h-27q-29 0 -41 9q0 3 19 50q0 3 62 59q25 -8 31 -8q4 0 4 3v2q0 4 -7 25v3q59 74 89 130q26 61 31 61h14q5 0 6 18v41q23 79 40 161q7 55 10 55q8 0 21 -1q4 2 4 4v7q-23 19 -23 41v6q0 23 4 54q-7 34 -7 38q3 49 3 59q0 31 -10 116l1 3 q8 -9 9 -9v1q-32 133 -32 159v3q14 18 14 25q-1 5 -1 10q-32 31 -33 46q-13 70 -19 89q-17 86 -29 86q-10 10 -14 26q-7 93 -28 93q-19 19 -19 38q-16 69 -43 105q-50 79 -50 83v1q0 6 1 16q0 3 -11 13q-38 13 -38 40v9q0 3 3 3h94q24 -19 63 -68q24 -46 33 -55q8 0 9 5 q2 0 4 -2q43 -44 81 -110q0 -5 -3 -15q0 -6 13 -16q12 -3 44 -62q9 -55 16 -63q16 -4 23 -10q70 -165 70 -196v-10q0 -12 -14 -28q0 -3 30 -15q29 -125 29 -164q0 -8 -7 -82q0 -1 1 -9q12 -14 12 -18v-124q0 -67 -20 -100q-16 -66 -16 -120q0 -45 -19 -56q-27 -11 -27 -31 q1 -17 1 -18q0 -9 -22 -54q-15 -59 -27 -65q-28 -28 -30 -53q-15 -39 -29 -39q-9 -5 -41 -52q-14 -61 -21 -61h-20q-31 -23 -39 -23q-16 -8 -22 -32q-40 -30 -59 -52q-45 3 -45 11z" />
<glyph unicode="*" horiz-adv-x="1092" d="M567 1594h1q1 0 12 -5q17 -2 44 -7q1 -6 4 -6q4 1 5 1q2 -1 2 -2v0q-9 -14 -18 -22q-7 -7 -7 -9v0q1 -1 5 -2l1 -1q-2 -6 -8 -17h1q-11 -17 -11 -22q0 -4 -11 -18q-1 -3 -1 -4h1v1l1 -1q0 -1 -11 -22q-5 -16 -5 -21v0q5 0 14 13q16 13 19 17l1 1q-1 0 -1 1v0q0 3 9 6 q2 2 6 9q11 9 30 27q2 9 5 11q10 3 17 15q2 4 3 4q5 -2 10 -2h2q1 0 7 -10q13 -17 13 -21q2 -10 6 -10q1 -1 2 -3l-1 -1v-1q2 0 2 -2v-5q0 -2 7 -5q6 -12 7 -17v-2q0 -11 8 -51v0q-8 2 -9 2q-6 -2 -12 -2h-5q-2 0 -17 4h-2l-1 -3l-46 -5q-1 0 -5 4h-1q-1 0 -14 -6 q-36 0 -36 -4q12 0 16 -4q1 -1 10 -2h10q1 0 8 -4q1 0 15 -2q7 3 8 3t5 -5q22 -4 23 -5l1 -2h1q2 0 8 1q7 -1 29 -1q11 -2 11 -4q1 0 1 -3q-1 -8 -7 -26q0 -5 -3 -5q-7 -2 -7 -5v-6q-5 -8 -6 -10q1 -1 1 -4q0 -1 -15 -21q-7 0 -7 -3v-1l3 -3v-1q0 -3 -30 -34q-1 -1 -9 -4 q-2 0 -5 9q-1 0 -4 8q-2 4 -7 6q-2 0 -9 11q-13 22 -17 27q-8 7 -10 15q-3 8 -3 11q0 6 -8 9q-7 12 -21 25q-1 0 -2 -11q5 -8 5 -16q2 -4 2 -6v-7q14 -52 14 -53q-2 -3 -2 -4v-1q0 -1 8 -11q5 -20 8 -23q3 -4 3 -5q0 -3 -16 -7q-7 1 -8 1h-1q-1 0 -6 -4q-12 -2 -20 -2l-2 3 l-12 -3q-36 1 -36 2q-6 3 -36 10q-4 1 -4 2v1q11 15 14 22q5 16 8 16q5 3 5 5v6q1 3 10 21q5 20 8 20q2 0 6 6q5 4 5 7l-1 5q6 17 11 23v3l-1 2q-6 -5 -17 -18l-4 -4l1 -3l-1 -1h-1l-4 2h-1q-12 -10 -14 -15t-5 -8v0q-1 0 -3 1q-2 0 -9 -8q-1 0 -16 -16q-4 0 -8 -7 q-7 -10 -13 -16q-11 -10 -14 -10q-8 5 -8 10q-4 8 -7 8t-6 6q-12 12 -12 15v5q0 1 -6 16q-4 12 -9 28h-2h-1q-2 0 -2 7q-3 7 -4 15q3 1 5 1h7q6 1 11 1h6v1q-3 3 -3 4v0h1l13 -1v0q4 0 14 6q1 1 3 1v0q1 0 9 -4v0q22 4 23 5q0 3 4 3h12q34 6 34 7q6 1 7 2q0 2 -27 4 q-10 1 -20 5h-1q-1 0 -9 -4h-1q-10 5 -11 5q-1 -4 -2 -4v0q-5 1 -17 5h-5h-3q-4 0 -28 1h-5v0l-3 3h-1q-7 -2 -8 -2q0 1 -6 3l-1 1v2q0 3 10 37q2 4 2 9q1 1 7 5q2 1 9 6q1 1 1 2l-2 3q6 15 8 19q5 6 7 11q1 1 6 1q16 29 18 29q2 5 6 5h1q1 0 6 -5q1 0 6 -10q4 -7 12 -16 q5 -10 23 -31l12 -14v0q0 -1 -6 -2v-1q7 -9 11 -10q1 0 3 5v0q13 -13 19 -23q8 -8 9 -8v1q1 3 1 8q-3 4 -5 15q0 9 -7 18q-2 17 -4 21q-10 14 -10 17q2 4 2 6h-1h-4q-2 5 -16 36q-2 5 -10 18v0q0 1 13 2q3 2 12 4q21 7 31 7q2 -1 2 -2v-2v-1h2q1 0 10 4q11 1 14 3q2 2 5 2z " />
<glyph unicode="+" d="M296 607q11 -5 53.5 -9t55.5 -2h7l28 3q-23 -3 -17 0t47 1l34 -2h5q3 1 10 0q11 1 12 1q23 1 27 0q6 1 10 1q7 -1 37 -1q30 -2 68 -2h3h15h10l5 1h11q4 0 44 3h14h11h1q5 1 5 0v0l-5 -5v0v0q2 0 17 -3q2 0 -2 14l12 -1l15 5q12 2 4 -17q1 -14 -1 -17t-2 -10v-1l-2 -4v-8 v-2t-2 -5t2 -11q1 -5 -2 -22q4 -8 2 -13v-1q-6 1 -11 1h-6h-17h-2q-7 0 -23 -1h-15q-3 0 -32 -4h-3q-5 0 -28 1q-6 0 -16 1q-22 -2 -35 -2h-2q-16 0 -36 2q-3 0 -12 -1l-4 1q-16 -2 -26 -3q-5 0 -12 7q-3 3 -4 3h-2q-4 0 -12 -2q-2 1 -4 1l-3 -1q-3 0 -20 -2h-20 q-55 -2 -67 -2q-2 -1 -37 -1q-2 -1 -6 -1h-5q-16 -1 -30 1q-3 -1 -8 -1q-14 -1 -43 4v1v1q1 1 2 3v1q2 6 1 46q9 16 6 35v2q6 12 0 17zM506 276q6 12 10.5 54t2.5 55v8l-4 28q4 -23 0.5 -17.5t-1.5 47.5l2 33v6q-1 3 0 10q-1 10 -1 12q-1 23 0 27q-1 5 -1 10q1 6 1 37 q2 30 2 67v4v15v9l-1 6v11q0 4 -3 43v15v11v1q-1 5 0 5v0l5 -5l1 -1q1 0 0 1q0 2 3 16q0 3 -16 -1l2 12l-6 15q-2 12 19 4q14 1 18 -1.5t11 -1.5l1 -1q3 0 5 -2q3 0 9 1q1 0 2 -1q1 0 5 -1q5 -2 12 2q6 1 24 -2q8 3 15 2v-1v-11v-5v-17v-2v-23v-15q0 -3 5 -32v-3 q0 -6 -2 -28q0 -6 -1 -16q2 -22 2 -35v-2q1 -16 -2 -36q0 -3 1 -12l-1 -4q3 -16 4 -26q0 -6 -8 -12q-3 -3 -3 -4v-2q0 -4 2 -13q-1 -1 -1 -3l1 -4q0 -2 2 -19v-20q2 -55 2 -67q1 -3 1 -37q1 -3 1 -7v-4q1 -17 -1 -30q1 -3 1 -8q1 -14 -4 -43h-1h-1q-1 1 -3 1l-2 1 q-6 2 -49 1q-18 9 -39 5l-2 1q-13 5 -19 -1z" />
<glyph unicode="," horiz-adv-x="625" d="M262 135q7 0 28 -6q1 -7 1 -14v0q0 -3 -1 -6q3 -5 5 -5q3 0 7 13q16 1 23 1h2v-1h-1q1 -1 2 -1h4q3 0 8 1q12 -9 28 -22q14 -15 14 -17q12 -24 21 -50q3 -7 3 -9q-1 -15 -1 -18q0 -13 3 -17q4 -3 4 -4v-1q0 -4 -2 -5q-5 -4 -5 -7q-20 -41 -63 -61l-21 -9q-14 -12 -28 -17 q-5 -2 -13 -2q-6 0 -34 1q-22 -2 -24 -2h-2q-11 0 -12 7q-1 6 -7 12q-2 3 -8 8v5h1h13h2q11 0 22 8q7 1 20 12q13 12 14 15q2 5 11 22q3 8 3 12q0 6 -10 20q-2 3 -5 3v0l-6 -1v0q-4 0 -16 11q-5 5 -13 14v1h-1q-15 0 -19 9q-1 3 -2 16q0 1 -5 10q-2 7 -3 10q2 0 2 4 q5 21 11 31q8 13 23 23q20 6 27 6z" />
<glyph unicode="-" horiz-adv-x="774" />
<glyph unicode="." horiz-adv-x="625" d="M328 163h3h8l8 -8h15v0v-8l24 -8q8 -17 10 -18l13 -20v-23l-8 -8v-23q-2 -8 -13 -21q-9 -10 -14 -13q-9 -6 -17 -10q-7 -3 -14 -4q-3 -1 -5 -1q-12 0 -30 1v0q2 -2 2 -4v0q0 -4 -7 -4q-12 1 -12 2v0v1q0 2 2 5q-5 -2 -9 -2q-5 0 -10 6q-10 9 -14 15q-3 4 -7 11h-1v0 l-3 -2h-1q-2 0 -3 8v7q0 20 1 20q5 -2 7 -2l1 1v0v1l1 5v0q0 4 -6 5h-2q-3 0 -9 -2q-1 6 -1 12q0 17 12 27q15 15 24 25q11 11 15 13q6 5 11 8q14 5 20 7q4 1 9 1z" />
<glyph unicode="/" horiz-adv-x="947" d="M923 1415q-5 -8 -44 -45q-9 -9 -11 -13l-2 -3q-4 -17 -16 -42l-7 -16q-5 -10 -9 -17q-44 -101 -57 -137q-6 -10 -10 -20l-4 -9q-2 -3 -25 -41q-11 -23 -38 -103l-48 -92q-4 -9 -5 -13q-5 -9 -14 -28q-12 -27 -14 -32q-29 -60 -36 -73q-6 -14 -12 -26q-9 -17 -49 -100 q-43 -80 -92 -179l-4 -9q-11 -23 -20 -43l-12 -24l-6 -15q-5 -9 -14 -29q-5 -10 -50 -114q-3 -7 -19 -40q-6 -16 -12 -29l-2 -4q-6 -12 -8 -11h-1l-3 11h-1q-1 1 -2 -1q-2 -5 -25 -44q-4 -7 12 -23v-2v-2q-4 -3 -7 -9q-2 -3 -13 -37q-6 -13 -18 -12q-52 9 -65 7q-1 -2 -4 -1 q-3 2 -6 5q-7 0 -19 -3h-3q-1 1 -8 5q-7 3 -27 -11q-13 -2 -46 0q-21 -11 -33 -10q-1 0 -1 2q11 16 18 30l7 16l23 46l2 4q9 19 27 61q14 27 20 40q4 8 33 85l3 8q7 15 41 76q8 16 22 42q26 59 42 94l3 6q19 41 51 96q4 9 13 31l6 11q16 43 28 68q7 15 32 36q9 7 11 11l3 6 q5 10 13 32q3 6 4 9l6 11q3 7 19 50q6 11 27 55q66 146 81 178q3 7 26 34q4 6 8 15l3 7q3 8 9 43q3 7 7 16l6 12q21 45 41 82q4 8 9 20q17 39 66 117l2 1h1q1 -3 4 -4l2 -1q10 -4 99 9q46 6 70 -4l4 -1q21 -11 18 -16z" />
<glyph unicode="0" horiz-adv-x="1147" d="M520 -3q-7 3 -29 18q-25 9 -58 9h-7q-14 0 -58 -3q-7 9 -44 51q-17 38 -51 56q-37 10 -37 18q-5 0 -24 45q-46 75 -46 114q-2 8 -4 47h2q0 5 -21 21q-3 0 -15 51l-4 12q-1 0 -14 -5q-1 0 -6 49q-9 62 -18 76q-19 22 -20 89v8q0 39 13 195q6 29 8 77q13 64 44 140 q1 10 19 25q10 22 10 46l2 1q6 -4 14 -4q21 0 29 35l-1 13q-1 47 39 66q55 34 66 41l-14 9l-31 -11l22 16q25 41 52 54q26 27 70 43q66 25 120 25q26 -2 28 -2q29 12 49 19l4 -7q25 0 64 -30q2 -1 3 -1q31 18 20 3q32 0 57 -44q22 2 25 12l15 -10q15 0 25 -19q31 -41 60 -57 q11 -6 11 -13q4 -23 6 -28q37 -18 39 -26q45 -60 70 -105q39 -130 41 -133q18 -19 19 -36q13 -43 13 -92v-43q6 -7 7 -26v-12q0 -42 -10 -190q-15 -104 -28 -125q-13 -28 -33 -78q-8 -18 -25 -43q-16 -29 -33 -74l-52 -20v-1q3 -3 6 -19q0 -24 -32 -57q-45 -53 -80 -81 q-27 -21 -30 -25v-1q-7 0 -25 12h-6q-18 0 -39 -32q-2 -8 -4 -9q-18 3 -33 3q-20 0 -59 -18q1 -10 -81 -19zM707 346l11 -4v17q1 3 21 12q7 37 8 38q27 25 39 70q6 28 12 81q20 9 20 10q-5 12 -6 21l1 41q8 32 9 79q1 34 2 110q1 42 -32 149q1 19 -23 26q-4 0 -13 19 q-9 16 -16 36q-22 33 -42 49h-19l-28 38h-34q-18 19 -35 19h-6q-7 0 -9 -7q-10 -8 -47 -22q-8 13 -23 13h-2q-34 0 -87 -71q-20 -35 -34 -73q-11 0 -16 -38q-7 -56 -17 -75q-5 -28 -6 -53q0 -1 -7 -25q14 0 14 -28v-48q-1 -38 -11 -45q-2 -2 -6 -2q7 -30 15 -147 q2 -29 7 -29q17 -24 17 -55q-1 -12 -3 -24q14 -31 39 -66q35 -50 36 -50q12 -4 25 -27q56 -30 61 -30q58 -7 66 -7h9q62 36 68 41q10 15 25 46q7 11 17 11z" />
<glyph unicode="1" horiz-adv-x="630" d="M496 1471l12 -53l-1 -63q2 0 4 -26q1 0 1 -4v-25q0 -12 7 -25q1 -4 1 -8v-47q-1 -5 2 -19l-1 -53q0 -2 3 -12q0 -7 -8 -46q-1 -15 -1 -25q0 -8 3 -20l-2 -9l3 -10v-5l-5 -29q-1 -19 0 -55q0 -8 -4 -8h-3q-1 -1 -3 -17q1 -47 0 -72q0 -10 -1 -38q-1 -15 10 -15h10 q2 0 2 -3q0 -7 -11 -12q-3 0 -7 -70q1 -2 1 -3l7 1l2 -3v-12q-8 -7 -9 -29v-3q0 -2 -2 -2q0 1 -3 3h-2q1 -2 2 -9q-2 -19 -2 -28q0 -4 6 -10v-59q-1 -4 6 -15q1 -4 1 -8v-7q0 -11 -1 -29q1 -2 1 -3q-10 -2 -10 -16q0 -23 8 -43v-7q0 -25 -3 -129q1 -42 1 -49q-3 -26 -3 -51 q1 -9 1 -10l3 2q4 -11 4 -42l-7 -3q-2 -10 -3 -20q0 -6 16 -10l1 -6q-1 -20 -1 -36v-3q2 -16 27 -40q27 -16 37 -32q-2 -1 -3 -1q-61 9 -85 9h-25q-79 0 -79 13q0 4 -19 4l-26 -4h-8q-7 0 -7 -10l-2 -1h-4q-4 0 -28 -4h-2q-30 0 -80 -1q-4 0 -16 8h-59q-2 0 -2 3q9 14 14 14 q21 11 38 47q17 19 18 47q3 10 13 25q8 27 8 57v1q0 5 -8 18v3q1 8 9 55q0 4 -13 24q-1 5 -1 8q7 26 7 33v4l-6 54q1 19 0 56q2 8 4 8q3 0 9 -2q3 0 5 23q1 86 -8 152v14q1 6 24 11q0 1 1 1q0 5 -18 11q-7 0 -8 29q4 44 7 116q0 5 -2 15q2 11 2 20v7q0 5 -15 7q0 2 -2 5 q25 35 25 42q-2 1 -3 1q-7 -5 -10 -5q-2 0 -2 2v4q0 4 7 16v4q1 66 -7 146q-6 -5 -22 -23q-14 -7 -35 -32q-6 -9 -27 -27q-4 0 -18 -11q-10 -2 -35 -38q-13 -6 -16 -8q-3 0 -4 10q3 25 3 29q-6 11 -6 32l1 9q2 3 4 10q0 2 -9 15q-4 29 -3 42v3q5 6 20 17q2 13 12 13 q8 -5 8 -9h1q5 0 12 28l20 25l46 41q6 -1 10 -9h1q11 0 17 29q6 19 10 24h2l4 -1q2 0 15 14q11 5 26 17h1l2 -1q16 9 29 22q20 16 20 22q11 23 17 23q2 -2 2 -4l2 1h1l5 -1q29 33 45 42l50 32q9 10 16 12q11 -18 13 -18q2 9 3 24v9q15 13 25 28z" />
<glyph unicode="2" horiz-adv-x="1161" d="M611 1438q13 -21 14 -21q32 2 40 9q2 4 14 8q5 -1 7 -1q69 0 154 -25q11 -7 11 -16q-1 -6 -5 -11v-1q1 -3 7 -3l28 6q34 -3 46 -9q59 -30 100 -63q5 0 16 -30v-1q-2 -1 -3 -1q-26 5 -30 5q18 -38 25 -41q5 -9 15 -52q16 -24 16 -27q9 -73 16 -112q1 -6 1 -16v-18 q0 -44 -38 -140q-9 -21 -23 -37h-3q-13 5 -15 5q-7 0 -19 -49q-3 -8 -37 -30q-16 -26 -91 -103q-14 -3 -14 -21q0 -20 -52 -57q-16 -10 -23 -10h-1l-2 1q-14 -9 -23 -37q-9 -35 -17 -46q-5 -7 -14 -11q-1 -2 -1 -3l3 -15q-1 -5 -15 -12q-50 -44 -71 -73q-97 -112 -97 -120 q0 -10 -32 -27l-1 -3q11 -2 23 -2q13 0 186 8q40 -1 40 -9l-1 -5h5q8 0 38 -6q22 1 22 2q8 0 11 -13v-1q134 14 174 22q40 9 50 20q12 9 30 33q10 9 21 9l1 -2v-3q0 -4 -1 -9l3 -9q-5 -37 -18 -68q2 -30 2 -43q-3 0 -21 -27q-9 -5 -9 -49q-19 -51 -19 -74l-2 -1l-49 8h-1 q-8 0 -57 -8q-7 0 -49 -1l-101 3l-89 -3q-1 2 -1 3q1 9 1 12h-17l-7 1v-7q0 -2 -3 -2q-21 5 -35 11q-6 5 -15 5q-49 -7 -63 -7h-60q-13 10 -30 10h-12q-23 0 -23 -4q7 -4 7 -5q-11 -6 -14 -6h-1q-4 0 -20 11h-9l-35 -7q-38 -2 -41 -2h-64l-2 -1l-1 2q6 5 31 21v1h-2 q-24 0 -34 -9q-17 -10 -24 -10l-19 2q-65 -14 -91 -14q-10 -5 -24 -7q-54 9 -54 17q2 0 35 24q27 14 38 38q6 24 24 24q0 1 7 1h2v3q0 19 13 24q10 0 20 13q12 18 37 47q-1 18 -1 24v1l-3 10q2 7 28 25q16 5 32 45q4 28 25 52q5 5 38 30q4 7 14 39q7 13 36 42q41 39 41 67 q5 19 38 55q32 35 32 44q32 43 48 57h3q3 -2 5 -2h3q11 6 16 19q10 40 18 45q1 2 1 4v1q-4 5 -6 9v3q15 16 39 58q6 8 11 8h2q8 -8 12 -8h1q38 34 38 51q4 13 46 41q9 15 25 15q25 6 25 18l-11 10v1q19 65 19 102v3q0 55 -30 87h-1q-2 0 -7 -22l-3 -2h-1q-4 2 -30 45 q-12 24 -21 24h-25q-9 0 -45 28q-9 5 -14 5h-1q-28 -13 -43 -13q-21 1 -24 1l-27 -11l-6 -1q-33 3 -48 3q-3 0 -7 -4q2 -7 2 -13q-40 -19 -60 -32q-15 -38 -22 -48h-19q-17 20 -24 26q0 3 -2 3h-3v-1q5 -29 16 -29l8 -2v-2q-4 -8 -49 -28q-25 -15 -41 -37l-16 -12v-5v-3 q0 -4 -11 -25q-10 -23 -17 -47h-1q-29 27 -34 46q-6 14 -13 87q-2 0 -3 31q0 8 3 8q1 0 12 -4q3 0 10 37q25 93 38 108v1l-2 -1h-1q0 8 36 46q11 -5 12 -5q5 3 27 45q64 58 95 65q0 2 37 12q5 14 8 15h5q4 0 39 -7q48 5 131 7q0 1 8 2z" />
<glyph unicode="3" horiz-adv-x="1075" d="M397 1433h1q13 -11 23 -14h4q0 6 3 6q1 0 5 -6v-2l-2 -3v-2q7 3 9 3q0 1 -2 8q3 2 6 2q4 0 8 -5q13 5 13 6q29 -1 48 -3q12 7 15 7q2 -3 2 -5h2l7 5l6 -5h2q4 3 8 3q1 0 3 -3l-3 -4q2 0 2 -2q15 2 40 3q0 -2 2 -2q7 4 12 4l9 -6q1 0 1 -2q1 0 11 4l5 -7q19 7 21 7l2 -3 v-1q0 -2 -3 -9l8 -6q12 0 18 18q3 4 22 7q0 -3 9 -5h11q91 0 151 -98q0 -4 22 -6q15 -2 15 -11v-5q-2 -14 -2 -20v-4q7 -10 17 -10q0 4 9 6h2q20 -29 20 -32q-1 -10 -1 -15q11 -28 11 -46v-15q6 -39 6 -62v-3l2 -3q-9 -86 -17 -86q-10 -12 -11 -20q4 -15 4 -17v-3 q0 -5 -9 -13q-3 -15 -21 -42q0 -18 -28 -40q-48 -64 -67 -64q-31 -10 -47 -27v-2h1l8 2q2 -7 3 -7h1l7 1q1 -2 2 -2q0 3 5 7h1q1 0 1 -1q5 2 8 2l1 -2q-1 0 -1 -1h1l10 1q8 -10 8 -14q3 0 12 2q0 -2 8 -4q-2 -14 -7 -14q0 -14 22 -19q4 -1 8 -1h6q7 -14 16 -14l2 -3 q-1 -9 -1 -10q2 -5 4 -5q3 0 15 3q0 -1 12 -8q0 -5 7 -6q5 -14 17 -34q19 -26 19 -50v-2q20 0 31 -11v-3q-17 -30 -17 -42q7 -9 7 -10h3q2 11 14 11l5 -58v-2q0 -9 -9 -22v-3q0 -22 -17 -69q-24 -101 -47 -142l-30 -43q-2 -3 -35 -33q0 -2 -2 -5q1 -7 1 -11q-1 -2 -24 -20 q-19 -21 -40 -32q-24 -28 -51 -40l-38 -26q-22 -12 -46 -12h-25q-20 -21 -31 -21h-36q-18 0 -32 -9q-4 -1 -9 -1h-1q-17 0 -104 8q-13 -1 -15 -1q-12 0 -65 24q-11 3 -60 10q-11 6 -50 11q-10 0 -48 15q-2 12 -2 16q2 3 2 6v7q0 1 -3 3q-16 -21 -18 -22q-2 0 -22 12 q-6 2 -26 20q-18 5 -18 13q-9 19 -25 19q-5 1 -21 22q-20 16 -20 29q0 4 16 7q3 7 5 7q7 -2 8 -2q9 21 20 21q25 63 31 71h8q10 24 19 24q1 0 3 -3q0 -32 7 -32q16 -4 16 -13q5 -20 14 -20q11 0 27 -9q0 -1 -1 -1q11 -26 45 -26h10q3 -3 15 -22q38 -10 75 -10q6 1 9 1 q9 -7 13 -7q3 0 42 7h1q2 0 6 -2l-4 -8q1 -4 5 -6q1 0 16 19q3 3 11 4q4 -2 6 -2q5 10 65 32q35 15 35 32q0 36 25 36q18 -1 20 -2q1 0 18 4v1q-4 0 -4 3v3q24 17 33 56l5 23q-4 0 -4 3q0 9 7 33h1q8 0 8 -7h1q0 3 5 19q0 10 11 72v6q-12 5 -12 25q-16 95 -28 109 q-17 22 -17 35h-2l-2 -1q2 -4 2 -11v-2q0 -2 -2 -2h-3l-13 28q-4 7 -6 22q-2 3 -23 19v1q0 2 2 2h8v1q0 3 -25 14q-7 0 -26 13h-10l-6 -1q-20 10 -22 10q-2 -7 -4 -7l-18 7q-22 -9 -38 -9h-3q-6 -7 -24 -14h-2q-1 2 -1 3q0 16 -5 32v2q4 11 6 30q-3 8 -3 9q5 3 13 3 q2 0 11 -7q10 8 13 8h3q8 -6 13 -6q0 1 3 3h6q9 0 24 -3q11 3 28 3q1 -4 2 -4q15 10 45 17q6 14 10 14q5 -3 8 -3q26 13 27 15l8 10l-1 2v1q13 0 13 14q25 50 27 73l3 13l-5 -3q-1 0 -3 3v4q0 13 16 83v2q0 36 -37 84q-22 9 -33 20q-32 39 -57 44q-7 5 -12 8q-4 -1 -4 -3 q4 0 10 -9q0 -1 -6 -3q0 2 -20 13q-12 14 -49 21q-47 11 -60 11q-28 -13 -32 -13q-7 2 -12 2q-2 0 -19 -9h-1q-2 0 -11 3q-3 0 -29 -13q-16 -2 -16 -10q-69 -24 -69 -28t-31 -13q-3 -2 -12 -19q-17 -7 -17 -21q0 -9 -24 -36q-1 -5 -3 -5h-1q-8 0 -26 86q-7 16 -10 16 q-7 0 -14 11l1 7q-21 32 -30 32q-3 0 -13 15v2q24 7 35 20q8 15 24 15q10 2 10 4q0 3 14 7l7 -1h6q6 4 6 9q-1 6 -1 8q8 4 23 25l8 6h4l5 -4q7 0 39 21q27 15 96 38q5 -6 8 -6q20 3 32 6v6q23 25 29 25z" />
<glyph unicode="4" horiz-adv-x="1232" d="M320 1447v-1l-4 -5q0 -3 2 -3q32 1 47 1q3 0 8 -8q2 -1 4 -1h6q42 0 84 14l1 -2q-10 -31 -26 -39q-9 -9 -19 -40v-1q6 -7 6 -8q0 -4 -11 -19v-5q0 -8 7 -70q-1 -30 -2 -43q5 -16 5 -20v-4q0 -6 -9 -56q-8 -253 -12 -253q-11 -28 -11 -35q0 -3 13 -9q-3 -36 -3 -48h8 q23 0 52 4h10q2 0 23 -8l11 -2q66 4 66 14q0 7 21 11q19 -5 19 -8l-1 -7q0 -2 6 -4q49 4 67 4q31 -3 35 -3h37l7 -1q1 9 4 59q-3 29 -3 36q5 17 5 22q-6 82 -6 94q9 36 15 36h8q1 1 1 4v3l7 75q0 33 -14 47l-2 6q4 47 4 59v11l-1 5h-1l-9 -7h-1q-3 1 -3 6v9q0 30 4 75 q-5 34 -25 57q-28 34 -28 42v1l1 2l56 -3l88 3q1 -2 1 -3l-3 -11v-1l5 -1q34 1 49 1q0 1 1 1l-1 5v1q0 7 47 11q86 -2 86 -7q0 -11 17 -11l37 -1q7 1 7 4q-4 7 -4 10v1q11 2 26 2q8 0 62 -1l2 -2q0 -16 -10 -20q-33 -24 -52 -51q-1 -3 -1 -4q0 -2 2 -7q0 -4 -14 -12 q-4 -10 -4 -24v-26q0 -8 -13 -10q-5 0 -7 -63l1 -6q0 -10 -5 -137q0 -5 -14 -9q-6 -42 -6 -73q0 -7 4 -137q0 -28 -4 -57h14q6 0 56 26q6 3 8 3l1 -2q-4 -40 -8 -40l-3 -4q0 -1 6 -15q-3 -12 -3 -14v-20q0 -2 2 -11q-6 10 -13 10q-11 -10 -11 -14l15 -17q0 -5 -7 -44.5 t4 -76.5q-1 0 -1 -1q-36 14 -36 23q-10 12 -23 14v-1q-12 -163 -12 -228q0 -7 2 -7l8 6h2l3 -2q-11 -233 -11 -246q1 -13 18 -50q-5 -7 -5 -10v-2q6 -7 40 -23q40 -39 41 -42v-3q-51 -2 -98 -2q-84 5 -89 8q-11 4 -20 4q-96 -10 -105 -10h-6q-2 0 -2 3v2l3 11l-2 1 q-1 0 -25 -3l-15 2v-2q3 -10 3 -11q0 -5 -79 -8q-70 4 -70 8q16 25 48 59q25 26 25 115q0 18 11 90q2 129 9 129q13 0 13 20v34h-1q-9 -5 -12 -5q-1 2 -1 3q0 2 17 31l1 15q0 49 -10 64v1l5 -1h1q2 0 2 3q-9 21 -9 24l-3 -1h-1v4q0 5 -1 12q5 5 5 19q-10 -4 -22 -5l-45 9 q-9 -3 -12 -6q-38 4 -45 4l-102 -9h-4q-5 9 -15 9h-4l-72 -6h-3q-21 0 -36 2q0 -2 -2 -2q-7 0 -52 4l-6 -4q-15 5 -24 5q-7 0 -21 -1q-9 2 -16 2q-12 0 -56 -5q-31 -5 -69 -19q-16 -4 -1 -30q-5 -1 -9 -1h-2q-2 0 -22 3h-10q-5 0 -27 -19h-3l-7 10q-29 -11 -45 -28h-1v2 q16 41 83 139q9 34 7 94q2 0 5 21v2q-3 14 -3 15v4l7 24q7 63 7 95q-5 20 -6 32q0 13 17 38v4q0 2 -3 2q-9 -2 -13 -2q-1 2 -1 3q0 6 11 39q2 40 2 58q-3 66 -3 95q7 23 7 36l-12 43q0 2 13 13v1q0 10 -13 93q-34 48 -34 56q40 0 48 -7q0 -1 3 -1q16 6 17 6q12 -3 15 -3h13 q5 0 22 4q43 -4 43 -11q13 -10 15 -10q3 0 17 15q2 0 32 10z" />
<glyph unicode="5" horiz-adv-x="1080" d="M1042 1485l3 -2q0 -5 -23 -53q8 -1 8 -3q0 -5 -23 -27q-12 -28 -15 -31h-1q-4 4 -5 4l-1 -2v-21q0 -9 -34 -103q0 -23 -16 -31q-12 -11 -27 -38h-1q-3 16 -10 16h-1q-14 0 -47 -6q-29 5 -29 10v5q-3 -7 -18 -7q-20 -2 -32 -2h-4q-4 0 -21 -12h-2q-22 16 -34 16 q-9 0 -12 -6q-25 -1 -40 -1h-5q-4 0 -27 6h-2q-29 -7 -32 -7t-20 7h-2q-31 -5 -41 -5h-6q-10 0 -22 8q-8 -13 -14 -13q-13 2 -21 2q-22 -4 -26 -4h-1q-1 -21 -1 -31v-1q-12 -7 -12 -10q-2 -5 -2 -11q5 -17 15 -62q11 -1 11 -5q-5 -35 -5 -36q0 -25 12 -65q1 0 1 -1q3 2 31 5 q0 2 17 3q3 0 10 -6h11q16 0 21 -9q12 0 32 12q4 2 6 2h6q39 0 49 -14h3q31 1 37 1q4 -9 19 -9q11 0 38 -15q27 -10 58 -19q6 -6 7 -9l-1 -10q2 -16 7 -16q6 0 17 -14q4 -3 9 -3h2q4 -20 44 -19l24 -26l1 -6q-2 -7 -2 -13v-1q1 0 33 -33q5 -4 21 -34q37 -32 37 -59 q0 -5 -1 -30q0 -9 18 -42q3 -15 3 -20q-4 -1 -4 -3v-2l4 3h3q3 -1 4 -16q-1 -23 -1 -26q-1 -1 -4 -1v-3l1 -11q-1 0 -1 -1q5 -4 5 -7q-3 -17 -4 -31q5 -4 5 -9q0 -3 -1 -20q4 -15 4 -18q-1 -5 -7 -12q0 -10 1 -18q-3 -44 -13 -44q-6 -3 -6 -26q0 -11 -30 -77 q-10 -34 -28 -45q-22 -9 -21 -48q-37 -27 -55 -41q-9 -9 -29 -33q-5 -4 -8 -4l-1 2v2q6 14 20 33v1q-38 -29 -55 -47q-22 -26 -27 -26q-18 0 -28 -11q-37 -7 -72 -22h-41q-1 0 -10 8q-27 0 -72 -20q-10 -4 -17 -4l-24 7q-4 0 -37 -7h-1q-4 3 -11 6l-4 -1h-5q0 -3 -6 -7h-3 l-6 6h-2l-33 -5q-9 0 -22 11l-5 1q-18 -2 -22 -2h-8q-19 0 -82 25q-36 24 -45 26l-14 -1q-31 18 -82 41q-7 5 -7 10l3 9v2q0 1 -2 8q0 2 15 20v3q0 4 -35 9q-6 4 -21 46q-4 11 -4 17q9 30 9 33q0 5 -17 24q-3 5 -3 12v21q0 88 45 165q6 7 7 7h1q2 0 3 -11h2q41 37 41 43 q6 0 17 23l2 1v0q14 -2 16 -2h1q26 7 37 19q2 1 19 12q2 0 4 -3q-4 -10 -11 -43q-3 0 -6 -8q-15 -4 -66 -67q-28 -30 -28 -97v-7q0 -21 6 -27q8 -4 8 -28q13 -39 63 -100q35 -36 66 -36h2q12 0 38 8h2q6 -10 22 -10h21q0 6 4 6q3 0 16 -9h2q28 10 53 10q2 3 12 3q6 0 16 -10 q1 -1 4 -1q7 0 34 -1q1 3 2 3q-10 11 -10 14q3 2 6 2q4 -8 11 -8q0 -1 9 -2q18 2 32 6q4 6 24 17q0 8 25 12q40 34 56 36q0 1 -15 22v2q20 14 20 17q0 9 18 19q4 9 46 55q1 5 3 33q15 18 15 39q2 0 2 7q-6 26 -6 29v16q8 4 8 16q-3 0 -3 7q0 3 14 16l1 5v1q0 27 -5 27 q-6 1 -6 10v21q-7 0 -7 10t-5 10q-13 0 -28 33q-6 27 -10 35q-36 36 -37 41v2v0v-3q0 -7 1 -16h5q11 -13 11 -23l-2 -1h-1q-14 5 -43 41q-13 22 -27 22q-13 -3 -19 -3q-3 0 -3 10q2 0 2 2h-1q-4 -3 -13 -3q-18 0 -67 21q-24 9 -33 9q-4 0 -28 -7h-2q-12 9 -29 9 q-10 0 -35 -17q-7 -2 -12 -2q-29 8 -29 18q-3 4 -4 4l-6 -5h-4q-11 0 -24 -12q-3 -2 -7 -2h-2q-3 0 -11 4q-14 -21 -23 -21q-2 5 -2 17v5q-16 -18 -22 -21h-17q-7 -9 -59 -28q-61 -33 -75 -33v2q0 15 35 48q10 13 17 56q18 72 18 94l-5 28q0 11 13 29v3q0 3 -8 29v3l6 19 l-8 25l7 37v2q0 6 -9 69q2 8 13 28q-3 62 -5 79v2q0 4 12 28v10v10q0 10 -3 31q1 18 1 22q-5 22 -5 50v39q-19 5 -19 7v9q0 2 42 8l25 -2q9 1 24 1q24 -7 28 -7l16 2q7 0 17 -1q19 7 26 7h1q3 0 20 -10h3q18 0 40 16q22 -4 49 -13h1q1 0 15 2h21l33 -3h7q18 8 19 8h5 q5 0 32 -12h3l23 6q12 0 19 -2q2 0 8 1q80 -2 97 -2q0 -2 6 -6q3 0 42 9q8 -6 11 -6h1q9 0 16 11h7q6 -8 25 -8l28 -6q7 0 15 11l13 3q6 0 35 -7q10 0 58 21h10q7 0 48 30q6 4 9 4z" />
<glyph unicode="6" horiz-adv-x="1218" d="M609 1433h4q8 0 22 -11h2l95 8h20q2 0 2 -2q-2 -9 -2 -12q2 -1 3 -1q47 7 53 7q36 -7 41 -7h1q4 0 5 1q26 -3 30 -3q1 1 3 1h8l2 -1l-1 -5v-4q1 -2 2 -2h1l27 5l1 -2l-6 -19q2 -1 3 -1l38 10q5 0 54 -53q0 -2 -3 -2q-14 8 -75 20q-38 6 -47 6h-2q-3 0 -4 -1l-6 1 q-43 -1 -135 -25h-2q-13 11 -17 11q-3 0 -27 -27l-25 -9q-5 -5 -24 -10q-27 -18 -85 -34q-8 -3 -8 -5v-2q4 -4 4 -5t-10 -12h-1q-3 0 -16 8q-5 0 -21 -42q-60 -55 -60 -58q-8 -9 -19 -49q-6 -11 -9 -13h-1q-4 0 -14 9q-4 -1 -6 -5v-2q10 -12 10 -18q0 -12 -32 -66 q-16 -46 -22 -54q-19 -13 -19 -32q-16 -47 -21 -72q-19 -30 -19 -54q4 -32 8 -91q-8 -66 -8 -84v-27q0 -3 -2 -13q11 -17 11 -20v-4q0 -10 2 -18q-2 -20 -2 -34q11 -46 11 -51q0 -1 -8 -6v-1q0 -12 18 -15q12 -5 26 -37q23 -57 44 -77q21 -17 34 -21q9 -9 17 -10q3 0 21 1 q4 0 19 -11q12 0 14 -11q5 0 5 -1l5 1q12 0 43 -9q0 4 70 11v-2q-20 -8 -23 -12v-1q1 0 6 -1q24 0 113 23q21 10 47 17q0 4 14 7q0 5 9 8q0 6 23 8q3 0 29 30q11 4 19 27q9 0 12 3q1 -2 2 -10h2q9 12 24 67q0 14 12 39q2 4 2 6q-6 11 -6 13v1q0 2 10 22q-6 0 -6 8q4 5 18 8 q5 4 5 7q-1 0 -8 18q-22 19 -22 33q1 28 1 33q0 9 -26 29q-6 6 -15 33q-3 4 -13 9q-3 3 -3 5t2 11q-19 0 -35 15q-16 4 -18 6q-7 21 -18 21q-8 4 -47 16v1q13 21 13 26h-1q-5 -2 -13 -2h-16l-6 1q-3 -24 -4 -24q-4 0 -5 1q-12 -1 -17 -1q-8 0 -35 2q-26 0 -56 -21 q-6 0 -39 -19q-5 -2 -6 -2l-2 1q-11 -1 -45 -36q-5 -16 -18 -25q-12 -23 -12 -29q5 -45 5 -54q13 -11 13 -24q6 0 10 -11q7 -3 37 -32v-1q0 -7 -9 -7h-9q-28 0 -94 21q-22 11 -35 33q-25 38 -25 46v3q5 10 5 12v5q0 1 -11 4q-6 25 -6 40v1q0 11 11 21q-5 5 -5 12q0 3 11 33 q3 9 5 37q3 6 7 6q8 -3 11 -3q16 20 16 26h-1q-4 2 -4 3q0 12 28 26l-1 2v1q0 14 27 43q4 5 36 15v1h-2l48 25q21 12 26 12h1q3 0 14 -4h3q10 0 10 8q0 10 17 10q42 5 58 9q28 13 47 13q18 0 45 -3q18 1 29 1q38 0 144 -46q35 -9 35 -22q11 -30 19 -30q9 3 13 3h1 q5 0 26 -19q2 0 2 -1q7 3 11 3q8 0 22 -31q16 -10 16 -13q22 -41 35 -77q24 -23 24 -32q0 -24 21 -60q8 -20 10 -41q0 -17 -9 -22l-1 -10v-9q6 -6 6 -20q0 -39 -17 -99q-9 -25 -15 -53q-14 -22 -14 -50q-1 -7 -14 -17q-14 -33 -29 -50q-33 -48 -53 -81q-9 -8 -17 -8 q-4 0 -25 8q-12 -16 -12 -22q5 -6 5 -8q0 -7 -18 -19q-6 -3 -26 -21q-33 -15 -49 -30l-1 -2v-2q5 -14 5 -15v-3q0 -2 -6 -4q-3 0 -16 2q-27 -11 -60 -22q-6 -27 -20 -27q-57 -10 -119 -17q0 -1 -16 -3l-7 1q-20 -3 -42 -3h-2q-5 0 -8 1q-6 -1 -10 -1h-8q-22 0 -97 16 q-13 5 -13 13q0 3 -67 8q-31 8 -31 13q-9 9 -57 25q-18 10 -18 23q-27 24 -37 24q-10 -2 -13 -2q-9 0 -11 34q-11 8 -11 12h-1q-4 0 -18 -10q-40 20 -40 29q6 18 7 18q3 2 19 4q-12 14 -25 22h-1l1 -4v-3q0 -2 -2 -2q-7 1 -23 34q-9 9 -43 33q-12 11 -12 20v12q0 7 -7 22 q4 12 4 15v3q0 7 -17 28q0 3 -6 21q-8 39 -8 56q0 18 18 24l2 6q-1 4 -4 4q-11 -2 -13 -2q-9 21 -9 50q1 7 1 17q0 4 19 39q1 2 1 4v4l-7 1h-6q-2 0 -3 3q5 68 13 134q-2 30 -2 55v2q0 14 15 26q6 34 25 98q5 20 9 78q3 11 19 24q9 9 26 62q17 39 27 39q28 8 28 24v18 q0 13 31 42q59 73 74 89q6 4 22 7q74 59 103 66q17 -5 19 -5q6 0 36 29q81 31 116 31z" />
<glyph unicode="7" horiz-adv-x="1023" d="M780 1446q35 0 35 -6q0 -9 16 -11q6 0 18 1q86 -1 110 -1q8 0 56 1q11 -2 25 -2h4q11 0 53 14q29 3 39 3l1 -2q-4 -4 -77 -52l-35 -34q-32 -20 -32 -38q0 -13 -33 -44q-8 -16 -20 -50q-9 -27 -33 -63q-16 -33 -35 -111q-12 -29 -48 -109q0 -13 -10 -16q-1 -2 -1 -4v-31 q-11 -5 -15 -21l-49 -98q-8 0 -46 -103q-35 -80 -35 -85v-2l4 -5v-2q0 -8 -31 -78q-22 -73 -35 -108q-42 -102 -54 -136q-18 -19 -19 -28l8 -14v-2q0 -7 -25 -62q0 -21 -13 -75v-3q0 -28 31 -71v-4h-70q-6 0 -16 -1q-8 0 -20 8q-4 1 -8 1l-38 -8q-6 -1 -18 -1q-52 0 -178 -7 q-18 0 -28 8q-12 2 -34 2h-66q-15 0 -15 4v1q18 10 33 23q66 55 71 75q17 41 52 73q16 16 25 51q12 51 27 85q12 25 20 72q20 43 47 118q16 34 42 70q17 21 42 101q26 68 40 102q7 11 16 18q10 15 24 74q6 43 12 65q1 0 13 20q14 9 20 31q26 56 26 77q8 11 13 24l-1 5 q14 15 56 130q1 0 8 18q-58 14 -102 14q0 1 -15 2h-16q-44 -9 -57 -9q-23 0 -63 9h-8q-17 0 -137 -24q-3 6 -6 6q-29 -9 -31 -12q-82 -18 -127 -39q0 -1 -19 -9q-1 2 -1 3q0 11 30 50q22 31 27 33q6 0 12 11v3q0 2 -6 4q19 40 19 63q6 16 6 24q0 5 -2 5q-12 -2 -13 -2l-1 2 q0 4 21 32v1q0 4 -6 12q0 2 -1 22q5 11 7 11q5 0 36 -10h1q48 3 53 3q8 0 11 -7q1 0 3 -1q41 -1 62 -1h21q1 0 6 -11h5q17 12 33 12q17 0 29 7l8 1q8 0 8 -7q7 -2 17 -2q11 0 74 1q0 -2 11 -4q0 -8 3 -8h3q5 0 11 7q3 -6 11 -6h5q12 0 12 10h2q20 0 33 1q21 -1 38 -1 q3 0 20 1q8 -10 11 -10l2 1q3 -2 9 -2q5 5 30 9q0 2 5 2h23q16 0 32 12q9 4 12 4z" />
<glyph unicode="8" horiz-adv-x="1123" d="M622 1433h5q8 0 42 -12q28 -4 39 -5l33 -1q18 1 20 1h1q23 -1 64 -30q0 -2 11 -11q13 -16 57 -25q26 -1 42 -32q10 -11 34 -23q6 -6 6 -18v-2q-15 -46 -15 -50q36 -10 48 -14q11 -31 16 -31q8 2 12 2q8 -53 21 -69q19 -12 19 -36v-28q0 -20 -11 -71q-2 -28 -12 -53 q0 -27 -35 -73q-12 -25 -22 -24q-13 -5 -18 -20l-2 -5l2 -6h-4q-4 3 -12 4q-28 -3 -28 -14q-4 -24 -6 -29q-4 -13 -93 -34q-8 1 -13 -4q7 -5 12 -6q3 0 14 2l1 -2l-10 -10q27 -22 62 -23q18 -5 27 -20q0 -4 40 -45q15 -21 15 -54v-4q0 -2 25 -15q10 -31 17 -31q7 2 11 2 q11 -64 18 -64q0 -2 17 -17q5 -19 5 -24v-12q0 -13 11 -29q1 -1 1 -4v-2q-4 -17 -24 -60q0 -15 -11 -45q0 -26 -35 -74q-13 -26 -26 -25q-12 -7 -14 -18l-2 -4l2 -6q-3 -2 -4 -2q-3 4 -12 5q-28 -3 -28 -14q-4 -24 -6 -28q0 -10 -68 -28q-60 -19 -60 -24v-1l5 -1q18 0 46 5 q-98 -49 -154 -50q-30 -7 -90 -5l-31 1q-38 -5 -52 -4h-5q-22 1 -61 19l-6 1q-1 0 -15 -2l-4 1q-24 1 -49 22q-1 2 -1 4q-32 0 -48 1q-12 0 -30 20q-34 20 -56 27q-6 3 -10 21q-23 1 -63 33q-13 15 -33 31l-13 14l14 44q-2 0 -24 -25l-12 24q-10 15 -14 28q-23 12 -23 28 q-2 7 -5 11q-4 7 -4 21v8q0 9 2 27q-8 6 -8 13v7q4 29 9 82q7 46 15 52q2 17 19 41q20 13 26 31q0 2 38 33q21 22 28 34q9 3 49 8l3 3q-3 1 -3 8v4q0 14 25 23q22 17 45 26q0 3 4 3v1q-41 27 -45 27q-28 4 -28 23q0 6 -19 10q-25 9 -56 37q0 2 -30 29q0 2 -7 6q0 5 -13 27 q0 6 -19 36q0 8 -17 18q-7 4 -12 28q-2 0 -2 2v3q0 3 14 21q3 5 3 8t-18 21q-9 13 -9 16v6q4 31 9 82q8 52 15 52q0 16 21 43q9 2 28 35q35 26 46 40l16 22q8 3 48 9q0 1 4 1q-4 5 -4 9v3q0 10 37 32q24 17 54 27q53 25 57 25h3q11 -8 23 -8q24 -1 43 20q1 0 4 1q4 -2 9 -2 l14 -1q57 3 64 8q0 4 74 6zM447 1227l-10 2v-1q0 -10 -6 -10q-14 0 -14 -8q-3 -18 -12 -18q-22 -14 -27 -30q-8 -30 -9 -43q-17 -15 -33 -43q16 -4 17 -7v-1q-5 -19 -5 -36q4 -70 7 -70q27 -62 34 -62q3 -2 18 -5q0 -3 17 -18q3 -9 15 -18q24 -18 32 -18l17 -1 q17 -15 24 -20l32 -1q20 -11 35 -11q7 -1 9 4q26 24 32 24q4 0 24 -17q7 -5 10 -5q37 4 75 34l27 32q0 5 10 8q6 9 13 43q10 6 10 31q3 9 8 19q-11 0 -11 8v1q24 21 24 30q0 6 -16 15q-7 4 -7 6t10 4q-5 12 -19 89q-18 8 -20 31q0 5 2 13l-21 22l-48 38q-8 1 -22 13 q-48 18 -64 18q-14 1 -17 7v1q1 8 6 7v2h-1q-62 -14 -112 -31q-20 -29 -34 -28zM451 560h-4l-9 2v-8q0 -2 -19 -5q0 -19 -16 -22q-27 -18 -27 -33q-6 -19 -6 -31v-1q0 -1 -19 -4l-1 -2q1 -1 1 -2q-15 -8 -15 -16q2 -6 15 -26v-1q-4 -17 -4 -32q2 -65 11 -69q25 -50 31 -50 q3 -3 20 -7q0 -3 18 -16q0 -12 44 -34h18q14 -11 26 -18l29 -1q27 -10 41 -11q3 0 11 5q11 4 39 8q21 -8 24 -8q38 6 75 29q22 22 32 34q0 4 9 6q5 7 14 40q10 6 10 32q1 1 7 14q-11 0 -11 6q0 2 19 17q5 5 5 7q0 9 -23 23v1q0 2 10 6q-5 9 -16 68q-2 14 -8 15 q-15 10 -15 24v8l1 6l-21 20q-40 27 -50 36q-1 0 -12 4l-28 -8q-4 1 -4 3q3 15 3 16v2q0 2 -33 10l-72 7h-4q-16 -6 -61 -17q-3 0 -23 -23q-9 -4 -12 -4z" />
<glyph unicode="9" horiz-adv-x="1232" d="M579 1430q17 -1 21 -1q9 1 11 1l2 -1q1 0 4 1q14 0 29 -3q3 0 4 1q22 0 97 -20q26 -7 26 -18q17 -5 69 -13q28 -9 28 -15q6 -6 61 -31q13 -8 13 -20q23 -25 37 -27h1q4 0 11 1q11 0 11 -35q12 -9 12 -13h1q3 0 17 9q40 -23 40 -32q-6 -14 -6 -17q-8 -2 -21 -3 q21 -23 24 -24h1l-1 6l2 4q8 -1 21 -31q6 -11 46 -42q11 -11 11 -20q-1 -13 -1 -16q0 -2 6 -16v-1q-4 -14 -4 -19v-1q0 -5 16 -27q0 -4 6 -24q6 -36 6 -50q0 -21 -17 -27q-3 0 -4 -6q1 -4 4 -4q12 1 13 1q7 -13 7 -44v-7q0 -24 -10 -35q-9 -14 -12 -24q1 -5 14 -5l2 -3 l-16 -135v-18q0 -9 1 -19q0 -37 -13 -37q-6 -3 -17 -54q-20 -46 -27 -123q-3 -12 -21 -25q-12 -17 -31 -67q-14 -30 -25 -30q-29 -7 -29 -23q0 -1 1 -13q0 -17 -31 -41q-71 -78 -75 -81q-7 -9 -25 -9q-57 -41 -98 -58q-3 0 -8 -3q-18 8 -23 8q-3 0 -31 -25q-76 -26 -117 -26 q-16 0 -28 12l-4 2q-14 -1 -23 -1q-7 0 -12 1l-21 -2q-9 1 -17 1q-6 0 -16 -1q-29 0 -29 5l3 10l-4 2q-49 -5 -52 -5q-36 11 -47 11q-40 5 -44 5l-1 2q2 4 2 6q-1 4 -6 4q-3 0 -22 -4q-4 1 -4 3q6 15 6 19h-5l-34 -7q-8 0 -55 56v0l1 2q27 -14 101 -30q23 -5 47 -5 q73 4 118 14q0 2 9 2q12 -12 16 -12q6 0 28 25q6 2 23 5q12 8 23 8q29 17 78 28q21 3 21 8v1l-3 3v3q10 11 12 11l14 -10h3q5 2 20 40q53 44 64 55q8 11 21 49q6 10 7 10h1q4 0 15 -10h2l3 4v1q0 3 -8 15v9q0 10 33 58q19 50 23 54q19 11 19 22q20 58 24 76q21 31 21 49 q2 0 2 7q-3 28 -6 91q12 70 12 108l-1 4q3 7 3 12q0 1 -12 17l1 5v2q0 10 -2 20q3 10 3 33q-9 42 -9 51q8 4 8 5v1q0 11 -22 17q-13 13 -43 90q-28 41 -52 49q-11 13 -26 13l-6 -1q-12 0 -27 13q-10 0 -13 11q0 1 -5 2l-4 -1q-20 3 -44 13q-32 -7 -71 -7v1q2 1 23 11v2l-7 1 q-38 0 -117 -16q-17 -7 -45 -13q0 -5 -13 -5q0 -6 -12 -11q0 -2 -23 -5q-5 -3 -32 -29q-7 0 -16 -23h-1l-5 1q-2 -1 -6 -1q-1 7 -3 7h-2q-27 -57 -27 -77q-12 -28 -12 -30v-2l4 -12v-1l-9 -22v-1q5 0 5 -6q-3 -5 -16 -7q-8 -3 -8 -5q4 -19 13 -29q15 -11 15 -27v-1 q0 -6 -2 -28q0 -12 29 -38q2 -3 13 -33q13 -6 13 -13l-2 -9q27 -6 27 -11q6 -8 25 -13q8 -23 20 -23q20 -10 45 -19v-2q-13 -20 -13 -24h1q4 0 9 1q19 -1 26 -3q3 20 4 23q17 0 59 -5h8q19 0 50 18q5 0 41 16h2q2 0 4 -1q17 6 46 34q4 13 17 22q13 20 13 29v5q0 13 -3 29 q1 8 1 15q0 6 -11 19q-1 2 -1 4q0 1 1 3q-1 3 -8 8q0 7 -15 18l-24 24v3q2 5 7 5h8q60 -10 100 -31q20 -9 40 -50q15 -18 15 -33q0 -2 -5 -9v-7q0 -2 10 -4q5 -21 5 -36v-8q0 -9 -11 -18v-2q3 0 4 -8v-1q0 -7 -14 -39q-2 -37 -9 -37q-4 0 -12 4q-18 -18 -18 -26q5 -1 5 -3 q0 -12 -28 -22v-4q0 -17 -33 -45q-14 -5 -30 -9l1 -2v-1q-34 -12 -66 -27q-6 -3 -11 -3h-1q-5 0 -12 5h-3q-13 0 -13 -7q0 -9 -14 -9q-60 -2 -68 -8q-25 -8 -34 -8q-8 0 -63 7q-1 0 -3 -1q-50 0 -165 60q-28 9 -28 18l-13 32q-3 3 -8 3l-12 -2q-4 0 -26 20l-2 1 q-10 -2 -11 -2q-10 0 -19 30q-4 5 -18 14q0 3 -22 50q-9 34 -29 51q-8 7 -8 36q-25 54 -25 78v7q0 14 8 17q2 4 2 8v12q-5 6 -5 20q0 41 31 133q2 11 17 38q4 38 13 38q9 7 17 30q50 62 75 100q9 6 14 6q8 0 28 -8q13 14 13 21l-5 7q0 9 29 23q11 15 42 26q27 12 27 21 q-6 11 -6 15v1q0 2 3 3h2q7 0 17 -2l62 19q6 23 18 23q40 6 129 11q0 1 5 1z" />
<glyph unicode=":" horiz-adv-x="625" d="M296 406h3q1 -2 3 -2h2q16 1 17 1v0q8 -1 8 -4v0l-1 -1h6q6 -1 16 -8q6 -7 10 -14q4 -8 4 -14v-2v-9q3 0 7 -5q1 0 1 -6q1 -3 1 -7v-1q0 -12 -4 -23q-2 -3 -5 -4v-18q-2 -6 -10 -16q-9 -9 -14 -11q-7 -6 -16 -9q-7 -3 -18 -6q-15 -5 -23 -5h-2q-13 0 -26 5q-3 2 -7 5v0v0 v1q1 0 3 -1q3 1 3 3q0 3 -7 8q-1 1 -3 1h-2h-1t-1 -1v-2l1 -2h-1h-5q-8 8 -8 10q-16 21 -16 34v2v8q-8 6 -8 9q1 3 2 3q2 -2 3 -2q3 0 9 7q-4 3 -4 5v1q0 2 7 6q4 4 7 4v0q2 0 2 -4h1q2 12 4 18q1 2 2 2q6 0 6 5q0 3 -5 12v0q0 1 4 3q19 16 24 16h2h1q3 0 3 -2v-1l-1 -1v-5 h6l6 5q-1 7 -1 9q1 3 15 3zM301 1126l7 -7q2 -6 6 -6q5 0 14 6h6v0q-4 -9 -4 -15q0 -9 11 -9q4 0 10 2q7 -4 15 -9q7 -7 9 -11q6 -9 13 -25v-13l-4 -1t-4 -4v-3q0 -5 4 -8q1 -2 1 -6q0 -15 -8 -30q-7 -11 -16 -15h-18h-9v0v0v-13l-13 -14q-8 -1 -14 -1v0q-5 0 -6 2h-2h-1 q-9 -1 -12 -1h-1q-12 1 -15 1q-5 0 -9 -1q-11 6 -23 15q-11 10 -15 20q-8 18 -9 25h1q5 0 6 5q1 1 1 2v1q0 1 -2 10v2q0 4 1 7q-8 8 -8 9v1q1 19 2 19q6 13 7 13l12 12h13v13h1h6l8 8l12 6h14v0q0 5 8 7q3 2 5 6v0z" />
<glyph unicode=";" horiz-adv-x="706" d="M354 907h3h8l8 -8h15v0v-8l24 -8q8 -17 10 -18l13 -20v-23l-8 -8v-23q-2 -8 -13 -21q-9 -10 -14 -13q-9 -6 -17 -10q-7 -3 -14 -4q-3 -1 -5 -1q-12 0 -30 1v0q2 -2 2 -4v0q0 -4 -7 -4q-12 1 -12 2v0v1q0 2 2 5q-5 -2 -9 -2q-5 0 -10 6q-10 9 -14 15q-3 4 -7 11h-1v0 l-3 -2h-1q-2 0 -3 8v7q0 20 1 20q5 -2 7 -2l1 1v0v1l1 5v0q0 4 -6 5h-2q-3 0 -9 -2q-1 6 -1 12q0 17 12 27q15 15 24 25q11 11 15 13q6 5 11 8q14 5 20 7q4 1 9 1zM288 135q7 0 28 -6q1 -7 1 -14v0q0 -3 -1 -6q3 -5 5 -5q3 0 7 13q16 1 23 1h2v-1h-1q1 -1 2 -1h4q3 0 8 1 q12 -9 28 -22q14 -15 14 -17q12 -24 21 -50q3 -7 3 -9q-1 -15 -1 -18q0 -13 3 -17q4 -3 4 -4v-1q0 -4 -2 -5q-5 -4 -5 -7q-20 -41 -63 -61l-21 -9q-14 -12 -28 -17q-5 -2 -13 -2q-6 0 -34 1q-22 -2 -24 -2h-2q-11 0 -12 7q-1 6 -7 12q-2 3 -8 8v5h1h13h2q11 0 22 8 q7 1 20 12q13 12 14 15q2 5 11 22q3 8 3 12q0 6 -10 20q-2 3 -5 3v0l-6 -1v0q-4 0 -16 11q-5 5 -13 14v1h-1q-15 0 -19 9q-1 3 -2 16q0 1 -5 10q-2 7 -3 10q2 0 2 4q5 21 11 31q8 13 23 23q20 6 27 6z" />
<glyph unicode="&#x3c;" d="M302 549v0q0 7 21 24q3 2 5 11q1 2 41 41l14 11h2q1 -1 3 -1v0q5 4 30 29q16 13 50 35q6 4 8 4q3 -2 4 -2h2q6 0 39 27q21 10 39 20h1q1 0 1 -1v-1l-1 -3l2 -1q3 1 16 13q115 48 120 48l2 2v1q-4 2 -4 3v0q6 4 49 11q8 3 14 3q31 -3 31 -9q0 -1 28 -4q4 -2 25 -9v-1 q-2 0 -22 -16q-13 -8 -24 -10q-6 0 -19 -14q-4 -2 -18 -13q-5 -3 -8 -3q-1 0 -3 1q-10 -2 -10 -4l1 -2q-2 0 -27 -16h-2l-2 1q-22 -9 -26 -16q-8 -7 -11 -7h-1q-2 1 -4 6q-1 0 -2 -2q1 -2 1 -4q-12 -7 -33 -23q-26 -15 -36 -23q-11 -12 -21 -12q-5 -3 -20 -6q-11 -2 -11 -11 q0 -6 -11 -13q-26 -22 -35 -26q-4 -4 -6 -4v0q-3 2 -3 4h-1q-11 -16 -18 -18q-6 0 -10 -5q-12 -7 -12 -11q17 -4 23 -6q1 0 5 -7l7 -5v0q3 2 5 2v0q24 -23 45 -35q14 -9 14 -10v-2v-11l1 -2v-3v0q4 0 9 14l1 1q10 -9 30 -20q12 -8 25 -11q6 -2 6 -4q-2 -2 -2 -3q0 -2 27 -7 q7 -1 15 -10q2 -3 56 -26q16 -8 35 -13q7 -1 19 -7l2 -6q6 -3 29 -9q17 -11 49 -22v-1v-2q-1 -3 -29 -14q-10 2 -14 2l-1 -1q2 -4 2 -5q0 -2 -24 -6q-2 0 -21 -8h-1v0q0 1 1 3v0q0 2 -14 2h-10q-24 0 -28 5q-5 4 -10 5v-1q0 -3 -2 -4h-1q-4 0 -7 7q-2 2 -32 9q-12 8 -24 12 q-10 4 -24 7q-3 1 -8 10h-2q-2 -10 -3 -10q-2 0 -32 20l-21 9v1q10 1 10 3q0 3 -15 6q-2 -4 -4 -5q-46 20 -103 52q-25 14 -35 22q-4 10 -6 11q-17 2 -17 5l-29 23q-17 11 -17 16q2 6 2 7t-1 1h-1l-2 -3q-2 3 -10 5q-15 15 -16 15z" />
<glyph unicode="=" d="M844 657q-3 1 -17 13q-3 3 -5 3h-1q-6 -2 -16 -2h-6q-4 0 -6 1q-39 -2 -53 -4q-4 1 -7 0h-4q-1 1 -15 4q-9 0 -40 -6l-35 3q-4 0 -5 -1q-3 1 -11 1q-10 0 -12 -1q-23 1 -28 2q-5 -1 -10 -1q-6 1 -38 2q-30 3 -68 5h-4h-16h-9l-6 -1q-3 1 -11 1q-4 0 -44 -2h-15 q-6 -1 -11 -1l-2 1q-4 0 -4 1v1l5 4v1q0 1 -1 1q-2 -1 -16 2q-3 1 -10 -13v0l-1 -1q-1 2 -4 2q-1 0 -14 -2q-5 0 -4 7q4 31 4 37q-1 1 -1 2q1 3 2 5q0 4 -1 10v2q1 0 2 5q2 5 -3 12q-1 7 0 26q-4 9 -3 16l1 1q6 -2 11 -2h6q2 0 18 -1h1q7 0 24 1q10 -1 15 -1q3 0 32 4h3 q6 0 29 -3q6 -1 16 -2q23 1 36 1h3q15 0 36 -3q4 0 12 1l4 -1q17 2 26 2q6 0 14 -8q2 -4 4 -4h2q4 0 12 1h4h4q3 0 19 2q4 0 21 -1q56 2 68 1q3 1 13 -5q2 -1 6 -1h3q3 1 16 7h6h5q17 0 31 -2h8q15 1 44 -6l1 -1v-1q-2 -1 -2 -3v-1q-2 -7 2 -53q1 -24 -3 -40v-2 q-5 -15 -7 -15zM847 438q-3 0 -17 12q-3 3 -5 3h-1q-6 -2 -16 -2h-6q-4 0 -7 1q-38 -2 -52 -4q-4 1 -8 0h-3q-1 0 -16 3q-8 1 -39 -5l-35 3q-4 0 -5 -1q-4 1 -11 1q-10 -1 -12 -1q-23 1 -28 1h-10q-6 1 -38 2q-31 3 -68 4h-4h-16q-3 0 -9 1l-6 -1q-4 1 -11 0q-4 1 -44 -1 h-15q-6 -1 -11 -1h-2q-4 0 -4 2v0l4 5v0q1 1 0 1q-2 0 -17 3q-2 0 -9 -13h-1v-1q-1 2 -4 2q-1 0 -14 -2q-5 -1 -4 6q4 31 3 37v2q1 2 2 5q0 3 -1 9v2q1 0 2 5q2 5 -4 12q0 7 1 25q-4 9 -3 15v1q6 -2 12 -2h6h17l2 -1q7 0 23 1q11 -1 16 -1q3 0 32 4h3q6 0 29 -3q6 0 16 -1 q23 1 36 1h2q16 0 37 -4q3 1 12 1h4q17 2 26 2q6 0 14 -9q2 -3 4 -3h2q4 0 12 1h4h4q3 0 19 2q4 0 21 -1q56 1 68 1q3 1 13 -5q2 -1 6 -1h2q3 1 17 6q3 1 6 1l5 -1q17 0 31 -1h8q14 1 44 -6v-1v-1q-1 -1 -1 -3l-1 -1q-1 -6 2 -51q2 -24 -2 -39l-1 -3q-4 -14 -6 -13z" />
<glyph unicode="&#x3e;" d="M836 534q-9 -2 -10 -5l-3 3v0q-1 0 -2 -1q0 -1 3 -7q0 -5 -17 -16l-30 -23q0 -3 -17 -5q-1 -1 -5 -11q-11 -8 -35 -22q-57 -32 -104 -52q-1 1 -4 5q-14 -3 -14 -6q0 -2 9 -3v-1l-20 -9q-31 -20 -33 -20q-1 0 -2 10h-2q-5 -9 -8 -10q-15 -3 -25 -7q-11 -4 -24 -12 q-30 -7 -31 -9q-3 -7 -8 -7h-1q-2 1 -2 4v1q-5 -1 -9 -5q-5 -5 -28 -5h-11q-14 0 -14 -2v0q2 -2 2 -3v0h-2q-19 8 -21 8q-24 4 -24 6q0 1 2 5v1q-5 0 -15 -2q-28 11 -29 14v2v1q32 11 50 22q22 6 28 9l2 6q12 6 19 7q20 5 35 13q55 23 56 26q8 9 15 10q27 5 27 7q0 1 -1 3 q0 2 5 4q14 3 25 11q21 11 30 20l1 -1q5 -14 9 -14h1q0 1 -1 3q1 2 2 2q0 5 -1 11v2q1 1 15 10q20 12 44 35h1q1 0 4 -2h1l6 5l5 7q7 2 23 6q0 4 -12 11q-4 5 -9 5q-8 2 -19 18h-1q0 -2 -2 -4h-1q-2 0 -5 4q-10 4 -35 26q-11 7 -11 13q0 9 -12 11q-15 3 -20 6q-9 0 -20 12 q-10 8 -36 23q-21 16 -33 23q0 2 1 4q-2 2 -3 2q-2 -5 -3 -6h-1q-3 0 -11 7q-5 7 -26 16l-3 -1h-2q-25 16 -26 16v2q0 2 -9 4q-3 -1 -4 -1q-3 0 -8 3q-14 11 -18 13q-13 14 -19 14q-10 2 -24 10q-20 16 -22 16v1q21 7 26 9q27 3 27 4q0 6 31 9q6 0 15 -3q42 -7 48 -11v0 q0 -1 -4 -3v-1l2 -2q5 0 120 -48q14 -12 17 -13l1 1v3v1q0 1 1 1v0q19 -10 39 -20q34 -27 40 -27h2q1 0 4 2q1 0 7 -4q34 -22 50 -35q26 -25 30 -29h1q1 0 3 1h2l14 -11q40 -39 41 -41q2 -9 4 -11q21 -17 21 -24v0q-1 0 -15 -15z" />
<glyph unicode="?" horiz-adv-x="1203" d="M486 1558q1 0 13 4h3q38 -3 93 11q3 1 20 7l1 -3q4 0 19 7q24 3 24 -2v-1q-5 -6 -5 -7q9 -4 56 -3q75 -14 102 -28l21 5q6 2 12 -4l47 -26v-1q0 -1 -7 -5l1 -2q54 -17 69 -25q22 -21 33 -29q40 -17 41 -41q0 -3 -2 -23v-3q0 -3 5 -12q23 -19 25 -30q0 -2 -6 -21 q1 -12 15 -25v-2q-4 -1 -7 1h-1v-17q1 0 9 -2q0 -3 -9 -26v-2q1 -4 11 -12v-5q1 -2 -1 -8q0 -4 3 -22q-10 -10 -10 -12q1 -6 2 -15q-3 -22 -4 -24q-3 -11 -9 -15q-9 -2 -11 -14q0 -22 -22 -57q-28 -55 -36 -68q-16 -15 -35 -22q-13 -8 -21 -31q-6 -17 -45 -56q0 2 2 14v1 q1 2 -2 2l-4 -1q-14 -5 -48 -40q-39 -41 -44 -42q-4 -1 -10 -1q-7 -2 -11 -8q-19 -10 -174 -71q-6 -1 -58 -25l-6 -1q-11 -3 -24 0q-8 -4 -13 -5q-3 -6 -4 -7h-1q-29 4 -39 4q-1 0 -9 -6q-4 -1 -4 3l-9 -2q-3 -1 -10 -1q-6 -4 -7 -8q-10 -5 -17 -18h-1l-6 1l-1 -1 q1 -14 -10 -62q-6 -5 -6 -10l1 -22v-21q4 -4 5 -4q-2 -8 -1 -12v-2q0 -12 3 -22l7 1v-17q25 -39 40 -36q7 -13 8 -12l2 4l25 -7q31 -2 39 -8l1 2l24 11q3 0 6 -1q3 1 25 11q28 24 28 49q0 10 -11 27q-10 17 -31 19q-1 4 1 9q-12 6 -17 4q-14 -8 -14 -10q-11 -4 -28 -32 q4 -23 8 -21q2 1 15 -13l-1 -3h-7q-31 3 -31 11q-4 14 -8 23v3q-1 18 17 47l4 1h5q2 2 3 4q-1 9 29 19l4 1q26 6 58 -10q0 1 4 3q1 1 4 -2q15 -25 21 -28q8 3 15 -47v-7q1 -12 -15 -43q0 -1 2 -3q1 -2 -7 -4q-9 -23 -25 -33q-3 -1 -4 8l-7 -1q-1 -1 -1 -3q0 -5 2 -11 q-40 -21 -51 -23l-1 -1q-6 -1 -6 1q-40 -4 -59 -2q-19 9 -21 9q-32 -3 -61 16l-1 2q8 3 7 5q-1 -1 -2 0q-18 -4 -31 8q-21 16 -25 29q-1 2 -23 24q-13 13 -20 51q0 4 1 25q-1 4 -3 3q-5 -1 -6 22v8q-2 19 -1 37q-2 9 -4 8l6 11q5 35 9 36q3 48 6 56q9 6 24 25l-1 1 q-2 -1 -3 1v2l26 32l3 1q8 -1 30 -1q22 -6 39 -2l29 8q5 1 12 4v1l-1 2l2 1l2 2l21 -2q2 2 4 3q17 11 25 13q9 2 30 4l61 23l9 2q2 1 22 17l44 29l6 1l8 17q21 16 22 26q8 2 47 46q24 23 22 52q16 26 17 41l20 37q-1 12 -1 14q0 6 8 8q18 12 20 74q-1 25 -9 48 q-26 39 -49 33h-2q5 14 5 15q-4 7 -18 21q-5 21 -10 20q-25 26 -31 24v-1q0 -6 6 -22q-1 0 -2 -2q-8 3 -34 17q-23 23 -35 30q-43 29 -75 29q-41 16 -109 -1l-11 -4l-6 -2l1 -4q1 -3 -24 -13q-8 -1 -9 4l-47 -12h-2q0 1 1 3v2q-25 -6 -41 -10l-7 -1q-49 -13 -113 -65 q-9 -2 -17 -29q-14 -11 -26 -31l1 -6h-3q-7 2 -27 54l-1 2q8 30 8 35q5 16 14 21q10 2 10 19q0 12 26 35q21 26 42 32q47 27 56 29q37 9 59 14l55 14q14 3 13 8q1 3 27 10l24 6q13 3 23 -1zM442 116q1 1 1 2q0 2 -3 6l2 4q0 2 5 10l-3 2q3 2 19 9v-1q-3 -3 -5 -4 q-2 -4 -2 -10q0 -7 4 -13v-4q1 1 3 1v-1q0 -2 -2 -3v-1l2 1q7 -6 7 -7v-1q0 -2 6 -4l13 -9q0 -1 15 -3h4q13 2 18 4l4 6l1 1l1 3v2q-1 0 -1 2v1q3 8 3 9q0 3 -2 4q-2 10 -2 13v3q0 3 -4 6q2 1 2 2q0 3 -2 9q-1 5 -4 7l-1 6l-3 -1q-1 0 -2 2q-7 3 -7 4v2q-3 6 -7 7l2 4 q0 1 -1 1q-8 2 -9 2q-4 0 -10 -3q-1 0 -1 3q-2 -2 -4 -2h-10q-2 3 -3 3l-5 -4q0 -1 -13 -1q-9 -4 -14 -6q-4 -4 -5 -4q-3 0 -7 -7q-3 3 -6 3q-4 0 -9 -9q-9 -8 -9 -9l2 -3v-1q-3 0 -3 -1v-3q-2 -3 -4 -5q-3 -8 -5 -10q-1 -2 -2 -8l2 -2l-1 -2q-3 -4 -3 -5q0 -2 3 -4 q0 -1 -1 -1v-8q1 -23 4 -23v2h1v-3q2 -9 10 -20l5 -5l-1 -2l6 -5q5 -2 6 -5q9 -3 22 -7l-6 -2l4 -1q19 -4 23 -5q13 -4 16 -4q14 0 21 3q12 1 29 9q-3 -7 -14 -12q-3 -1 -7 -3q-2 -2 -7 -3q-25 -13 -50 -13q-8 0 -15 1l-4 -1h-1q-2 0 -9 3h-4q-4 0 -15 7q-9 4 -10 4 q0 4 -15 8v1h2l-2 1q-16 12 -21 12q-3 0 -3 -2q-4 6 -12 16q-9 11 -12 12q-5 3 -8 16q-2 10 -3 13h-2l-1 -2v2q-3 1 -9 15q-2 2 -2 6q-3 7 -3 11v3h4q1 0 1 1q-5 3 -5 4q1 4 1 9l-1 26q0 2 3 6q1 0 1 -4q1 0 1 2q5 1 5 6v19q0 7 1 7q2 0 4 -4v1q0 3 5 5q-2 4 -6 9q0 1 4 9 q4 2 4 5v4q3 6 7 12h2l2 -2q1 4 3 6q12 13 20 20q9 7 17 7q1 -2 2 -2t1 1q-1 4 -1 5v1l1 2q9 9 16 9q21 8 25 8q2 0 8 -1v1l-4 3q0 1 4 1q19 5 23 5h5q11 4 13 4h2l3 1q3 -1 4 -1l25 1h3l4 -1q1 0 3 4h2q7 -4 10 -4q1 0 5 1q4 0 9 -5q1 -3 7 -3l-1 -4h1q8 1 10 1q7 0 29 -23 q1 -4 6 -10q0 -3 2 -7q6 -6 6 -7l-4 -4q0 -1 1 -1q5 0 7 -3q10 -14 10 -22v-2q0 -3 1 -5l4 -15q-1 -4 -3 -4l2 -6q4 -8 4 -12v-2q0 -4 -2 -11q-1 -9 -4 -28q-6 -19 -6 -20v-2q-1 -5 -1 -7q-3 -8 -9 -18q-12 -12 -19 -17q-4 -6 -10 -6q-6 -2 -14 -4q-3 -3 -6 -7q-2 -4 -7 -4 q-5 -3 -13 -4q-6 -5 -14 -5h-1q-2 0 -3 -2l-5 2h-1l-5 2h-6q-4 0 -18 7h3l-2 1l-11 5q-8 4 -8 5q-3 3 -3 4q-5 15 -5 20q-5 19 -5 26zM415 1456l12 3l1 2q33 -3 79 8q3 0 17 4q1 -1 1 -2q2 1 15 6q20 2 21 -1v-1l-5 -5q7 -4 47 -3q63 -11 86 -22l17 5q6 1 11 -4l39 -20v-1 q0 -1 -5 -3l1 -2q45 -14 57 -19q19 -17 28 -24q34 -13 35 -31q-1 -2 -2 -18v-2q1 -3 4 -9q20 -16 21 -23q1 -2 -4 -16q1 -10 13 -20l-1 -2q-3 0 -6 1h-1l1 -14q1 1 7 -1q-1 -3 -7 -20l1 -2q0 -2 9 -10v-2q-1 -2 -2 -7q1 -2 3 -18q-8 -7 -8 -8q0 -6 2 -12q-4 -18 -4 -19 q-1 -8 -8 -12q-7 -1 -9 -10q1 -17 -18 -45q-23 -42 -30 -52q-13 -12 -28 -17q-12 -7 -18 -24q-6 -13 -37 -43q-1 1 2 11l-1 1q0 1 -1 1l-4 -1q-12 -3 -41 -32q-32 -31 -36 -31q-4 -1 -9 -2t-9 -6q-16 -7 -145 -55q-5 -1 -50 -19l-3 -1q-10 -3 -21 0q-7 -4 -11 -5 q-3 -4 -4 -4h-1q-23 3 -32 3l-7 -5q-4 0 -4 2l-8 -1q-2 -1 -7 0q-6 -4 -6 -7q-8 -4 -15 -14h-1l-5 1v-1q0 -11 -9 -47q-5 -6 -5 -8l1 -18q1 -6 0 -15q3 -5 5 -4q-1 -6 -2 -9l1 -3l2 -16l7 1q-1 -4 -1 -14l-13 -62l1 3q5 2 5 4h-2q-15 -3 -25 5q-19 13 -22 24q0 1 -27 0 q-4 28 -10 58v19q0 3 -2 2q-4 -1 -5 16l-1 7q-1 15 0 29q-2 7 -4 7l6 7q3 28 7 29q2 37 4 43q8 5 20 19v1q-2 -1 -3 1v1l23 26h1q7 -1 26 -1q19 -4 32 -1l25 6q4 1 10 4v0l-1 2l2 1h2h17q3 0 4 1q13 9 20 11q8 1 25 2l51 19l8 2q2 0 17 13l38 23h5l8 13q16 13 16 19 q8 2 40 37q21 17 19 40q13 20 13 32l18 29q-2 9 -2 10q1 5 7 6q15 10 17 58q-1 20 -8 37q-22 30 -41 26l-2 -1l4 12q-3 6 -16 17q-4 16 -7 15q-21 20 -27 19v-1q1 -5 5 -17q-1 0 -1 -2q-7 2 -29 13q-19 19 -29 24q-37 23 -64 23q-34 12 -91 -2l-9 -3l-6 -2l2 -3 q0 -2 -21 -10q-6 0 -7 4l-40 -9h-1v2v1q-21 -4 -34 -7l-6 -2q-40 -9 -94 -49q-8 -2 -14 -24q-11 -8 -22 -23v-5h-2q-6 2 -24 42l1 2q3 42 -5 29q14 10 22 14q9 3 9 14q-1 10 22 29q17 19 35 23q39 22 47 23q31 7 48 11l47 11q12 3 12 6q-1 3 21 8l21 4q10 2 19 -1z" />
<glyph unicode="@" horiz-adv-x="2111" d="M1137 1479h5q6 0 11 -13l7 -1q124 0 217 -29q55 -35 65 -35q3 0 16 6h1q12 0 128 -80q18 -14 18 -15v-2l-8 -8q6 -7 43 -21q10 -9 50 -32q35 -41 35 -47l-2 -1h-3q-1 0 -1 1q-1 -1 -4 -1v-2q6 -7 21 -58q24 -45 24 -59q-7 -47 -7 -53q0 -7 13 -27q1 -1 1 -5v-4l-7 -51 q0 -30 -10 -68q-14 -10 -14 -23q0 -59 -58 -128q-58 -50 -61 -50q-20 11 -23 11h-2v-2l6 -25v-1q-46 -40 -122 -82q-58 -30 -85 -41v-1q19 -47 29 -47q8 0 8 -4q-5 -20 -5 -23q0 -4 22 -49q-4 -7 -4 -10q11 -2 11 -5h1l3 1q3 0 17 -31q18 -5 18 -15q2 -4 42 -46l6 -9v-1 q0 -2 -2 -2q-39 4 -47 4h-3q-4 -4 -6 -4q-17 3 -29 4q-1 0 -14 -5h-2q-2 0 -2 2l2 3v2l-4 1q-8 0 -92 -6q0 7 -5 7q-35 -4 -35 -9q0 -3 -59 -6l-1 2q0 25 17 41l1 5q-7 24 -17 46l-1 5q0 6 12 10v1q0 1 -2 1h-10q-8 0 -17 29q-21 50 -29 62l-9 -1h-19q-2 0 -19 6 q0 -1 -11 -12q0 1 -10 8v3h-20q-6 0 -15 -8q-28 8 -40 8q-9 -1 -19 -1q-3 5 -4 5h-2q-3 -6 -21 -6h-18q-7 0 -21 6h-21q-21 -28 -21 -32q2 -4 2 -7q-2 -5 -4 -5q-1 1 -2 1q-9 -28 -21 -56q0 -8 -10 -20l-9 -36v-4q4 -5 11 -22q11 -10 11 -17v-2q0 -1 -4 -4l-33 -1 q-20 4 -23 4q0 -2 -5 -5q-11 0 -22 12q-2 0 -4 1q-18 0 -28 -7q-6 0 -12 1q-17 -1 -33 -1h-7q-6 6 -13 6h-5q-6 0 -19 -1q0 -6 -9 -6h-31q-2 0 -2 2q9 10 16 28q31 31 31 44q21 22 29 60q3 6 5 6q2 -4 3 -4l1 4q-2 0 -2 2v2l22 29l-1 2l39 64q3 9 3 10q-1 5 -1 8t11 11 l19 37l-1 2l1 7l-1 5q0 12 9 16q25 27 25 32q7 37 13 55q18 25 24 46q0 5 12 7l1 4v1l-2 3q1 5 34 71q29 66 43 89q6 0 21 61q3 7 20 26v1l-6 12q0 3 12 18v4l-1 7q19 21 19 28l-2 10q0 6 45 15q5 -1 9 -1q0 1 1 1l-1 2v4q1 0 8 1q0 -2 1 -2q5 0 13 6l2 1q15 0 15 -8 q7 -9 8 -15l-1 -4q20 -38 20 -49t20 -50q14 -11 42 -104v-22h2l4 3q34 -62 47 -109q-8 -4 -8 -5q9 -26 9 -29q17 -9 27 -23q11 -25 23 -68q36 10 102 69q0 2 -9 18v1q0 8 22 14q1 2 43 21q2 0 4 4q-14 8 -14 9v2q6 8 17 48q4 6 5 6h1q5 -1 11 -3q7 0 34 68q10 37 10 70 q0 15 -7 64v27q0 23 -15 28q-11 0 -28 40q-30 42 -39 64q-15 19 -52 39q-24 13 -40 20q-30 25 -36 25q-5 -10 -7 -10q-86 24 -198 24l-87 -9q-30 2 -36 3q-3 0 -26 -3q-4 0 -31 -10l-6 1q-9 0 -59 -33q-74 -25 -74 -39q-8 -26 -18 -17q-49 -31 -53 -31q-29 -6 -42 -20 q-16 -31 -44 -56q-33 -31 -43 -60q-6 -13 -21 -13q-16 -21 -44 -65q-9 -8 -41 -31q-11 -8 -27 -53q-17 -50 -29 -114q-5 -41 -5 -47l10 3q2 0 2 -2v-2q0 -5 -14 -81v-4q0 -62 22 -151l2 -1q4 3 6 3q6 -8 14 -65q26 -64 87 -130q36 -33 47 -52q8 -5 31 -14q46 -34 63 -38 q18 1 26 1q10 0 21 -27q55 -30 153 -59q116 -30 193 -30q30 13 34 13h1q4 0 19 -13h1q108 0 260 50q47 6 47 10v1l-4 5v2q0 1 45 21q51 28 96 60q37 13 48 23v3q-7 8 -7 12v1q40 48 45 52q25 19 25 44q0 4 23 52q9 23 13 38h2q0 -33 -17 -95q-8 -46 -29 -87q-18 -46 -57 -88 q-15 0 -15 -12q0 -10 -17 -15q-59 -43 -78 -43q-5 0 -47 -27q-41 -17 -66 -24q-8 0 -27 2q-9 0 -17 -16q-9 -5 -86 -23q-108 -20 -159 -20q-10 0 -60 -12q0 -1 -10 -1h-2q-7 0 -48 13q-64 0 -198 31q-29 6 -55 28l-6 2h-1q-8 -8 -11 -8q-51 17 -122 49q-89 30 -89 45 q0 11 -22 22q-33 23 -86 77q-9 15 -37 28q-19 10 -19 19q7 14 7 16v1q0 6 -46 66q-9 19 -17 19q-6 0 -15 32q-23 66 -23 85q12 49 12 53l-2 1q-14 -17 -15 -17q-6 8 -8 95q0 31 2 47q-12 54 -12 63v1q0 2 2 2h2q11 -4 14 -4q18 131 37 159q26 35 36 54q0 1 -6 14v1 q18 38 66 111q42 53 44 64q13 37 19 37q14 -1 16 -1q1 0 68 74q23 23 45 29q12 6 67 43q12 21 11 37q83 46 100 58q27 16 211 44q126 10 126 20q7 7 14 7zM979 606q1 0 1 -1l36 2q29 0 29 -7q5 0 6 -1l7 1q5 0 16 -1q21 1 39 1q16 -6 17 -6q12 5 12 7v5q-9 11 -16 48 q-40 88 -40 97q-9 39 -16 57h-2q-2 -1 -11 -27q-57 -109 -78 -175z" />
<glyph unicode="A" horiz-adv-x="1535" d="M782 1506h13q9 -9 42 -70q5 -30 31 -63q0 -8 33 -43q10 -17 27 -102q10 -30 38 -100q15 -23 19 -34q-2 -10 -10 -10h-10q-1 0 -3 -4q13 -66 19 -66h2q0 4 14 6q0 2 5 3q5 -19 22 -54q12 -51 23 -51q8 0 15 -10q25 -8 25 -18q6 -13 16 -85q0 -24 11 -42q2 -15 35 -68 q54 -97 54 -136q1 -46 6 -46h1q3 8 6 8h2q0 -9 64 -83q37 -67 49 -96q-5 4 -9 4q-7 -2 -7 -10v-6q0 -28 45 -86q14 -21 31 -63q46 -77 60 -92q8 0 39 -54l46 -44l4 -6l-3 -1h-2l-85 9h-8q-35 -2 -38 -2h-4q-16 0 -35 24q-9 4 -14 5q-21 -9 -33 -9q-29 0 -82 1q-2 0 -16 -1 q-9 1 -27 1h-8q-9 -1 -9 -9l-5 -1h-131q-2 0 -2 2q21 63 21 83v3q0 22 -24 91q-31 46 -47 84q-26 66 -32 68q-7 0 -27 18h-9l-44 -9q-55 9 -63 9h-8q-6 0 -18 -15q-5 -3 -49 -11h-4q-2 0 -2 2t4 23v1q-10 2 -25 2q-72 0 -87 -7q-3 -2 -15 -4q-6 0 -40 10h-28q-17 0 -17 -9 q-8 -8 -23 -32q-26 -20 -26 -42q-16 -87 -24 -87q-18 0 -31 -95v-12q0 -16 9 -16q0 -2 15 -13q4 -5 12 -43l-2 -1h-43q-29 0 -74 -1q-5 1 -16 1l-1 2q0 3 3 7l-3 1h-12q-19 0 -19 -6q0 -5 -15 -5h-22q-43 0 -43 4q1 8 1 12q-5 5 -32 11q-12 -26 -39 -26q-5 0 -34 1 q-11 0 -28 -10h-75q-2 0 -2 2q62 48 71 57l34 74q5 7 20 16q19 48 42 75q24 17 24 29l65 152q3 0 5 -1q25 14 25 25q-1 6 -1 10v3q3 10 3 13v2l-5 7q0 8 47 73q6 12 22 54q21 13 22 15q4 6 4 11h-1q-4 -2 -7 -2q-1 2 -1 3q0 19 62 138q20 36 69 85q-13 14 -13 15 q20 68 40 99q11 23 72 126q14 23 27 85q26 77 36 77l6 -1h2q4 9 4 13v3q-5 5 -5 8q5 11 8 44q0 9 32 13q0 1 7 2l-9 54q0 3 23 28q9 18 34 88q9 18 18 18zM732 886q-28 -69 -39 -74q-8 -16 -28 -82q-4 -8 -13 -8q-8 -13 -22 -71q-36 -94 -36 -113q-1 0 -3 -7q13 2 36 2h26 q41 0 60 -9h4l72 7q17 -17 28 -18h7q5 9 32 17h2q-23 77 -34 142q0 11 -18 25q-5 16 -31 109q-17 45 -42 80h-1z" />
<glyph unicode="B" horiz-adv-x="1156" d="M275 1447h8q7 0 11 -6q4 0 4 -1q10 1 12 2l15 -2l55 4h12q10 0 113 -13h1q7 0 38 9l9 1q42 -3 51 -3q6 -14 31 -14q8 -4 32 -8q0 -4 47 -5l8 3q35 -3 42 -3h2q19 -29 43 -29q36 -8 51 -9q11 -4 35 -41q5 0 33 -32q8 -10 50 -73q27 -27 27 -48q-2 -9 -2 -13q0 -6 25 -41 q11 -11 11 -77q1 -11 1 -43q0 -1 -1 -3q0 -1 1 -1l-6 -77q1 -2 1 -3q-25 -11 -30 -24l8 -39v-1q-24 -33 -33 -43q64 -65 91 -118q82 -146 82 -266q0 -61 -24 -92q-28 -41 -28 -65l2 -34q0 -26 -14 -33q-8 -7 -55 -63q-18 -18 -49 -56q-11 0 -28 -14h-5q-3 0 -14 18 q-1 1 -4 1q-7 0 -18 -3q14 -14 14 -18q-3 -21 -15 -21q-8 -8 -29 -17h-1q-27 1 -43 1q-13 0 -36 -11q-6 -2 -15 -2q-23 2 -34 2q-31 0 -85 -12q-14 1 -46 2q-21 0 -21 -11l-3 -2h-7q-5 0 -36 14q-8 2 -18 2h-28q-4 0 -9 -1q-2 1 -4 1q-19 -3 -73 -3h-1q-65 5 -107 5h-69 q-5 0 -18 14q-4 2 -17 3q-3 0 -18 -17q-6 0 -51 16h-6q-28 0 -28 -11q0 -7 -43 -7l-68 -2l-1 2q11 40 45 64q17 16 28 38q11 15 11 27l-1 5v7q0 12 16 34q0 1 1 6q-2 2 -13 3l-1 2q0 65 9 65q10 0 10 8v19q5 56 10 327h1l-1 2v3q0 3 1 9q0 1 -1 1l1 7v12l15 13q14 20 14 26 q-2 2 -26 3l-4 4q5 85 5 186v44q0 12 1 38q-7 6 -14 30v2q0 1 9 4q5 6 5 14q0 9 -1 20q2 16 2 23q-1 75 -1 94q0 2 -13 8q-2 4 -2 8q2 64 2 81v9q0 7 -1 16q2 14 2 27q0 26 -37 81q-10 7 -33 30q-13 11 -14 17l2 1q4 0 88 -7q10 1 21 1q4 -15 11 -15h7q11 0 25 26 q8 -13 56 -13h17q13 21 23 21zM536 1240q-37 3 -44 3h-54q1 -19 1 -28v-28q0 -43 -13 -43q0 -6 -10 -70q-5 -37 -5 -60q0 -9 14 -66q1 -4 1 -13v-16q0 -18 1 -46q0 -10 -13 -26q0 -10 -12 -13q-1 0 -3 -3q-2 -29 -2 -37q1 -14 5 -14h1l8 6l1 -3v-73q0 -38 1 -101 q0 -17 -9 -22v-27q-3 -9 -3 -10q4 -4 26 -12q1 -2 1 -3q-2 -6 -2 -9v-43q0 -10 1 -19q0 -50 -9 -50h-7v-20q0 -8 7 -29v-82q0 -34 2 -62h6q1 0 1 -1q2 1 3 1q59 0 80 -14q19 -4 38 -4h30q21 0 61 -1l2 -1q2 1 4 1h4q14 0 36 7q17 0 33 14q10 6 45 22q28 23 42 46 q27 17 27 43q4 7 4 18q0 3 -3 15q6 3 15 26q7 9 7 24l-1 4q28 17 28 35v9q-4 18 -7 18q1 10 1 15v7q0 10 -5 22q0 3 2 13l-2 12l1 7q-1 14 -1 17l1 5q-5 38 -16 50q-1 0 -1 1q1 5 1 8q0 28 -29 40q-4 2 -9 2h-1q-8 0 -19 -1q-9 3 -32 7h-7q-8 0 -23 -6q-13 0 -29 -16 q-16 1 -21 1q-3 0 -30 -12q-12 7 -60 9q-11 0 -23 17q-19 16 -21 16q-11 2 -27 18q0 7 -23 24q-2 8 -7 14v1l4 20q-6 30 -6 34v1q13 13 13 40q16 37 25 37q32 6 41 13q10 -1 16 -1q17 4 27 4l1 -2v-14q-16 -14 -27 -40q-2 0 -3 -12q4 -2 14 -21q18 -23 38 -23q11 0 22 7 q2 0 17 -2h6q30 4 32 10q6 10 8 10l13 -3q5 0 13 22q23 0 32 28q0 5 3 5h8q2 4 2 13v3q10 11 14 29q6 8 6 39q-3 82 -8 82q0 11 -9 27l-20 54q-1 0 -12 22l-12 20q-11 17 -21 25q-10 16 -40 28q-16 7 -41 11q-1 0 -15 16q-4 0 -34 10q-30 5 -53 5q-2 0 -7 -10z" />
<glyph unicode="C" horiz-adv-x="1152" d="M742 1421l18 -1q14 -1 14 -6t9 -7q52 -2 81 -4l28 -2q12 -1 28 0q49 -8 49 -10q3 -26 8 -26h1q21 -2 45 15q49 -13 75 -26q19 -13 22 -19v-25q0 -41 -1 -106q0 -6 11 -14l1 -5q0 -10 -1 -22q1 -18 1 -36q-1 -7 -4 -7q-5 3 -7 4l-1 -2q1 -27 1 -37l-2 -1q-75 76 -102 81 q-27 14 -98 34q-17 6 -23 14q-21 2 -21 10q-6 4 -8 4q-11 0 -19 1h-8v-1q2 -3 2 -6q0 -2 -2 -2l-58 4q0 -8 -10 -8q-28 6 -28 10l2 7q0 5 -16 6q-12 0 -25 1h-5q-6 1 -8 -12q0 -6 -35 -14l-2 -3v-1l2 -3v-3q-9 -1 -10 -1q-9 1 -28 13h-6q-9 1 -17 -9q-70 -29 -107 -99 q-17 -33 -58 -77l-6 -3q0 1 -1 1q8 32 17 31q3 5 3 17q0 3 -1 17q-6 -3 -33 -42q-24 -39 -24 -48q-17 -88 -19 -94q-23 -25 -29 -28q-1 -2 -1 -5v-6q0 -4 1 -9q-2 -5 -4 -5h-1l-5 1v-48q0 -2 -9 -4l-1 -7v-28q0 -24 10 -25q10 -7 10 -17q-2 -22 -2 -30q1 -5 3 -5l4 2h2 q2 0 2 -2v-15q0 -9 -9 -11q-4 0 -4 -8q0 -16 32 -122q6 -22 20 -53v-2q0 -36 19 -58q12 -22 56 -67q11 -8 24 -33q22 -21 22 -32q5 -8 6 -8t6 2q38 -21 49 -30l30 -26q26 -2 41 -4q24 -1 24 8q4 2 6 1q34 -5 82 -33l7 -2q7 0 18 8h6h2q2 0 2 -2v-6q7 -2 12 -3h11q3 -1 3 -3 l5 2l28 -2q4 0 116 37q7 3 18 19q3 1 8 3q8 -3 20 -3h1q10 -1 12 8q20 9 26 9h3q4 -1 14 -11l17 -2l2 1l-1 2v6q0 5 -1 11q0 14 22 27q0 2 46 44h1v-1q0 -11 2 -32q-1 -26 -1 -45q0 -3 -9 -32q0 -3 -1 -9q0 -4 10 -27q0 -2 -9 -15q-1 -2 -1 -5v-83q-3 -6 -47 -20 q-15 -8 -128 -56q-65 -2 -146 -9q-5 -19 -8 -19q-9 13 -17 14h-2q-13 1 -17 -10q-4 -2 -12 -1h-3q-33 4 -36 4l-1 1q-9 0 -28 -7q-4 -1 -8 -1l-12 1q-6 0 -55 17q-197 52 -228 66q0 5 -19 7h-8q-103 113 -114 114l-2 -2q25 -40 39 -64l1 -5l-2 -1q-14 2 -75 82 q-15 27 -32 67q-3 5 -41 23q-26 26 -34 53q-54 119 -54 128q0 40 -15 41q-7 4 -12 23q-7 31 -7 41q1 19 1 23q0 5 -10 14q-1 2 -1 4v4q2 31 2 32l-2 17q0 6 11 23v9q0 6 -10 34v5q10 7 10 11q0 7 -1 27h-2l-6 -4l-1 2q-2 38 -2 51q1 10 4 10h2q1 0 13 -5h2l1 4v2q0 3 -11 5 q-1 6 -1 8q0 28 26 59q6 12 6 31q0 18 -2 52q2 25 55 81l31 50q26 29 137 147l28 -1q50 43 111 78q33 17 47 16h1q1 0 3 -3l-1 -5l19 -4q6 0 6 2v2q0 5 -1 16l4 1q2 -1 4 -1h1l-1 5v2q0 4 32 7q0 1 10 3v4l-2 3q0 2 5 3q22 -3 35 -4h7q6 -1 18 8l5 -1l7 -9l7 -2h8 q24 -2 33 8q8 8 13 10q14 -2 20 -2q7 4 13 8q26 -1 42 -2z" />
<glyph unicode="D" horiz-adv-x="1265" d="M2 1433h14q47 0 109 -1q11 1 22 1q2 -2 3 -14q5 -5 15 -5q34 0 39 10q6 9 17 9h200q13 0 13 -16q8 -1 8 -2q34 10 39 10q35 -1 45 -1q66 2 77 2q35 0 67 -16q11 -4 24 -4q4 0 30 2q17 0 88 -35q102 -41 108 -47l3 -3v-3q-10 -5 -17 -34v-3q9 -4 9 -6v-17q2 -1 3 -1 q12 0 18 20q15 19 24 26h1l14 -3q2 1 5 1h2q2 0 2 -2q-2 -13 -2 -18q0 -13 59 -52q41 -23 64 -71q19 -32 27 -39l4 2h1q14 -8 21 -21q26 -11 26 -20v-1q0 -4 -3 -16q0 -6 25 -42q23 -41 36 -129q0 -9 20 -45q6 -13 6 -30v-1q0 -2 -9 -18v-3q0 -10 1 -25q-1 -15 -1 -24 q0 -10 8 -18q1 -21 1 -31v-63l-8 -29v-28h-4q0 3 -10 11h-3l-1 -14v-10q0 -7 9 -20q1 -7 1 -13q0 -12 -29 -45q-6 -8 -18 -62q-4 -11 -17 -63q-11 -25 -88 -117q-8 -14 -35 -20q-36 -10 -36 -18q-24 -20 -40 -53q0 -8 -38 -17q-64 -27 -86 -46q-18 -12 -72 -32h-6 q-7 0 -18 9h-6q-17 0 -33 -23q-2 0 -4 -3h-2q-10 0 -10 15q-4 2 -7 2q-24 0 -47 -32q-13 -11 -87 -11q-17 0 -84 -17h-1q-69 13 -89 13q-37 0 -72 12q-4 1 -10 1h-4q-17 0 -40 1q-8 0 -33 -20q0 -5 -4 -7h-2q-4 0 -13 7q-4 2 -9 2h-65q-14 0 -62 -9h-1q-5 0 -25 8 q-6 1 -13 1h-28v2q55 57 55 68q14 25 20 75q4 10 19 36q2 11 2 17q0 12 -2 60q1 31 1 51q0 17 -17 31l-1 5v5q0 3 9 13q-1 108 -1 153q0 10 -2 31q0 5 19 25q1 8 1 12v93q0 7 -9 29v3q0 3 9 24q-1 12 -1 21v6q0 10 9 24v10q0 15 -13 25q-12 16 -12 40q-1 0 -1 1l1 6 q0 2 -3 59q0 9 11 48q0 18 1 49q0 22 -16 39q-2 5 -4 20l2 6v33q0 7 -10 18v2q0 20 2 139q0 22 -7 22q-3 0 -4 24q-7 31 -19 41q-52 31 -57 57zM440 1243q-3 0 -7 -9q-10 -9 -10 -19v-180q0 -9 -14 -18q-3 -4 -3 -8v-1q0 -10 17 -24v-3q0 -4 -8 -14q-2 -2 -2 -6v-13 q0 -15 2 -25q-2 -8 -2 -24v-5q0 -12 16 -12q3 -1 3 -3v-3q0 -5 -23 -50q-3 -11 -3 -16q9 -17 9 -19v-7q0 -4 -2 -4l2 -5v-21q0 -14 -2 -34q0 -7 8 -19q2 -28 2 -45v-29q-8 -29 -8 -38v-2l8 -8v-79q0 -24 1 -72q0 -5 -9 -25v-8q0 -3 9 -27q-1 -10 -1 -16v-3q-10 -12 -10 -28 l11 -33v-1q-1 -10 -1 -12q10 -26 10 -32q-1 -8 -1 -15v-4l8 2h13q6 0 11 -10l10 -1q4 11 16 11q14 0 34 -2q7 0 66 19h2q6 0 27 -2q19 6 52 22q58 18 85 47q11 7 37 11q15 10 20 28q1 15 62 92q7 0 14 64q5 22 17 30q9 15 9 21q-1 17 -1 30q2 5 4 5l2 -1q2 3 4 16l-2 51 q0 13 18 85q2 17 3 35q0 20 -32 133q-5 34 -9 34q-6 0 -6 7q0 3 10 23v17q0 15 -2 39q2 2 2 5h-43l-36 67q-33 45 -47 47q-28 3 -35 11q-70 60 -128 67q-71 17 -143 17q-18 -1 -34 -1z" />
<glyph unicode="E" horiz-adv-x="1033" d="M155 1444q11 0 11 -5h9q15 0 30 1l42 -4h9q5 -3 8 -3l6 3h106l4 3h108q30 -12 34 -12q85 3 97 3h129q2 0 3 3q69 1 76 1q15 0 87 -1q16 1 28 1q0 -1 1 -1q6 6 12 6h30q9 0 18 1q4 -1 16 -1h14l2 -1q-3 -29 -3 -52v-30q0 -3 7 -13q-1 -76 -7 -76q-3 -1 -3 -6v-24 q0 -3 5 -10q9 -43 12 -53q4 -14 4 -26v-12q0 -2 -2 -2q-116 70 -125 73h-15q-5 0 -19 -3h-7q-13 6 -16 6h-86q-45 0 -55 -8q-2 -1 -4 -1t-19 9q-5 2 -10 2h-1q-6 -6 -14 -6q-2 0 -12 1l-2 -1q-13 0 -13 10l-5 1h-8q-115 0 -121 -9l-3 -1q-31 2 -67 3q-48 -1 -48 -4 q-5 -25 -5 -79v-9q7 -8 7 -12v-88q0 -1 -1 -1l1 -2q0 -1 -14 -5q-4 -22 -4 -26q1 -7 18 -23v-1q0 -21 -4 -50h16q4 4 20 4q8 0 8 -4q34 -4 47 -4h14q11 -3 17 -3h11q53 15 60 15q6 -1 8 -1q71 0 162 -4q68 34 93 34q0 -1 1 -1q-18 -41 -27 -69q56 -32 67 -36q8 2 10 2 q5 -1 67 -38q22 -11 22 -13q-2 -9 -72 -41q-8 -10 -17 -10q-5 3 -13 7q-65 -32 -65 -40q0 -3 26 -55q4 -15 4 -17v-2h-1q-83 34 -89 34h-2q-4 0 -8 -3h-39q-11 12 -15 12h-3q-9 0 -49 -3h-1q-15 0 -22 3q-7 -7 -17 -12q-16 0 -110 -5q0 2 -10 11l-93 -3q-6 -41 -6 -59 q9 -13 14 -36q-1 -7 -1 -12v-2q10 -77 10 -110v-1q-25 -20 -25 -50v-1q0 -22 11 -27q1 0 1 -2q0 -22 -1 -142h1q7 0 56 5q0 -6 33 -6h15q1 0 1 -2l2 2h23q57 10 65 10q2 0 19 1q4 0 10 -5h3q7 0 26 14q15 -9 25 -9q18 -1 20 -1q89 2 107 2q2 0 18 9h9l16 -5q10 2 19 2h4 q2 0 124 65q3 0 29 14h3v-14q0 -11 -10 -34q-11 -55 -21 -55v-2q-1 -27 -1 -29q9 -8 9 -15q0 -1 -1 -1l1 -6v-3q0 -7 -1 -7l1 -11v-39q0 -3 -10 -16q-2 -31 -2 -53q1 -38 1 -39l-2 -1h-20q-15 0 -50 1v1q-1 0 -1 -1q-14 1 -21 1h-5q-3 0 -4 1q-2 -1 -5 -1q-10 6 -10 7 q-1 0 -1 -1q-33 2 -71 2h-30q-2 0 -4 1q-1 0 -1 -1q-10 1 -17 1h-29q-17 0 -57 1q0 2 -3 3h-58l-6 -1v1l-2 -1h-103q-44 2 -47 2l-28 -13q-4 0 -90 -6q0 1 -3 4q-63 -9 -88 -10q-4 3 -6 3q0 -4 -29 -9q-11 -5 -48 -9q-8 -8 -25 -8h-2q-4 0 -8 4q-10 -4 -16 -4q-3 0 -9 1 q-79 -18 -101 -18q0 1 -1 1q44 63 53 80q13 33 22 43l18 90q0 77 -9 105v2q9 46 9 81v30q0 42 -2 94l16 4q1 20 1 25q0 35 -14 66q-3 11 -3 24q0 8 3 40q-2 7 -3 23q1 23 4 37q-2 43 -2 70v36q0 3 -2 19q22 37 22 58q-3 1 -3 6v41q0 8 -12 8q3 38 3 97v2q0 4 -6 9q0 7 5 42 q0 9 -9 54q9 22 9 70l-26 124q-6 0 -22 42l-53 61q0 4 52 5q49 -1 82 -1q2 0 14 8h16z" />
<glyph unicode="F" horiz-adv-x="1019" d="M150 1443h23q2 0 11 -4q6 0 38 1l43 -5h4q5 0 9 -3q6 3 9 3h105l6 5h106q3 0 37 -15q39 5 85 5h69q10 0 28 -2q0 5 14 5h109q18 0 36 -1q3 1 27 1h12l8 6h17q3 0 5 1l5 -1q27 1 34 1q4 0 19 -1q2 1 5 1l1 -3q-3 -38 -3 -69v-17q6 -9 6 -11q0 -9 -2 -67q0 -1 -8 -18v-25 q10 -10 10 -31q0 -3 11 -50v-20l-1 -2q-125 75 -129 75h-8q-7 0 -33 -5q-12 8 -17 8h-3q-12 0 -15 -1q-11 1 -20 1h-21q-82 0 -82 -9q-4 -2 -7 -2q-20 13 -27 13q-10 -7 -15 -7h-18q-10 0 -14 12l-2 -1h-21q-3 0 -5 1q-53 -4 -53 -8l-4 -2q-41 2 -60 2h-18q-52 0 -52 -6 q-13 -34 -13 -46v-1q0 -13 27 -49v-96q0 -2 -14 -6q-6 -26 -6 -40q8 -26 12 -59h17q1 0 1 -1q6 4 18 4h6q6 0 6 -4q38 -4 49 -4h13q14 -3 19 -3h11q2 11 4 15l180 -5q66 34 93 34l1 -3q-12 -27 -27 -69l67 -37q11 4 12 4l78 -46l12 -5q0 -12 -66 -41q-18 -13 -22 -13 q-2 0 -15 5h-1q-19 -7 -59 -30q-6 -6 -6 -10v-1q21 -42 25 -54q6 -17 6 -19h-2q-86 34 -90 34h-7l-4 -4h-39q-13 15 -17 15q-27 -1 -52 -5l-25 4q-5 -6 -17 -14q-3 0 -4 1l-56 -3q-8 10 -12 10q-23 0 -92 -2q-7 -46 -7 -57q13 -25 13 -41v-16q10 -74 10 -101v-5 q-25 -20 -25 -48v-1q0 -22 10 -28q2 -1 2 -3q-1 -106 -1 -144q0 -35 13 -89q7 -10 71 -75q11 -16 14 -23q-1 0 -1 -1q-16 3 -45 4q-48 -3 -55 -4q-2 0 -2 1q-3 0 -67 -8q-5 0 -14 -2l-2 2q-2 0 -2 -2q-26 2 -48 5q-39 -8 -54 -8h-13q-6 0 -25 2l-73 -12h-3q-3 0 -19 10 q-2 0 -4 1q-4 -2 -9 -2h-2q-13 0 -46 7q-6 0 -13 -3q-16 3 -16 6q42 38 52 57q7 18 20 29q30 120 36 126l3 22q-14 103 -14 113q21 20 21 33v5q0 6 -7 11q1 16 4 106q2 0 7 8v2q0 8 -27 49q4 12 4 18v27q0 24 3 79q-3 12 -3 24v20q0 9 3 14q-2 17 -3 39q0 21 14 54 q5 24 5 46q0 2 -2 18q-16 2 -16 5q3 58 3 107q0 55 -10 96v2q10 28 10 115q-7 28 -8 47q-9 21 -9 23v5l1 7q0 3 -13 21q-6 16 -13 16q-5 0 -33 34q-21 21 -30 35q16 4 53 4h40q5 0 11 -1q4 1 10 1h18q2 0 4 -1q4 0 14 8z" />
<glyph unicode="G" horiz-adv-x="1398" d="M568 1427h1q11 -17 32 -17h24q59 0 59 6v1q0 1 -4 4q0 3 2 3q14 0 63 2q33 0 43 -8q5 -5 17 -5q10 0 69 1q16 0 16 -8q4 -4 54 -24q85 -38 128 -71q29 -16 104 -90q62 -68 62 -91v-4q0 -1 -2 -1v0q-9 0 -83 59q-66 42 -76 42q-48 12 -105 23q-68 19 -89 19v-1q3 -6 3 -8 l-2 -1q-60 3 -105 3q-61 0 -61 -8q0 -7 -81 -15q-13 -2 -13 -12q-96 -34 -133 -68q-15 -5 -59 -53q0 -3 -41 -43q-12 -8 -20 -23q-6 0 -7 -13q-10 -13 -10 -22l-22 -9q-1 -7 -1 -12q2 -24 2 -28q0 -13 -16 -13q-9 0 -15 -34l-3 -2q3 -5 3 -17v-2q0 -13 -5 -199q0 -51 11 -64 q16 -18 33 -18h1l12 1v-2v-34q0 -8 12 -25q2 -34 59 -96q38 -28 51 -41q4 -5 8 -30q5 -4 9 -4h1q10 2 12 2q10 -1 54 -34q43 -25 43 -27v-5q7 -2 18 -2h3q42 1 46 1h2q8 0 9 -10l2 -1h9h67q10 0 13 10l2 1h47h1h21q3 0 12 -11h4q6 0 29 25q21 10 30 19v4q0 2 -5 12v3 q0 3 10 5q9 -2 25 -2q11 0 27 13h3q21 0 33 16l-1 5q0 11 61 43q32 21 32 55q7 31 18 31q9 -2 12 -2q4 0 4 10v57v56q0 16 -22 59q-9 25 -26 35q-39 15 -39 52q-6 26 -22 26q-23 -4 -29 -4h-4q-16 23 -25 23q-17 3 -65 3q-97 0 -97 -10q-1 -2 -1 -4v-11q-1 -3 -7 -3 q-19 3 -22 3q-41 -16 -56 -48q0 -14 -21 -16v0q-11 0 -16 8v64q8 27 27 37q4 4 20 33q9 10 27 26q4 7 6 7q10 0 40 -1q2 1 3 1q-2 7 -3 19l2 1h6q57 12 136 12q20 -1 26 -1l31 3q11 -3 19 -3h3q12 0 31 1q3 -1 3 -3q-3 -5 -3 -9l12 -1h1v1q0 4 -2 10l2 1h34q6 -12 16 -12h1 q17 1 25 1q0 -1 1 -1l-1 -5q0 -19 43 -22q17 0 68 -49q16 -29 37 -46q28 -19 41 -59q18 -74 39 -106q17 -30 17 -70q0 -99 -8 -99q-5 -11 -12 -74q0 -6 -39 -77q-45 -95 -63 -130q-25 -29 -38 -29q-46 -25 -61 -36l-18 -31q-14 -11 -92 -35q-9 -6 -30 -22q-15 -9 -74 -9 q-25 -4 -36 -12q-24 -25 -28 -25q-134 -12 -183 -12h-10q-57 0 -126 25v2q0 5 4 25q-2 15 -4 15q-11 0 -32 -1q-15 0 -32 12q-8 2 -18 2q-8 0 -28 -1v-29q0 -4 18 -5h20q14 0 20 -8q0 -2 -2 -2h-9q-19 0 -61 -1q-13 2 -13 5v1q4 14 7 26q6 2 6 3v1q0 2 -4 13v1q2 4 4 4v2 q-24 0 -41 15q-1 2 -1 4v8q0 5 1 15q-8 0 -14 10q0 2 -25 3q-7 0 -14 -11l-6 -1h-7q-1 0 -1 1v3l1 7h-57q-34 23 -34 26q3 11 3 18q-6 8 -27 8q-20 10 -72 73q-32 51 -60 102q-18 18 -18 31v4q0 10 1 19q0 24 -34 78q-15 44 -34 154q1 13 1 24v2q0 6 -10 9q-2 4 -3 20 q0 51 8 51q5 9 5 12v3q0 11 -2 18q3 47 8 47q55 24 55 44v1q0 6 -19 31q-9 0 -9 6v6q0 9 17 30q8 19 25 57q0 1 3 12q-4 25 -4 31q0 14 29 44q40 55 40 66l1 7l-3 28q1 8 3 8h19q6 0 25 23q2 0 22 22q11 0 32 1q16 -1 24 -1q13 1 74 74q36 39 77 39q4 0 66 24q32 14 70 29 q0 2 2 2zM463 1422v-2q-7 -10 -14 -10q-1 0 -7 2q-17 -10 -50 -20q-5 -1 -15 -13h-1q-1 0 -11 1q-9 -8 -9 -11h-2q0 16 55 33v8l4 4l16 -2q10 2 34 10zM337 1381h5q1 -1 1 -2v-20q0 -2 -2 -2q-4 0 -23 1v1q-8 0 -14 -10q0 6 -6 16v1q1 4 6 4q11 -1 12 -2q10 0 14 10q1 1 7 3 zM304 1349v-1q-4 -13 -5 -13h-21q2 -5 2 -8q0 -5 -49 -27q-7 -4 -10 -10q-2 -1 -31 -10v2q8 8 41 29q28 32 43 35q4 0 6 1q13 -2 16 -2q3 1 8 4zM155 1225v0q-29 -28 -37 -48q-11 -13 -22 -23h-3v1q5 13 9 15l-1 4v6q0 1 3 2q9 -1 11 -1q22 25 30 44h10z" />
<glyph unicode="H" horiz-adv-x="1327" d="M338 1444q35 0 35 -10q2 0 4 -1q28 1 33 1q67 -1 82 -1q7 1 12 1l1 -2v-12q-25 -19 -32 -36q-8 -1 -20 -24q-9 0 -11 -47q-6 -12 -9 -131q4 -21 4 -28v-11q0 -64 -10 -64t-10 -14q0 -21 3 -61q-3 -74 -3 -87q0 -24 11 -34v-9q-2 -18 -2 -20v-7q1 -3 7 -5q24 2 31 2 q12 -1 18 -3q37 1 58 1h18q16 0 52 4h6l29 -9h6q63 3 63 10q7 14 22 14q21 -5 21 -8l-2 -6q0 -4 9 -5q45 4 67 4q26 -3 33 -3h36l8 -1l1 2v48q-3 44 -3 47l3 19q-8 35 -8 45q7 36 13 36l8 -1l1 2v1q0 25 3 72q0 42 -16 54q-1 6 -1 9q0 23 1 50q0 4 -2 23h-1l-9 -7h-1 q-4 0 -4 19v9q0 23 1 63q-7 34 -23 50q-34 40 -34 49l1 2q11 -1 58 -3l85 3l1 -2v-1l-3 -11q5 -2 7 -2q34 1 48 1q0 1 1 1l-1 6v1q0 6 47 10q86 -2 86 -8q0 -10 12 -10q9 0 40 -1q9 1 9 3v2l-5 7v1q0 4 26 4q9 0 63 -1l1 -2v-12q-25 -20 -47 -43q-12 -18 -12 -20q2 -5 2 -8 t-13 -11q-3 -8 -3 -12v-2q0 -13 1 -40q-3 -3 -13 -7q-3 -5 -3 -19q2 -102 2 -123v-61q0 -7 -14 -11q0 -2 -1 -4q-2 -43 -2 -63q8 -92 8 -104q0 -44 -6 -199q1 -23 5 -23l8 1q3 -5 3 -7q-1 -46 -1 -64l3 -22q-4 -93 -4 -132v-19q0 -5 -1 -9q1 -4 1 -8v-21q0 -12 3 -12l7 6h3 q2 -1 2 -3v-239q0 -17 20 -53v-4q-4 -5 -4 -9v-2q2 -4 42 -24q42 -38 42 -43q-1 0 -1 -1q-51 -2 -97 -2l-84 6q-14 6 -25 6q-96 -10 -106 -10h-6q-2 0 -2 3q3 10 3 13l-2 1q-21 -3 -23 -3q-11 2 -17 2q4 -11 4 -13q0 -5 -78 -8q-19 0 -70 6q11 25 45 61q19 27 19 85v48 q0 11 8 67l-2 87q0 48 6 48q10 0 10 9q0 1 1 6q-1 18 -1 35v3h-2q-8 -5 -11 -5l-1 2v2q0 2 15 30q0 5 1 14q0 66 -41 92q-45 35 -80 35q-15 1 -20 1q-95 -9 -104 -9h-2q-5 9 -15 9h-2l-74 -6h-6q-12 0 -73 6q-18 0 -24 -11q0 -4 -14 -4h-37v-4q0 -43 1 -54q-1 -26 -1 -61 v-26q0 -4 -7 -21v-2q0 -1 8 -9v-6q0 -33 -3 -119q5 -2 5 -7l-7 -63v-16q0 -67 11 -67q7 0 9 -11q-2 -23 -2 -35q0 -32 13 -32q18 -23 44 -41q4 -7 4 -11q-2 -21 -5 -21q-14 0 -69 -1q-15 0 -86 8l-113 -7h-11q-20 0 -25 8l-13 1l-81 -6q-49 -3 -76 -3v1q13 31 42 53 q8 10 18 38q11 13 12 24q0 20 -3 32q2 13 6 13q7 -3 11 -3q2 4 2 6q-2 18 -2 22q1 5 4 5q8 -5 10 -5t3 50q0 33 -15 45q-1 6 -2 6l1 4q0 13 2 55q-2 42 -5 132q0 18 13 29q5 11 5 37q0 21 -1 94q0 2 -8 14v3l8 122v4q0 2 14 11v3q0 8 -23 30q-8 9 -8 28q3 27 3 54v53 q0 30 1 81q0 21 -13 21q-3 4 -3 6q-4 66 -4 105v13q5 20 5 70v4q0 16 -6 19l-6 -1q-6 7 -6 20l6 35q-5 19 -15 19q-9 19 -43 40q-21 13 -31 32l-1 4l2 1h27q17 0 32 -2q43 2 59 4h13q55 0 55 -4q0 -5 10 -6q13 7 35 7q11 1 45 1h12q24 0 30 6q0 3 18 4z" />
<glyph unicode="I" horiz-adv-x="559" d="M54 1438q8 0 37 -5h29q10 -5 19 -5h35q3 0 19 -10q12 -6 27 -6q33 1 43 1q16 24 24 24h17q4 -5 10 -5q34 0 73 6q1 -8 7 -8q32 0 78 2q51 -2 51 -6q-53 -63 -56 -64q-9 0 -19 -22q-9 -9 -9 -14q1 -8 1 -12q-11 -21 -11 -43q-5 -17 -5 -25q0 -85 10 -110q-8 -37 -8 -42 q1 0 7 -8v-3l-5 -26l1 -13l-4 -132q1 -1 1 -6q-15 -11 -15 -12q0 -2 1 -16q-3 -11 -3 -14v-29l4 -4v-15q-4 -4 -4 -7v-23q4 -4 4 -8v-16q0 -3 2 -5l-2 -2q0 -2 2 -2q-2 -12 -2 -18v-41q-12 -18 -12 -22v-8q0 -14 23 -45l2 -8v-96q-4 -12 -4 -15v-77q0 -6 -1 -17q0 -2 17 -21 v-12l-4 -15q1 -16 2 -17q-1 -2 -1 -3q2 -14 8 -31v-83q0 -53 4 -62q0 -1 -2 -1q9 -65 23 -83q15 -18 44 -35q24 -21 28 -42q-2 0 -2 -1q-88 6 -133 6h-4q-6 0 -15 -1q-15 0 -15 9q-6 5 -13 5h-14q-17 0 -27 -13l-9 -5l-38 3q-1 0 -1 -1l-7 1h-14q-1 0 -1 1l-6 -4h-9 q-13 0 -16 5h-9l-21 -3q0 7 -28 12h-2q-11 0 -40 -10q-10 1 -17 1h-1l-10 -3q-9 0 -87 9l-1 2l43 32q33 35 36 58q9 24 9 39v31q0 3 1 4q0 1 -1 1q10 98 16 224l-1 6q0 10 9 23l1 4q0 11 -18 22v5q0 5 9 10q5 7 5 17v1q0 12 -1 35h1l-1 2q1 21 1 29q0 1 -13 13q-3 6 -3 8 q18 26 18 76v22q0 5 -1 12l1 2l-2 9q0 1 1 1l-6 50q0 1 1 1q-2 11 -2 13l1 2q-2 13 -3 15q0 1 2 1q-2 16 -2 24v14q0 5 5 22v39q-5 12 -5 15v11q5 10 6 19l-1 11v29q0 32 1 41q-1 20 -1 47v66q0 5 1 15q-3 35 -14 109q0 5 13 11l1 5q-22 31 -22 45q2 3 4 19q0 16 -49 80 q-22 16 -22 32l2 1h10q13 0 24 1z" />
<glyph unicode="J" horiz-adv-x="801" d="M523 1433h78q2 0 2 -3q-1 -2 -1 -3h16q4 0 8 1q4 -1 8 -1h10q5 4 10 6q12 -5 26 -7q5 -21 5 -25q14 3 28 16q9 6 25 11l5 -1h9v5l1 1h18q23 -7 29 -7q4 -2 4 -3q-2 -3 -17 -7q-23 -14 -35 -52q-11 -56 -11 -170q-1 0 -4 -27q0 -4 1 -29q-1 -5 -5 -6q-1 -2 -1 -4v-20 q6 -12 6 -18v-5q0 -16 -1 -36q0 -8 6 -22q0 -41 -7 -41q-15 -1 -15 -7l-1 -7q3 -3 22 -4q1 -2 1 -3q-1 -34 -1 -35l-5 -4q0 -1 1 -1l-1 -5v-8q0 -5 6 -8q-1 -12 -1 -18q0 -33 2 -58q-1 -45 -1 -82v-32q0 -6 -1 -16q0 -3 7 -28v-4q0 -16 -6 -35v-15q-5 -12 -5 -13 q6 -12 6 -16q1 -4 1 -7q0 -2 -7 -23q-1 -1 -1 -4q0 -2 1 -10q-19 -192 -29 -192q-8 -37 -21 -73q-20 -17 -20 -25q1 -1 3 -15q0 -5 -20 -26q-4 -9 -4 -26l-36 -51q-14 -16 -26 -16q-9 0 -19 -26q-16 -14 -42 -26q-16 -7 -16 -17q0 -3 -21 -17q0 -6 -36 -12q-26 -6 -29 -12 q-12 -9 -19 -9h-155q-45 0 -55 12q-3 4 -8 4h-6q-2 0 -4 -1q-31 9 -52 22q-23 19 -45 39q-17 6 -25 20q-4 21 -14 26q-9 5 -30 58q-2 0 -3 23q-6 3 -6 5v8q0 9 6 29q-1 8 -1 12q0 7 1 15l-2 20q0 10 16 32q4 0 7 64q8 7 18 30q12 21 24 25h9v3q0 33 60 73q57 30 79 30 q3 0 41 16q15 2 25 2h2q0 -4 -25 -31q-9 -17 -17 -17q-12 0 -12 -21q-43 -48 -50 -69q-15 -39 -15 -96v-27q0 -12 8 -42q0 -34 40 -58q10 -10 10 -13q-1 -2 -1 -3l2 -1h14q3 0 9 1q3 0 21 -11q13 -1 14 -1t14 12h15q3 10 5 10h35q0 7 8 23q19 6 42 21q21 29 40 79q9 14 9 30 v21q0 4 16 77q1 1 1 5q-1 12 -3 17q1 10 1 16v4q0 1 5 15v2q0 1 -11 7v1q0 12 10 16q7 10 7 18v1l-1 5l-5 -1v33q0 46 1 84q-1 18 -1 67l-1 5q0 2 7 12q-11 20 -11 24q-5 44 -5 54v72q0 22 -11 88v3q1 100 1 148q11 11 11 13v3q0 2 -1 10h-7q-9 2 -9 10q0 6 1 16 q-5 30 -5 51v41q-6 19 -6 24v2q0 2 2 2q1 -1 4 -1v2q-6 0 -6 6q1 10 1 15q0 18 -16 44q0 1 -45 41v1h82q9 0 25 1q4 -6 5 -6h2q0 4 5 6q17 -1 26 -1h4l-1 2v4z" />
<glyph unicode="K" horiz-adv-x="1279" d="M461 1443q28 0 35 -10q3 0 3 -3q0 -6 -30 -32q-37 -53 -37 -77v-4q0 -9 1 -23q-22 -46 -24 -53q-2 -18 -3 -18l1 -13v-39q4 -67 13 -67q2 0 4 -1q1 -21 1 -32v-14q0 -20 -9 -45q0 -3 -1 -12q1 -65 1 -110v-13h1q33 35 37 36q17 4 31 33q12 31 44 65q53 45 67 68 q0 6 113 117q19 40 25 48q62 59 70 79q5 5 37 53q0 1 -1 1l1 11v5q0 10 -4 34v4q0 2 2 2h6v1l-3 6l2 1h4q18 -9 34 -9h12q15 0 41 1q6 0 16 -7q6 -1 10 -1q28 0 152 8q19 -1 42 -1h2q16 0 42 9h7q3 0 5 -9h15q9 0 27 1l1 -2v-5q-69 -38 -124 -80q-94 -75 -163 -140 q-57 -60 -107 -133q-76 -93 -183 -200q-1 0 -54 -54q0 -5 43 -83q6 -15 15 -42q22 -12 31 -21q12 -11 38 -41q15 -12 36 -52q59 -106 84 -139q28 -41 46 -55q39 -24 39 -41q0 -10 51 -62q39 -44 73 -99q28 -43 84 -97l104 -76l19 -21v-1q-7 -5 -7 -7q-7 0 -20 1 q-35 -2 -40 -2q-28 0 -67 9h-1l-42 -9h-38q-2 0 -4 3v1l1 2q-2 2 -3 2q-26 1 -30 1q-9 -7 -14 -9q-22 1 -24 1q-24 -1 -26 -1q-37 13 -38 13q0 3 -14 4q-6 0 -46 -8q-23 -1 -33 -1q-90 1 -100 1q0 1 -2 1q18 30 18 42q0 49 -102 186q-88 134 -96 144q-29 30 -36 55 q-13 43 -24 43q-20 10 -20 19q0 17 -48 85q-12 21 -23 21q0 -59 -9 -187v-10q0 -26 14 -36q4 -5 4 -9q-10 -25 -10 -29q0 -24 10 -60q0 -13 1 -32l-3 -69q0 -34 10 -58q0 -26 42 -55q33 -29 40 -41v-2h-174q-3 0 -18 9h-1q-10 0 -10 -8l-2 -1h-67q-7 0 -12 -7q-2 -1 -5 -1 q-6 0 -19 7q-1 0 -3 1q-26 -1 -42 -1h-28q-16 0 -44 1q-7 0 -13 -8h-65q-2 0 -2 2q5 5 36 25q31 43 42 93q3 13 5 40q-1 21 -1 28q0 25 9 111v1q0 5 -2 20q0 8 30 21q10 9 13 14q-6 5 -6 9h-33q-2 0 -2 2v10q0 9 -2 19q10 47 10 48q1 1 1 7q0 11 -1 80l10 74q0 33 -9 49v61 q0 31 -9 62v2q0 10 8 28q0 17 -1 24q1 49 1 88v30q0 22 -1 54q0 8 9 35q1 5 1 11q0 3 -9 36q0 10 -1 13l2 25q-1 12 -1 22v38q-7 37 -10 59q0 18 20 32v3q-18 8 -18 10v5q0 19 1 49q0 10 -36 46q-2 7 -39 55l1 2q6 -2 29 -2t60 2q0 -5 54 -8q22 -9 38 -9h26q67 0 189 25 q35 2 46 2z" />
<glyph unicode="L" horiz-adv-x="1151" d="M362 1438q16 0 32 -8q11 -2 34 -2h64q17 -1 17 -4q-17 -12 -27 -30q-38 -41 -38 -76q0 -33 -20 -63q-8 -11 -8 -31q0 -6 9 -77q-1 -12 -1 -21v-17q0 -12 9 -57v-6q0 -26 -1 -41l2 -56q0 -44 -18 -92q-1 -12 -1 -20v-6l5 -144q0 -33 -9 -40l-1 -6v-2q0 -54 17 -112 q0 -4 6 -23v-1q0 -11 -16 -21q-1 -31 -1 -46v-19q0 -20 8 -38v-12q-8 -26 -8 -33q1 -73 1 -125q71 -14 146 -14h3l34 6q4 0 13 2q21 0 73 -8h10q11 0 101 22q96 20 121 54q22 -20 32 -52q10 -31 57 -91q5 -2 47 -48q6 -3 9 -3q5 2 8 2q6 0 16 -27q3 -8 25 -20q31 -24 31 -30 q-2 -1 -3 -1l-44 10h-3q-41 -3 -47 -3q-9 0 -20 7h-2q-44 2 -67 2h-38q-39 0 -39 -5q0 -3 -8 -4q-7 0 -19 7l-13 2q-29 0 -64 -2q-38 0 -151 2q-150 -2 -239 -2q-14 0 -25 -12q-5 -3 -11 -3q-37 0 -37 9q0 5 -17 8q-5 0 -17 -2q-87 2 -107 2q-10 0 -57 -2q-11 3 -27 3h-2 q-11 0 -44 -12q-27 -5 -41 -5l-1 2q7 10 51 47q14 16 22 35q22 21 22 34q-4 7 -4 9v5q0 13 15 28q3 12 3 16q-1 28 -1 44v9q0 6 -1 12q10 38 10 54q-2 33 -10 98v8l3 89q0 15 -10 45q-1 0 -1 7q0 3 9 12l10 109q5 7 5 20v107q0 11 3 50q0 10 -9 17q-2 6 -2 17q0 18 2 53 q-9 92 -9 107v81q0 20 -1 54q0 3 9 22l1 5q0 8 -17 21l-2 14q2 33 2 47q-9 25 -14 67q0 24 -53 72q-8 6 -10 11l2 1h67q6 0 15 1q10 0 22 -7q5 -1 10 -1l31 7q9 1 20 1q39 0 163 6h4z" />
<glyph unicode="M" horiz-adv-x="1421" d="M1342 1447h3v-23q0 -38 4 -106v-23l-18 -37v-3q8 -55 17 -70q1 0 1 -4q0 -139 9 -314l-1 -8l7 -54q-5 -14 -17 -34q-3 -6 -7 -17q2 -19 8 -160l14 -17q1 -6 1 -9q0 -9 -1 -43q4 -15 4 -22v-11q0 -9 -10 -13q-14 0 -14 -21q-7 -19 -7 -32v-10q0 -11 8 -68q0 -22 9 -61 q0 -1 -11 -13v-26q0 -4 1 -10l-1 -2q0 -2 1 -4q-1 -11 -1 -17v-9q0 -3 7 -11q0 -4 1 -6l-1 -17q0 -68 24 -111q0 -8 40 -43l7 -9q-2 -1 -3 -1q-76 0 -89 11q-8 2 -17 2l-12 -9q-8 0 -55 1q-28 0 -64 -2q-1 0 -1 1l-7 -1h-16l-8 -1v1l-2 -1q-61 -1 -92 -6l-1 3q0 11 42 62 q11 18 13 30q1 120 1 166q6 20 6 24t-9 16v13q0 4 3 51q-3 113 -5 232q8 153 11 187q-3 38 -7 50q-6 0 -40 -39l-5 -1h-9q-8 -14 -37 -41q-3 -14 -37 -47q-21 0 -31 -9q-3 -1 -20 -27q-64 -60 -64 -69q-1 -1 -9 -15q-4 0 -36 13h-1q-8 -1 -28 -26q-6 -5 -14 -20 q-18 -17 -33 -23q-39 -42 -39 -44q-4 -5 -4 -7h-2q-19 10 -35 35q-23 18 -34 29v29q-18 20 -29 23q-32 -13 -35 -13q-17 31 -51 62q-31 28 -35 41q-12 17 -37 17q-25 20 -36 40q0 4 -27 30q-7 9 -12 19l-2 -1h-7q-9 0 -36 35q-2 0 -9 5q-8 -33 -8 -51q3 -33 11 -186 q-1 -119 -4 -234q3 -45 3 -49v-13q-10 -12 -10 -17l7 -25q0 -37 1 -165q1 -17 40 -64q15 -21 15 -29q-1 0 -1 -1q-31 4 -94 6v1q-1 0 -1 -1l-8 1h-15l-7 1q-1 0 -1 -1q-35 2 -67 2q-41 -1 -54 -1q-8 9 -14 9q-9 0 -29 -9q-31 -5 -76 -5l-1 3q47 43 47 49q25 46 25 111v2 l-2 16q0 7 8 15v11q0 7 -1 18l1 2q0 1 -1 1l1 11v28q-11 11 -11 14q8 28 11 82q7 23 7 46v10q-9 49 -13 49q-18 7 -18 16v12q0 5 3 23q-1 32 -1 44q0 9 16 22v2q4 118 7 159q-4 16 -22 45q-2 4 -2 9l8 50l-1 11q8 170 8 314q10 17 18 72v2q0 3 -18 38v24q5 67 5 105v24h2 q12 -5 30 -22q29 -20 46 -20q19 1 36 1q17 -28 81 -77q3 -2 85 -81q69 -51 143 -123q18 -9 18 -13q-3 -20 -3 -30v-4q52 -41 92 -90l43 -39q20 0 46 -9q0 -5 13 -26q13 12 20 32q24 6 34 6q16 0 26 16q23 20 75 77l44 37v4q0 8 -3 32q17 8 42 35q68 62 124 103 q71 71 123 112q22 19 39 42h1q14 0 34 -1q24 0 62 33q0 2 14 9z" />
<glyph unicode="N" horiz-adv-x="1236" d="M818 1443q33 -3 42 -3h73q21 -5 60 -5h1q25 0 41 5h198v-1q-4 -6 -40 -33q-11 -12 -33 -42q-12 0 -22 -97v-32q0 -14 1 -34q-4 -8 -9 -8l1 -7v-26q10 -6 10 -12q4 -81 4 -93q-1 -10 -1 -11q1 -7 1 -19q0 -6 -11 -17v-1q13 0 15 -47v-2q0 -13 -1 -50q1 -29 1 -46 q-5 -15 -5 -20v-9q0 -40 1 -47q-1 -30 -1 -49q0 -36 1 -156l-1 -4q1 -2 1 -4q-1 -42 -1 -56q-13 -15 -13 -18v-23q-3 -21 -3 -24q4 -11 16 -27q0 -4 1 -5q-4 -15 -4 -21v-57q-3 -15 -3 -21v-107q0 -38 9 -38q12 -4 12 -12q-9 0 -18 -57q2 0 7 -8q-3 -11 -4 -50l5 -24v-56 q0 -83 -6 -83q-4 4 -12 42q-5 17 -28 56q0 8 -61 95q-67 98 -67 100q-35 40 -47 64q-13 16 -40 31q-11 6 -11 24q0 5 -33 16q-4 4 -19 34q-53 60 -68 64q-25 14 -34 27v35q-5 13 -50 57q-60 65 -73 68q-32 -13 -36 -13q-17 31 -50 61q-30 27 -38 44l-14 13q-24 0 -31 9 q-25 28 -30 42q-31 26 -33 39h-10q-9 0 -37 35q-1 0 -8 4q-5 -12 -8 -50q3 -33 11 -186q-1 -120 -5 -233q4 -43 4 -52v-11q-10 -12 -10 -17l6 -25q0 -36 2 -165q1 -18 41 -65q14 -21 14 -27l-3 -2q-45 6 -91 6l-2 1q-1 0 -1 -1l-6 1h-16l-7 1q-1 0 -1 -1q-37 2 -65 2 q-47 -1 -55 -1q-11 9 -14 9h-1q-10 0 -29 -9q-28 -4 -76 -4l-1 2q45 42 45 46q27 45 27 117v2l-2 14q1 7 8 15v2q0 18 -1 26q1 12 1 32v10q-11 11 -11 13q9 38 11 83q7 23 7 48v8q0 8 -11 48q-21 8 -21 18q1 16 4 34q-1 32 -1 42q0 12 14 23q2 2 2 3q4 116 7 159q0 7 -24 49 v5l8 50q-1 10 -1 12q8 170 8 313q15 32 15 56q1 0 3 18q-2 7 -18 37v24q5 67 5 107v22h2q12 -5 30 -22q30 -20 46 -20q19 1 36 1q23 -33 85 -81q26 -24 79 -75q60 -45 123 -103q21 -23 36 -29q4 -3 4 -6q-3 -20 -3 -29v-6q32 -21 86 -81q46 -46 49 -46q19 0 45 -9 q0 -18 68 -82q61 -57 113 -97q20 -17 49 -49v62q0 7 -3 52q0 10 1 38q0 2 -1 13q1 10 1 24q0 11 -19 51q22 26 22 67v24q0 64 -12 64q-16 15 -16 24q0 3 6 12q5 18 5 30v31l3 11v1q0 5 -11 18v42q-8 74 -17 92q-15 38 -64 78v1z" />
<glyph unicode="O" horiz-adv-x="1379" d="M764 1434q19 0 49 -15q33 -9 78 -9h9q19 0 54 3q34 -9 83 -51q22 -38 68 -56q50 -10 50 -18q6 0 31 -45q60 -75 60 -114q2 -8 4 -47h-2q0 -5 28 -21q4 0 19 -51l5 -12q2 0 19 5q2 0 7 -49q12 -62 23 -76q25 -22 25 -89v-8q0 -39 -20 -195q-9 -29 -13 -77 q-19 -64 -61 -140q-2 -10 -26 -25q-15 -22 -15 -46l-2 -1q-9 4 -20 4q-28 0 -39 -35l1 -13q0 -47 -54 -66q-74 -34 -150 -63v-20q38 25 90 30l1 -2q-34 -41 -71 -54q-36 -27 -95 -43q-89 -25 -162 -25q-36 2 -38 2q-39 -12 -67 -12h-5q-34 0 -86 30q-2 1 -3 1q-25 -3 -27 -3 q-44 0 -77 44q-29 -2 -51 -2h-3q-20 0 -33 19q-41 41 -80 57q-15 6 -15 13q-5 23 -7 28q-49 18 -52 26q-60 60 -93 105q-50 130 -53 133q-23 19 -25 36q-16 43 -16 92l2 43q-9 7 -9 26v12q0 42 16 190q23 104 41 125q18 28 45 78q12 18 35 43q22 29 46 74l70 20v1 q-4 3 -7 19q0 24 44 57q61 53 109 81q37 21 41 25v1q9 0 34 -12h8q24 0 52 32q3 8 6 9q25 -3 44 -3q28 0 80 18q0 10 100 16zM482 1094l-16 4v-18q-1 -3 -30 -13q-9 -39 -11 -41q-39 -26 -55 -75q-8 -29 -16 -86q-29 -10 -29 -11q8 -13 10 -23v-43q-11 -35 -11 -85 q0 -37 1 -118q0 -45 51 -160q0 -20 35 -27q7 0 20 -21q14 -17 25 -38q34 -36 64 -53h28l42 -41h50q28 -20 52 -20h9q11 0 14 7q14 9 68 24q13 -14 34 -14h3q50 0 126 76q29 38 49 78q16 0 22 41q9 60 22 81q7 29 7 56q1 1 10 27q-21 0 -21 30q-2 37 -2 51q0 41 15 49 q3 2 8 2q-11 32 -27 157q-3 31 -11 31q-26 26 -26 59q0 13 3 26q-21 33 -59 71q-54 53 -55 53q-18 5 -38 29q-83 32 -91 32q-86 8 -98 8h-13q-90 -39 -99 -44q-14 -16 -35 -49q-10 -12 -25 -12z" />
<glyph unicode="P" horiz-adv-x="1119" d="M573 1438l8 -11q7 -3 22 -3h37q81 -15 97 -15q3 0 29 1q19 0 40 -13q11 -3 22 -3h30q16 0 32 -14q17 -11 17 -12q2 -6 2 -17q-16 -13 -16 -15q14 -4 21 -4q3 0 15 18q2 1 4 1h4q18 -16 30 -17q0 -3 60 -79q25 -37 40 -48q5 -7 5 -15v-5q-4 -43 -4 -49q0 -16 36 -84 q10 -24 10 -46v-33q0 -137 -92 -308q-23 -36 -55 -71q-42 -40 -74 -48q-39 -22 -88 -22q-97 0 -244 54l-41 12q0 7 -49 59q-16 26 -19 51q2 2 9 3q3 0 24 -12q10 -4 14 -4l7 1q18 -5 44 -5l111 5q11 0 45 -1q30 0 62 81q15 51 26 75q12 14 12 32q-1 31 -2 41l6 45 q0 21 -39 70q-5 10 -5 19v11q0 7 1 14q0 33 -85 124q-35 32 -80 32h-4q-28 0 -99 1q-25 0 -52 -16h-39q0 -7 -1 -16q1 -104 1 -165v-15q15 0 15 -14q1 -11 1 -20q-1 -74 -1 -84q2 -5 2 -8q-3 -3 -27 -10q-7 -3 -7 -27v-1q0 -10 14 -15q3 -6 4 -16q-1 -133 -2 -167 q1 -4 1 -16l-2 -1l-8 6q-7 -2 -7 -17q0 -39 7 -39q9 0 13 -17q12 -9 12 -28t-1 -42q1 -11 1 -20q0 -8 -15 -68q-1 -8 -1 -13q8 -79 16 -119q0 -16 6 -16q10 -14 10 -43v-14q0 -22 -3 -93q0 -50 23 -70q55 -47 63 -58q3 -8 3 -9l-2 -1h-104q-22 0 -64 -1q-12 0 -18 15 q-9 2 -9 3q-14 -3 -14 -4q0 -13 -13 -13l-8 -1q-1 0 -18 16h-10q-26 0 -64 1q-7 -1 -14 -1q-25 16 -37 16h-1q-32 0 -32 -7q0 -9 -3 -9l-23 2q-49 -1 -74 -1q-3 0 -20 -1l-1 2q12 14 42 39q21 18 34 45q14 30 14 42q-1 23 -2 26q1 16 1 29q-3 79 -3 84q0 8 15 10q2 3 2 8 q0 13 -1 24q2 22 2 54v5q0 18 -2 33q1 12 1 23t-15 16v1q3 11 16 34q0 20 -2 20q1 23 1 34v107q0 40 -2 109q4 4 8 4h21q2 0 2 3q-8 26 -23 34q-5 0 -7 8q0 8 1 59q0 37 -1 119q2 114 2 122q0 4 -2 47q1 16 1 32l-2 8h-8q-5 0 -5 55v7q0 4 14 5v5q0 3 -14 27v5q0 7 1 21 q-11 33 -36 60q-24 13 -36 51q-2 8 -2 9l2 1h95q9 0 15 -13q6 -3 27 -3q4 0 48 16h5q13 -16 19 -16q16 0 28 15l6 1h85q28 0 91 4q10 0 37 -4q2 0 2 1l4 -1q34 -1 38 -1q16 0 49 15h11z" />
<glyph unicode="Q" horiz-adv-x="1426" d="M691 1433q8 -5 12 -5h2q2 0 13 3q5 -12 21 -12q12 3 34 6q0 2 36 5q0 1 6 3q17 -3 24 -3l9 1l16 -5q16 1 24 1q16 -3 17 -3h4q4 0 10 1q16 -4 29 -26l47 -19q75 -34 158 -96q40 -31 66 -53q0 -5 41 -39q46 -55 46 -60q58 -84 62 -112q-5 -9 -5 -12q0 -6 29 -48 q7 -12 7 -24q-10 -12 -12 -19q9 -17 12 -31q-3 -19 -3 -24q5 0 9 -29q3 -13 14 -37q1 -2 1 -7q-9 -19 -9 -42q0 -2 20 -19v-3q-4 -29 -5 -51q1 -7 1 -11v-34q0 -6 -13 -59v-1q11 15 13 15h4q-10 -52 -22 -81q-9 -15 -19 -44l-8 -19q-25 -22 -32 -40q-3 -11 -11 -17 q-2 2 -4 11h-1q0 -9 -2 -9q-2 2 -3 11q1 8 1 13h-1q-7 -5 -7 -15v-9q5 -6 5 -11q-9 0 -24 -63q-13 -16 -42 -31q-14 -32 -32 -48q-31 -32 -32 -32q-5 -17 -15 -23q0 -3 -19 -23q-4 -7 -10 -7q-1 0 -10 1q-6 -9 -15 -9v-1q4 0 39 -13h1q4 0 7 12l2 1q8 0 45 -20q18 0 125 -46 q83 -40 154 -108q20 -27 24 -35q-3 -3 -3 -7v-1q35 -32 50 -60q22 -24 22 -41q2 -3 21 -14q24 -17 59 -45q35 -33 111 -48q31 -4 31 -13l4 -1q76 20 103 42l26 19v-3q-49 -84 -108 -84h-9q-3 0 -14 -10q-15 -8 -17 -8q-9 5 -60 8q-13 0 -22 17q-14 10 -22 10q-3 -13 -5 -13 q-25 8 -86 40q-19 0 -29 15q-2 0 -12 17q-21 15 -91 76q-62 46 -104 67q0 2 -17 7q-6 -1 -16 -5q-6 0 -8 15q-2 0 -35 33h-4q0 -3 -5 -3v-10l-3 -3q-41 20 -113 41l-6 1q-51 -3 -66 -3q-2 1 -3 1v1l1 6l-6 1q-25 -1 -29 -1q-12 0 -85 8h-8q-23 0 -64 -12h-1q-3 0 -39 16 q-32 -14 -42 -14q-60 27 -75 27l-61 4q-19 -6 -27 -6q-3 0 -22 4l-11 -1q-8 3 -46 5q-53 12 -56 17t-3 13q-4 -2 -10 -2q-29 0 -98 49q-6 7 -6 14q4 3 7 3q6 0 47 -12q23 -2 30 -5q6 1 10 1q10 0 20 -2l25 2l8 -1q4 0 24 3q10 -2 13 -2q15 2 24 2l3 -2q3 3 27 5q0 3 13 14 q19 -1 22 -1q2 0 17 15q8 -4 22 -7q17 16 24 16h11q3 0 5 6l8 -2q20 6 20 10q-1 2 -1 4q24 15 50 15q7 0 11 -4h3q11 0 68 61q11 0 67 59q14 0 67 70q16 25 23 31q0 4 33 52q30 69 40 102q16 50 21 102q-15 76 -15 84q0 2 1 4q-7 17 -7 40q-5 7 -13 12q-6 45 -17 45 q-4 14 -22 30l-30 53q-5 0 -15 28q-8 13 -23 17q-4 0 -9 14q-3 0 -6 5v8q0 21 -38 32q-25 30 -56 51q-22 13 -64 30l-19 14q-6 -3 -9 -3q-8 11 -13 11q-5 -4 -15 -4q-3 0 -43 20q-11 1 -13 1q-22 -1 -33 -5q-6 3 -11 3q-18 0 -43 -12h-3q-8 9 -10 9t-32 -16q-10 -3 -52 -8 q-9 -4 -21 -17q-14 -9 -57 -29q-5 -5 -8 -23q-9 -7 -34 -14q0 -1 -4 -3l2 -6v-6q-11 0 -45 -33q-13 -4 -13 -15q0 -30 -39 -57q-24 -29 -24 -56q0 -43 -14 -64q-12 -25 -12 -27v-3q0 -10 5 -22q-2 0 -10 -11q-4 0 -9 -2v-1q11 -24 14 -39v-11q0 -3 -1 -5l10 -35 q-11 -25 -11 -30v-1q0 -6 23 -52q9 -42 31 -86q15 -14 30 -42q4 -3 34 -39q12 -14 59 -26q3 -15 17 -15h6l-1 6l1 2q19 -10 45 -14q4 -6 4 -8h5q11 0 28 -13q7 2 10 2h4q4 0 33 -12q26 0 55 15q4 0 11 -4q0 2 3 2q10 0 35 -1q16 4 62 7q12 8 28 21h12q38 33 54 51 q16 21 28 32h5q5 0 7 -19q0 -40 -33 -111q-17 -32 -49 -63q-29 -24 -71 -44h-7q-8 0 -14 8q-9 0 -22 12h-1l1 -2v-2q0 -3 -4 -3l1 -8q0 -13 -11 -19h-1q-1 0 -1 1q-66 -35 -101 -39h-1q-3 0 -12 12q-3 1 -4 1q-4 0 -9 -19q-8 -2 -14 -2h-13q-6 0 -14 2l-3 -1q-1 0 -7 5h-2 q-7 -8 -14 -8h-4q-14 0 -27 -3q-42 4 -42 6q-13 13 -13 17q-21 -6 -27 -6h-3q-49 17 -50 17q0 2 -6 6q-10 -7 -17 -8q-33 10 -33 33q-1 3 -23 16q-2 5 -36 23q-6 7 -22 15q-2 4 -2 7v14q0 13 -24 20q-1 -3 -7 -3h-1q-19 15 -48 56q-50 61 -63 105q-23 49 -47 141 q-10 42 -10 50l5 18l-4 8v39q0 1 -5 20v2q0 5 9 16q-3 0 -5 57q4 31 7 77q-4 6 -4 11t28 36q4 17 7 26q17 22 17 25q0 2 -1 2q5 54 15 54q7 13 11 17q9 8 11 24q24 44 24 54l22 36q1 0 9 8h2q5 -25 8 -25h4q13 22 13 37q-2 6 -2 9q3 0 3 2q4 -2 7 -2q0 13 21 25q5 0 7 16 l83 70q3 5 21 15q5 9 33 27q0 6 48 25q7 12 29 21q15 11 42 20h2q3 0 15 -4q21 0 64 24q12 0 39 19h35q0 3 2 3q17 -2 25 -2z" />
<glyph unicode="R" horiz-adv-x="1379" d="M557 1447h46q9 -13 42 -13q4 -3 8 -3h7q4 0 27 -5h44q11 5 14 5h26q6 0 15 -1q0 1 11 1q14 -23 26 -23q0 -4 70 -10h12q13 0 42 -40q11 -5 35 -31q12 -11 51 -71q31 -35 31 -45v-9q0 -3 -5 -16v-5q0 -4 22 -37q9 -15 9 -33q0 -53 -24 -179q-2 -19 -9 -19q-27 -12 -27 -26 l4 -37v-3q-26 -36 -43 -52q-10 -5 -45 -42l-2 -1l-14 5h-1q-5 0 -19 -33q-4 -10 -46 -14q-26 -11 -53 -11h-15q-20 0 -43 3q-1 -1 -4 -1v-1q9 -8 40 -17q13 -6 13 -9q0 -14 5 -14h2q14 16 24 16q29 -7 94 -19q18 -6 18 -16q15 -25 63 -87q22 -33 22 -40q-3 -13 -3 -16 q10 -49 22 -49q21 0 26 -10q0 -4 30 -39v-10q0 -4 -4 -9v-2q0 -5 19 -10q3 -5 9 -30q13 -24 49 -46q26 -20 43 -46q29 -26 167 -126q14 -10 45 -28q6 1 9 1t40 -26q8 -5 14 -5q13 0 30 -13q27 -16 79 -42v-3h-24q-48 -4 -60 -4h-124q-11 0 -74 4h-6q-4 5 -6 5q-4 0 -19 1 q-1 0 -10 -9q-2 0 -4 -1q-27 0 -112 23q-25 0 -34 12q-6 7 -52 39q-22 22 -27 22h-12q-1 0 -1 1q-1 0 -1 -1q-13 1 -19 1h-22q-43 44 -105 81q-33 18 -66 59q-38 34 -38 35q-5 32 -12 32q0 4 -58 62q-4 7 -4 9v19q0 7 -78 108q-23 28 -23 32q-1 1 -1 7v18q-5 23 -42 60 q-16 4 -22 16q-5 17 -21 41q-1 3 -2 3q0 2 1 4q-1 9 -1 15v2q-2 4 -13 9q-10 22 -42 73q0 7 -27 50v4q1 0 5 1q94 -11 113 -11q0 14 21 14h16q28 0 80 -2q49 4 49 24q18 33 41 108q3 9 4 24q0 42 -40 107q0 2 -1 4q3 12 3 18q0 14 -47 64q-12 25 -33 25q-5 4 -17 20 q-44 11 -63 11q-11 2 -35 2q-7 0 -10 -11q-3 -2 -6 -2h-21q-11 0 -24 1l-55 -5q-7 1 -16 1q-5 -5 -5 -16v-1q4 -41 4 -53v-57l17 -22l-5 -27v-3q0 -25 -3 -154q-16 -7 -16 -14v-57q4 0 4 -2v-16q0 -2 -4 -2v-28q4 -4 4 -8v-85q-12 -17 -12 -21v-13q0 -10 24 -42l1 -8v-97 q-3 -10 -3 -11v-73q0 -2 1 -4q-1 -2 -1 -4v-17q17 -16 17 -25q0 -2 -4 -18v-2q0 -7 1 -18l-1 -2l9 -32q0 -181 18 -208q0 -14 39 -40q38 -25 38 -48q-72 3 -91 3q-1 0 -1 2l-6 -2h-54l-8 -1q-4 15 -20 15q-25 0 -34 -12q0 -2 -10 -7q0 2 -61 4q0 -3 -2 -3h-14q-7 0 -11 6h-7 q-7 0 -16 -4q-5 0 -12 7q-13 4 -20 4h-6l-34 -9q-13 2 -15 2q-6 -4 -8 -4q-81 6 -81 8v1q48 40 55 60q9 14 16 53q0 8 2 9q-2 18 -2 28v41q0 3 2 9q-2 2 -2 5q5 60 5 68v39q0 4 1 10l-1 2q1 12 1 21v14q0 5 1 11l-2 21q0 8 10 19v4q0 12 -18 21l-1 3v6q14 11 14 26 q-2 19 -2 38v25q0 5 -14 17l-2 7q16 28 16 64v18q0 10 -12 145v22q4 14 4 17v37q-4 12 -4 15v13q0 5 4 9q-1 54 -1 84v116q0 46 -13 122q-1 6 -1 9q0 8 13 13q0 3 1 5q-21 31 -21 46q0 1 3 18q0 17 -49 81q-23 17 -23 34l2 1q32 1 40 1q35 -5 36 -5q4 0 23 1q3 0 12 -4 q10 0 13 -1q11 1 20 1h12q2 0 24 -13q8 -4 15 -4h35q23 0 23 8q13 16 19 16q4 1 10 1h1q6 0 14 -6l66 4q20 6 43 6q14 0 81 -10q8 0 43 12q6 2 25 2z" />
<glyph unicode="S" horiz-adv-x="834" d="M535 1433q26 0 112 -18q61 -20 61 -32v-3q-3 -25 -4 -44q-7 -10 -7 -17q0 -77 11 -106v-24q5 -28 5 -38v-3q0 -2 -9 -4q-3 1 -11 17q-15 19 -28 25q-9 3 -22 23q-51 39 -79 41q0 -5 -98 -25q-23 -8 -32 -8h-1q-2 0 -18 5v-5q-35 -19 -45 -26q-17 -20 -22 -20l-5 4h-1 q-7 -4 -31 -40h-10v-4q4 0 6 -1q-4 -12 -13 -12h-6q-2 0 -4 -5q0 -7 2 -7q-1 -10 -1 -15v-29q0 -64 16 -77q18 -25 50 -45q7 -8 34 -15q73 -40 74 -43l-1 -12q5 -1 17 -15q4 -2 7 -2q25 3 31 3h1q5 -7 15 -33q10 -11 71 -26q9 -4 33 -25q20 -9 26 -23q-6 -13 -6 -17v-23h2 q8 4 21 15q10 0 20 -27q0 -3 37 -42q41 -46 46 -62l-1 -12q1 -4 3 -4h8l5 1q7 -7 15 -45q8 -10 8 -45q12 -21 12 -64q1 0 2 -36l-2 -1h-5q0 7 -15 31v3q0 5 1 22q0 3 -11 17q-4 18 -17 35h-3q11 -27 11 -58q1 0 1 -7q-2 -1 -3 -1v-7q9 -40 9 -58v-12q-8 -44 -18 -125 q-21 -32 -42 -59l-12 -59h-3l-1 6h-1q-10 0 -10 -15q-55 -42 -64 -42q-17 0 -73 -19q-58 -15 -84 -25q-13 1 -13 2q-1 0 -1 -1l-68 2q-33 -17 -40 -17h-2q-17 1 -17 4v1q0 2 1 4q0 9 -34 9h-5q-14 0 -47 -5h-5q-44 6 -70 6q-7 16 -47 16q0 1 -19 2v1q0 16 12 20q13 11 13 19 l-3 2h-1q-12 0 -53 -40q-72 14 -72 17v15q0 2 2 2l6 -1q17 66 17 101q-5 2 -5 9q0 39 13 84q0 6 14 49q3 28 13 28q8 -19 50 -57q2 -3 3 -7q-1 -2 -1 -3q22 -8 29 -11q12 -9 46 -17q53 -4 55 -11q-14 -10 -14 -17v-1l3 -22h5v3q10 31 12 32q2 3 20 9q15 -5 82 -5q5 0 50 3 q1 0 4 -1q17 0 33 28q12 15 26 15q16 4 22 16q24 37 24 80v7q0 54 -50 134q-27 35 -57 43q-45 11 -71 32q-15 7 -15 17q0 2 3 15q-1 2 -1 3q-2 0 -11 -2h-6q-33 0 -33 9q0 13 -32 35q-13 6 -87 35q-9 7 -13 7q-7 -2 -8 -2q-53 36 -87 86q-11 12 -21 44q-8 4 -21 43 q-10 19 -10 29q0 5 1 14q-2 12 -2 15q2 15 2 25q0 4 -8 11q-5 39 -5 54v4q19 14 28 27q-3 3 -15 6q-2 0 -2 2v5q0 26 49 128q25 38 60 98q43 47 51 47q0 5 82 10q28 16 88 37q23 12 45 17v-1l2 1q2 0 2 -2v-13l5 -1q18 2 22 2h1q-4 15 -4 20q0 2 38 11q12 0 79 -1q4 5 9 5z " />
<glyph unicode="T" horiz-adv-x="1132" d="M193 1457q2 0 16 -8l4 -1q16 1 22 1l28 -7q6 0 50 1q44 -10 48 -10l39 9q8 0 8 -11q0 -6 8 -6q16 11 36 11q112 -2 142 -3q57 1 78 3q20 0 20 -13l1 -6h2q7 0 16 16q12 0 12 5q0 3 4 4q20 -9 32 -9h18q10 0 26 7q112 10 143 10q21 0 21 -7q1 0 1 -1q21 -2 30 -2h15 q8 0 27 9l4 1q13 0 17 -12q5 -19 22 -104q6 -29 21 -29q16 -7 16 -24q0 -10 -2 -42q0 -16 14 -46q7 -24 7 -31q-2 -8 -4 -8h-2q-53 55 -68 59q-70 36 -170 36l-55 8q-3 -1 -4 -1q-7 9 -9 9h-1q-13 0 -53 -38q-10 -10 -14 -10l1 -2q-8 -22 -11 -22l-5 1q-4 -19 -9 -88 q-8 -21 -8 -38q1 -39 1 -45q0 -10 -4 -10h-3q-1 -1 -3 -20q1 -48 1 -78q0 -13 -1 -40q0 -17 13 -17h11q2 0 2 -3q0 -7 -12 -13q-4 0 -7 -76q1 -3 1 -4h1q3 0 5 1q4 -1 4 -3v-13q-9 -9 -9 -31v-4q0 -3 -2 -3q0 2 -4 4v-1q0 -3 1 -9q-3 -21 -3 -31q0 -4 8 -11v-64q0 -5 8 -16 q1 -5 1 -9v-4q0 -12 -1 -40q-9 0 -9 -17q0 -26 10 -50v-5q0 -36 -1 -137q0 -2 1 -59q-2 -26 -2 -54q1 -9 1 -11l3 2q6 -13 6 -44l-1 -4h-7q-2 -14 -2 -23q0 -7 17 -11l2 -7q-2 -26 -2 -42q4 -17 31 -44q30 -18 41 -35q-2 -1 -3 -1q-67 10 -94 10h-26q-87 0 -87 14q0 4 -21 5 q-3 0 -29 -5h-9q-7 0 -7 -11l-3 -1h-4q-4 0 -30 -4h-2q-33 0 -88 -1q-4 0 -18 8h-63q-3 0 -3 4q6 13 27 23q13 11 28 44q19 20 19 51q3 11 14 27q8 30 8 63v1q0 5 -9 20v3q0 9 9 58q0 8 -14 25q-2 7 -2 12q7 28 7 36v4l-7 60q0 21 -2 60q2 9 5 9h2l8 -2q3 0 4 28 q-1 27 -1 54v1l-1 6q1 2 1 6q0 15 -10 100v12q0 6 26 12q0 1 1 1q0 6 -20 12q-9 6 -9 32q3 48 6 127q0 6 -3 16q1 13 1 22v8q0 5 -16 8q0 2 -2 5q26 39 26 46l-2 1h-1q-7 -6 -11 -6q-2 0 -2 2v5q0 5 7 17v5q0 84 -13 186q-8 18 -27 28l-44 16q-6 0 -22 1q-84 -1 -113 -1 q-20 9 -27 9h-5q-63 0 -101 -28q-51 -54 -68 -60q-4 -3 -6 -3l-2 11q0 38 22 118q6 20 21 29q6 0 20 124h2q42 0 116 -1q9 -1 14 -1v7q0 1 3 3z" />
<glyph unicode="U" horiz-adv-x="1355" d="M322 1436h2q17 -18 23 -18h3q11 0 48 15h4q17 0 65 1q50 -1 77 -1l1 -2q-15 -15 -35 -24q-39 -42 -39 -68q-6 -26 -11 -79q-6 -14 -6 -37v-73q0 -36 -12 -123q-4 -9 -18 -28l14 -20l10 -42q0 -26 1 -51q0 -103 -9 -134q-1 -8 -1 -12q8 -53 8 -65v-28q0 -24 7 -60v-12 q0 -1 -6 -3q0 -1 -1 -3q7 -52 24 -98q3 -12 7 -38q25 -4 25 -16q3 0 6 -49q5 -27 24 -46q25 -17 25 -38q6 -15 56 -33q13 -4 45 -30q7 0 12 1q14 -1 26 -1h5q10 0 10 -8l5 -1h22l10 -7h1q0 11 21 17q17 -2 20 -2q6 0 45 17q3 0 14 5l2 -1q33 13 46 29q10 16 30 16 q46 32 59 79q9 30 16 89q6 14 27 47q10 22 10 44q-2 30 -2 55v176q0 19 -8 73v220q0 23 2 83q0 12 -9 56q-1 10 -1 28v9q0 8 8 16v4q0 6 -13 18q-3 5 -3 8q0 7 1 18q0 27 -24 57q-52 52 -52 66l2 1h45q4 0 10 1q11 0 32 -9h41q2 0 20 -2h1q16 0 61 10h2q29 -8 36 -8h6 q3 0 17 7q6 1 13 1h121q2 -1 2 -2v-13q-15 -8 -23 -19q-43 -57 -45 -78v-4q2 -15 2 -16q0 -6 -23 -42q-5 -27 -5 -60q0 -77 11 -102q0 -3 1 -5l-9 -78l2 -71l-9 -46q1 -19 2 -93l-2 -31q1 -6 1 -9v-25q0 -44 -16 -87q0 -7 19 -26q5 -14 5 -28q0 -15 -1 -64h-1q0 -1 1 -1 q0 -4 -7 -30l-1 -5q1 -30 1 -53v-8q-10 -32 -38 -108q0 -3 -25 -39q-6 -7 -18 -61q-4 -21 -8 -21q0 -3 -12 -5h-22q-20 0 -30 -48q-10 -21 -80 -76q-32 -26 -87 -43q-96 -23 -130 -23q-44 2 -66 2q-12 0 -12 -11q-3 -4 -10 -4q-18 0 -117 25q-53 0 -60 12q-6 15 -36 25 q-88 27 -111 38q-39 16 -52 47q0 1 -4 11l2 2h3q40 0 46 7h-2q-52 0 -110 23q-64 106 -100 179l-36 83v4q0 6 7 26l-14 242v3q0 6 7 54q-25 14 -25 19q-2 10 -2 16v14l5 64q0 18 -3 44q0 14 18 80v4q0 8 -18 53q-5 6 -6 125q1 13 2 43q0 25 -8 25l-2 4q3 38 3 43 q0 26 -46 69q0 5 -33 18q-21 18 -21 30l2 1h153q5 0 12 -1q2 1 4 1q13 0 13 -8q20 -1 29 -1h4q13 0 33 10l10 -1q14 0 54 -1q3 0 8 4z" />
<glyph unicode="V" horiz-adv-x="1456" d="M183 1438q7 0 13 -9h1l-2 7l2 1q1 0 26 1q10 0 13 -9h2q3 0 7 8l13 1h3q66 0 66 -8q11 -10 30 -10h1q5 0 11 9q2 0 4 1l7 -1h4q3 0 15 7q6 1 11 1h98q2 0 4 1q2 -1 4 -1q8 0 30 -1l5 1l1 -2q0 -2 -32 -30q-26 -23 -26 -39v-13q0 -2 -1 -4q1 -12 3 -12l3 2h3l2 -7v-9 q0 -4 -2 -12q5 -17 40 -88q33 -73 33 -92q0 -23 12 -23q27 -64 62 -182q39 -103 58 -149q23 -44 45 -94q19 -17 19 -23q1 -54 18 -66h1q20 0 33 73q10 29 35 104q22 19 22 62q0 8 26 55q20 54 103 218q21 46 47 122q12 32 17 34q25 5 25 11q-18 27 -18 32q2 1 4 1l5 -1 q1 13 16 38v19l-1 7l-5 -1l-2 4v5q0 6 2 21q0 8 -32 26l-3 5h24l6 8h7q7 0 14 1q9 0 14 -8q2 -1 4 -1h12q56 -9 64 -9q9 1 15 1h41q15 0 30 -17l5 -1q3 0 25 2q2 -1 3 -1v22q1 3 3 3h58l39 8h2q21 -3 31 -9v-14q-47 -41 -55 -60q-12 -27 -41 -56q-44 -30 -64 -89 q-18 -43 -27 -87q0 -2 -26 -46l-29 -72q-27 -42 -32 -64q-6 -33 -20 -33q-21 -6 -21 -11q-15 -56 -42 -119q-18 -49 -24 -51q-17 -10 -17 -23v-1q3 -15 3 -16q0 -14 -85 -176q-10 -37 -18 -41q-5 -7 -7 -17q9 -11 9 -14l-2 -1q-1 0 -3 1q-14 -2 -24 -2q-2 1 -3 1v-8 q10 -8 10 -18v-7q0 -14 -33 -77q-67 -169 -111 -272q-20 -42 -32 -55q-58 38 -67 74q-9 26 -43 73q-5 10 -5 14v2q0 5 17 30v2q-6 7 -17 27q-29 8 -29 13l-2 8q7 3 7 11q0 16 -18 24q-11 22 -30 85q-42 98 -126 257q-9 21 -19 52q-31 35 -35 56q-5 11 -13 22q0 3 2 3 q4 0 21 -10h1q-14 60 -28 60q-13 14 -39 84q-16 26 -16 41q0 3 1 5q-3 14 -31 63v1q0 3 7 4v2q-9 31 -28 49q-37 51 -54 96q-38 96 -105 191q-26 36 -73 69q-3 1 -45 28v1h69q6 0 15 -7q4 -1 8 -1q1 8 4 8h1q4 0 41 -8q3 0 24 8q7 0 21 1z" />
<glyph unicode="W" horiz-adv-x="1995" d="M1645 1447q10 0 14 -9q2 -1 5 -1h9q61 -8 68 -8l7 1h47q15 0 30 -17l5 -1q3 0 25 2q2 -1 3 -1v22q0 2 2 2h58l39 9h2q7 0 31 -9v-15q-48 -40 -56 -61q-11 -27 -44 -56t-43 -49q-37 -81 -40 -113q0 -9 -32 -60q-23 -73 -44 -97q-7 -11 -20 -58q-5 -9 -29 -15q-6 0 -10 -23 q-12 -38 -42 -110q-14 -45 -24 -45q-12 -10 -12 -17v-4q3 -14 3 -18q0 -10 -82 -168q-13 -43 -24 -50l-3 -12q8 -11 8 -14l-2 -1q-2 0 -2 1q-14 -3 -25 -3q-2 2 -3 2v-8q11 -9 11 -18v-7q0 -14 -33 -77q-65 -163 -111 -270q-15 -33 -32 -55q-54 35 -65 71q-10 28 -46 77 q-3 8 -3 12q0 7 15 31q1 2 1 3q-4 5 -16 27q-29 8 -29 13l-2 7q7 4 7 13q0 14 -13 20q-13 8 -30 77q-48 113 -104 214q-40 -73 -48 -104q-15 -17 -15 -28q9 -10 9 -14l-2 -1q-2 0 -2 1q-15 -2 -25 -2q-2 1 -3 1v-7q11 -9 11 -18v-7q0 -14 -34 -77q-64 -163 -110 -270 q-15 -33 -32 -55q-55 35 -66 71q-9 28 -45 77q-3 8 -3 12q0 7 15 31q1 2 1 3q-5 5 -16 27q-29 7 -29 13l-2 7q6 4 6 13q0 14 -17 23q-11 22 -30 84q-41 97 -125 256q-9 19 -20 52q-30 33 -34 56q-9 16 -13 22q0 2 2 2q4 0 21 -10h1q-14 60 -28 60q-14 14 -39 84 q-16 25 -16 41q0 2 1 4q-9 27 -31 62v2q0 2 8 3v3q-9 30 -37 60q-23 29 -61 122q-34 76 -94 160q-38 43 -57 53l-55 36v1h69q5 0 15 -8q4 -1 7 -1q2 9 4 9h2q4 0 40 -9q4 0 24 9q7 0 21 1q7 0 13 -10q2 0 2 2q-2 0 -3 6l2 1q1 0 26 1q10 0 13 -10h2q2 0 6 9l13 1h6 q63 0 63 -9q11 -9 29 -9h3q4 0 10 8q2 0 4 1l7 -1h4q3 0 15 8q4 1 8 1h96q4 0 10 1q0 -1 31 -2l6 1l1 -2q0 -2 -29 -27q-29 -27 -29 -40q0 -17 -1 -19q1 -12 3 -12l4 2h3l1 -7v-11q0 -4 -1 -10q5 -17 34 -77q38 -80 38 -103q0 -20 10 -20q7 -6 38 -103h-2q-15 -2 -15 -13 q2 -13 15 -20q6 -3 14 -23h3l2 1q54 -152 87 -214q23 -54 29 -59q15 -5 15 -30q0 -32 15 -51q1 0 3 -1q20 0 32 73q11 27 35 101q22 23 22 61q0 12 24 54q1 1 1 4v11q8 0 13 19q34 19 34 51q0 3 -1 12q0 5 7 28q1 7 1 12l-1 2q16 26 16 36q7 7 12 32q20 13 28 38q7 9 12 32 q11 3 11 11v26q0 1 11 7q9 35 11 36q12 0 18 22h1q23 -17 28 -32l12 -30v-11l9 -38q0 -16 9 -24v-10q6 -28 15 -42q0 -7 15 -28q0 -21 22 -42q0 -10 13 -27v-1q-9 -19 -14 -35q45 -125 76 -188q25 -54 29 -60q17 -8 17 -32q0 -32 15 -51q1 0 4 -1q19 0 32 73q10 27 34 101 q22 22 22 55q0 18 22 55q31 76 106 223q23 48 44 115q15 39 20 41q25 8 25 13q-17 27 -17 31v1h1l8 -1q1 13 16 39v20l-1 5l-6 -1l-2 3v6q0 6 2 21q0 8 -31 26l-3 4h24l6 9h6q7 0 14 1z" />
<glyph unicode="X" horiz-adv-x="1478" d="M94 1438h1l34 -5q72 3 77 3q8 0 26 -19h8l5 2v2l-10 11v1q58 3 79 3h1q112 -2 112 -6v-1q0 -2 -9 -10v-2h10q6 0 13 11q10 6 42 6h32q24 0 77 -1l1 -2v-1q-2 -4 -14 -8q-1 -2 -1 -3q2 -7 2 -10q0 -5 -3 -30q0 -1 1 -9q-1 -17 -1 -25t10 -24q10 -44 33 -60q30 -37 56 -88 q16 -25 28 -25q13 -7 30 -64q4 -28 38 -69l2 1h3q5 -3 5 -5q13 6 51 86q20 39 97 121q4 4 8 4h2q18 -2 20 -2l6 3q-4 9 -4 19v2q0 43 16 59q3 10 3 12q-1 32 -1 42h1q-5 19 -28 47q-12 13 -17 28q20 4 49 4h12q66 -3 74 -3h28q7 0 13 -14q9 -3 24 -3h3q10 0 16 14l3 2h74 q43 0 69 6h4l109 -5l1 -2v-12q-1 -2 -26 -12q-30 -13 -108 -88q-40 -45 -72 -75q-47 -92 -65 -113q-62 -70 -87 -117q-10 -22 -49 -61q-36 -30 -36 -62q-8 -16 -44 -69q-6 -12 -6 -18q33 -30 51 -62q71 -97 71 -111v-6q-7 -24 -7 -29v-2q2 -20 17 -20q14 0 21 -13 q35 -25 35 -37q15 -52 26 -73q32 -38 45 -58q76 -133 172 -279q49 -57 75 -69q28 -20 40 -30q18 -22 21 -32h9v-2h-7q-41 0 -46 9q-10 8 -23 8q-76 -1 -111 -1q-6 0 -19 12q-10 5 -27 5h-1q-51 0 -51 -4q0 -14 -15 -14q-52 0 -52 8q-4 9 -17 9q-6 -1 -6 -3t2 -10 q-4 -3 -9 -3q-60 -2 -73 -2q-23 0 -62 15q-17 4 -29 4q-35 -1 -44 -1l-1 2v13q20 24 20 56v7q0 23 -14 74q0 26 -26 52q-30 53 -77 142q-24 34 -95 127q-2 3 -2 5h-1q-4 0 -26 -15q-2 0 -10 -9q-5 -1 -39 -44q-45 -53 -90 -135l-62 -109q-18 -45 -18 -68l9 -58v-26 q0 -14 -4 -14h-26q-12 14 -14 14q-17 -1 -26 -1q-15 3 -25 3q-61 0 -61 -10q-6 -6 -7 -6h-4q-11 0 -16 11q0 4 -43 4h-9q-12 0 -30 -13q-3 -2 -8 -2q-8 0 -43 14h-2v-1l3 -10v-3h-115q-17 0 -46 -15q-2 -1 -4 -1l-1 2q0 4 14 25q0 5 28 23q50 46 65 51q21 13 49 41 q77 77 84 94q32 48 77 129q13 17 59 54q11 9 42 76q15 24 24 24h3l15 -2q8 0 10 14v4q0 4 -9 21l-1 4q1 18 88 120q6 10 29 39q7 13 7 21q0 18 -40 58l-40 61q-7 42 -16 42q-10 4 -40 11q-24 64 -113 173q-25 34 -97 142q-42 40 -43 43v2h1l15 -5v1q-28 57 -40 74 q-15 4 -18 13q-33 50 -58 76q-1 0 -3 1q0 4 7 9z" />
<glyph unicode="Y" horiz-adv-x="1511" d="M0 1457h10q38 0 43 -9q11 -8 21 -8q75 1 113 1q5 0 -19 -13q9 -4 27 -4q49 0 49 5q0 13 16 13q51 0 82 -3q-27 -14 18.5 -5t54.5 9q20 0 65 -16q15 -3 24 -3q36 1 45 1l1 -2v-10q0 -2 -14 -25q-6 -20 -6 -33v-7q0 -23 14 -74q0 -27 26 -52q31 -56 77 -143 q14 -21 105 -136q2 -3 2 -5h1q13 -29 25 -7q25 32 41 41q5 1 32 37q52 60 102 151q14 27 56 99q18 45 28 79q-9 49 -9 69v14q0 14 4 14h26q12 -14 14 -14q17 1 26 1q15 -3 24 -3q62 0 62 10q6 6 7 6h4q11 0 15 -11q0 -4 43 -4h9q13 0 30 13q4 2 8 2q8 0 43 -14h2v1l-4 12 l2 1h116q14 0 46 16h2l1 -2q0 -3 -14 -25q0 -5 -28 -22q-50 -46 -61 -50q-18 -7 -107 -97q-48 -53 -81 -117q-34 -63 -48 -77q-63 -45 -72 -82q-27 -56 -40 -56h-3l-15 2q-8 0 -10 -13v-4q0 -4 10 -25v-1q-1 -17 -77 -107q-20 -30 -42 -48q-11 -10 -11 -23q1 -9 1 -10 q0 -9 -10 -22q-2 -5 -4 -25q-11 -13 -11 -27v-11q0 -3 -1 -4q9 -16 9 -20v-92q-4 -11 -4 -14v-74q0 -6 -1 -16q0 -2 17 -21v-11l-5 -14q2 -15 2 -17q-1 -2 -1 -3q2 -13 9 -29v-87q0 -30 2 -37l-1 -2q1 -11 2 -12q0 -2 -1 -2q9 -71 25 -83q9 -12 44 -35q20 -21 21 -35 q-1 0 -1 -1q-74 5 -110 6l-2 -1l-6 1h-14q-7 0 -14 -1q-15 0 -15 8q-5 5 -12 5h-14q-16 0 -25 -12l-9 -5l-36 3q-1 0 -1 -1l-7 1h-14q-1 0 -1 1l-5 -4h-9q-13 0 -15 5h-8l-21 -3q0 7 -27 11h-3q-9 0 -35 -9q-12 1 -20 1q-7 -3 -9 -3q-8 0 -83 8l-1 2l41 31q31 33 34 51 q0 2 8 30q1 5 1 13v29q0 2 1 4l-1 2q10 92 15 213l-1 6q0 10 9 20l1 5q0 11 -17 22v4q0 5 8 10q5 6 5 17v10q0 6 -1 16l1 2q-1 2 -1 4q0 1 1 1q0 1 -1 3q1 18 1 27l-13 15q-2 4 -2 6q17 25 17 72v11q0 1 1 1l-1 3v11l-1 6l1 2q-2 16 -23 39q0 2 -13 19q0 8 -37 21q1 5 1 8 q0 15 -28 54q-24 14 -36 27q3 9 3 15v2q-3 21 -16 21q-17 0 -17 14q0 21 -36 56q-20 25 -25 43q-8 16 -42 53q-85 148 -178 291q-43 51 -78 74q-46 24 -59 58h-9v2z" />
<glyph unicode="Z" horiz-adv-x="1417" d="M197 1456q5 0 37 -14h9q7 6 16 6q32 -12 61 -12h5l8 -5l1 2q0 1 -3 9l3 1h2q9 0 106 -14q6 -1 22 -1h10q44 0 66 8h36q29 4 37 4h14q28 0 56 -1q62 6 71 6q20 -2 40 -2h39q2 0 2 -2q0 -3 -23 -9l-4 -4h2q9 0 21 -1q70 4 93 4h48q1 12 4 12h82q10 -11 17 -11q23 5 26 5 q16 -1 28 -1h3l141 7q7 0 41 -9h1l38 2q0 2 9 4h4q7 -9 12 -9h16l12 5h13l2 -2q-8 -23 -35 -57q-6 -10 -6 -16v-24q0 -6 -36 -50q-31 -41 -58 -88v-2q0 -11 -2 -27q2 -2 2 -3q-24 -18 -54 -79q-31 -49 -88 -146q-25 -39 -32 -39q-25 -3 -25 -5v-1q13 -17 13 -19q0 -1 -1 -5 q1 -4 1 -7q-11 -6 -27 -40q-5 -3 -7 -3q-10 1 -12 1v-28q-41 -47 -82 -122q-12 -19 -19 -67q-7 -20 -35 -20q-12 0 -21 -18q-51 -68 -69 -95q0 -9 17 -17l3 -8q-23 -14 -36 -47q-10 -24 -94 -118q-12 -17 -23 -37q3 0 7 -3h5q68 3 68 6q7 0 21 -3q17 2 32 2h5q16 0 96 -9h2 q6 0 35 4q37 -4 43 -4h31q4 0 8 -17q6 0 42 21q13 1 19 1h12l79 -4h2q15 0 48 11q35 4 46 13q4 1 63 62h4q0 -2 2 -2l-1 -14v-3q0 -3 2 -10q0 -21 -19 -83q1 -27 1 -43v-4q0 -3 -20 -5q-13 -7 -13 -51q0 -3 -18 -62q-4 -33 -6 -33h-1q-48 8 -53 8l-81 -9q-57 0 -75 20l-3 1 q0 -2 -7 -8h-13q-14 0 -14 -1q-13 1 -22 1h-72q-14 12 -18 12h-7q-21 -10 -31 -10q-34 0 -90 10q-13 0 -71 -9h-62q-4 0 -28 12q-7 1 -16 1h-2q-65 -4 -75 -4h-4q-10 0 -14 -4h-6q-3 0 -22 12h-5l-56 -8l-127 -4q-25 -5 -63 -9q-19 -9 -36 -12q-4 0 -20 1q-63 -9 -122 -14 q-4 -3 -11 -3q-25 0 -64 10v2q62 29 84 47q25 24 56 24h7q2 17 6 17q20 2 44 25q50 40 104 106l6 1h31q1 0 1 -1q2 1 5 1q-3 4 -24 19v1q50 37 70 58l43 56q51 67 76 119q8 16 8 22q-8 12 -12 20q12 4 25 17q21 32 50 95q35 45 36 52q-11 15 -11 20v1q42 39 61 71 q0 22 37 87q14 38 25 38q2 -1 4 -1h3q9 9 35 69q28 51 64 103q24 49 35 49q7 0 12 28q4 15 13 21q17 14 61 73q3 1 15 19h-1q-45 -24 -54 -24q-3 9 -16 9q-52 -1 -55 -2q-15 0 -21 11v2q5 17 5 22v3h-2q-5 0 -19 -36l-5 -4h-4q-9 12 -22 12h-2q-11 -9 -16 -9h-9q-25 9 -55 9 q-63 0 -151 -19q-10 -7 -19 -7q-21 1 -26 1q-12 -2 -53 -23q-5 -5 -14 -26q-6 -3 -11 -3q-4 0 -26 38l-73 87q-64 80 -91 109q-27 25 -33 34v3z" />
<glyph unicode="\" horiz-adv-x="569" d="M-111 1431l4 1q24 10 70 4q89 -13 99 -9l2 1q3 1 4 4h1l2 -1q49 -78 66 -117q5 -12 9 -20q20 -37 41 -82l6 -12q4 -9 7 -16q6 -35 9 -43l3 -7q4 -9 8 -15q23 -27 26 -34q15 -32 81 -178q21 -44 27 -55q16 -43 19 -50l6 -11q1 -3 4 -9q8 -22 13 -32l3 -6q2 -4 11 -11 q25 -21 32 -36q12 -25 28 -68l6 -11q9 -22 13 -31q32 -55 51 -96l3 -6q16 -35 42 -94q14 -26 22 -42q34 -61 41 -76l3 -8q29 -77 33 -85q6 -13 20 -40q18 -42 27 -61l2 -4l23 -46l7 -16q7 -14 18 -30q0 -2 -1 -2q-12 -1 -33 10q-33 -2 -46 0q-20 14 -27 11q-7 -4 -8 -5h-3 q-12 3 -19 3q-3 -3 -6 -5q-3 -1 -4 1q-13 2 -65 -7q-12 -1 -18 12q-11 34 -13 37q-3 6 -7 9v2v2q16 16 12 23q-23 39 -25 44q-1 2 -2 1h-1l-3 -11h-1q-2 -1 -8 11l-2 4q-6 13 -12 29q-16 33 -19 40q-45 104 -50 114q-9 20 -14 29l-6 15l-12 24q-9 20 -20 43l-4 9 q-49 99 -92 179q-40 83 -49 100q-6 12 -12 26q-7 13 -36 73q-2 5 -14 32q-9 19 -14 28q-1 4 -5 13l-48 92q-27 80 -38 103q-23 38 -25 41l-4 9q-4 10 -10 20q-13 36 -57 137q-4 7 -9 17l-7 16q-12 25 -16 42l-2 3q-2 4 -11 13q-39 37 -44 45q-3 5 18 16z" />
<glyph unicode="^" horiz-adv-x="1014" d="M341 1221q0 7 1 17q3 24 6 39q7 14 7 16l-1 5v1q0 4 5 15q10 20 22 35q7 9 27 28h1v-1l2 -9h1q1 1 10 19q0 3 12 11q23 16 45 25q41 17 69 17q26 0 72 -15q6 -1 29 -15q5 -3 21 -6q10 -3 17 -14q8 -13 16 -23q19 -15 19 -21l-1 -2q-4 -7 -4 -8q1 -3 2 -3v0q5 3 6 3v0 q2 -1 7 -12q27 -54 27 -100v-15q0 -8 -5 -8q-18 1 -21 1q-2 0 -14 -1l-1 1q-1 2 -4 14q-7 18 -15 32q-6 9 -7 16q-4 17 -6 17v0v0q-3 -9 -4 -9v0q-14 14 -21 18q-25 14 -33 19q-7 5 -8 9q-3 12 -8 12h-2q-1 0 -10 -1h-2t-3 -4q-1 -13 -6 -13q-2 0 -10 5q-23 4 -42 4h-2h-2 h-2h-3q-11 0 -34 -2q-30 0 -38 -7q-4 -2 -8 -12q-3 -9 -7 -11h-1q-1 0 -3 1q-9 7 -11 7h-1q-2 -2 -2 -4v-1q2 -5 3 -8v0q0 -5 -13 -10q-8 -4 -11 -7q-9 -22 -9 -47q0 -5 1 -16v-1q0 -2 -3 -2v0q-20 1 -25 1q-11 -2 -13 -2h-2q-10 0 -10 22z" />
<glyph unicode="_" horiz-adv-x="1024" d="M926 -408q-17 6 -82 11t-85 3h-12l-43 -4q36 4 27 0t-72 -1l-52 2h-8q-5 -1 -16 0q-16 -1 -18 -1q-35 -1 -42 0q-8 -1 -15 -1q-10 1 -57 1q-46 2 -103 2h-5h-24h-14l-9 -1h-16q-6 0 -67 -3h-22q-10 -1 -17 -1h-2q-7 -1 -7 1v0l7 5l1 1q0 1 -1 0q-3 0 -25 3q-4 0 2 -17 l-18 2l-23 -6q-18 -3 -6 20q-2 16 1.5 20t2.5 12l1 1q1 3 3 5q0 4 -1 10q0 1 1 2q0 1 3 6t-4 13q-1 6 3 26q-5 9 -3 16q0 1 1 1q9 -1 17 -1h9h26h3q10 0 35 1h23q4 0 49 5h5q8 0 43 -2q9 0 24 -1q34 2 54 2h3q24 1 55 -2q5 0 18 1l6 -1q25 3 40 4q9 0 19 -9q4 -3 6 -3h3 q6 0 19 2q3 -1 5 -1l6 1q4 0 30 2h31q84 3 102 3q4 1 57 1q4 1 10 1h7q25 1 46 -1q5 1 12 1q22 1 66 -5v-1v-1q-1 -1 -2 -3l-1 -2q-3 -7 -2 -54q-13 -19 -8 -42l-1 -2q-8 -15 1 -21z" />
<glyph unicode="`" horiz-adv-x="1024" d="M410 1260q-2 5 14 26q5 7 2 14q0 2 -1 4q-2 3 1 11q3 12 5 27q1 3 0 4v1q0 1 -4 5l-4 6l-3 11q9 5 13 9q3 3 2 5v0q0 1 -4 8q0 3 3 5v0q5 1 13 -7q9 -13 23 -25q37 -34 40 -37l18 -10q6 -4 13 -15l10 -11q15 -19 28 -28q17 -12 19 -17q3 -3 10 -16q2 -3 9 -8q4 -3 8 -5 q7 -2 9 -3q6 -4 7 -8v0q2 -4 -4 -16q-5 -12 -4 -15q0 -5 -1 -6q0 -2 -2 -2q-7 -3 -25 3q-9 4 -18 12q-5 4 -17 9q-8 3 -27 8q-23 9 -50 17q-19 6 -38 14q-17 8 -22 12q-6 5 -21 15q-2 2 -2 3z" />
<glyph unicode="a" horiz-adv-x="1322" d="M677 1301h11q8 -8 36 -61q5 -26 27 -54q0 -7 29 -37q8 -15 23 -89q9 -26 33 -86q13 -20 16 -30q-1 -8 -8 -8h-9q-1 0 -3 -4q12 -57 17 -57h2q0 4 12 5q0 2 4 3q4 -16 19 -47q10 -44 20 -44q7 0 13 -8q22 -7 22 -16q5 -11 13 -74q0 -20 10 -36q2 -13 30 -59 q47 -84 47 -117q1 -40 5 -40h1q3 7 5 7h2q0 -8 55 -72q32 -58 43 -83q-5 3 -8 3q-6 -1 -6 -8v-6q0 -24 39 -74q12 -18 27 -55q39 -66 52 -79q6 0 33 -47l40 -38l4 -5l-3 -1h-2l-73 8h-7q-31 -2 -33 -2h-4q-13 0 -30 21q-8 3 -12 4q-18 -8 -29 -8q-25 0 -70 1q-2 0 -14 -1 q-8 1 -24 1h-7q-7 -1 -7 -8h-5h-113q-2 0 -2 1q18 55 18 72v3q0 19 -20 78q-27 40 -41 73q-23 57 -28 59q-6 0 -23 16h-8l-38 -8q-48 8 -55 8h-6q-6 0 -16 -13q-4 -3 -42 -10h-4q-2 0 -2 2t4 20v1q-9 1 -22 1q-62 0 -75 -6q-3 -1 -13 -3q-5 0 -35 8h-24q-15 0 -15 -7 q-7 -7 -19 -28q-23 -17 -23 -36q-14 -76 -21 -76q-15 0 -27 -82v-10q0 -14 8 -14q0 -2 13 -11q4 -5 11 -38h-2h-37q-25 0 -64 -1q-5 1 -14 1l-1 1q0 3 2 6l-2 1h-10q-17 0 -17 -5q0 -4 -13 -4h-19q-37 0 -37 3q1 7 1 11q-5 4 -28 9q-10 -22 -34 -22h-29q-10 0 -24 -8h-65 q-2 0 -2 2q54 41 61 49l30 64q4 6 17 14q17 41 37 65q20 14 20 25l57 131q2 0 4 -1q21 12 21 22v9v2q2 9 2 12v1l-4 6q0 7 41 63q5 11 19 47q18 11 19 13q3 5 3 10h-1q-3 -2 -6 -2q-1 2 -1 3q0 16 54 119q17 31 60 74l-12 12q18 59 35 86q10 20 62 109q12 20 24 74 q22 66 31 66h5h2q3 7 3 11v2q-4 5 -4 7q4 10 7 38q0 8 28 12l6 1l-8 47q0 3 20 24q7 16 29 76q8 16 16 16zM633 765q-24 -60 -33 -65q-7 -13 -25 -70q-3 -7 -11 -7q-7 -12 -19 -62q-31 -81 -31 -98q-1 0 -3 -6q12 2 32 2h22q36 0 52 -8h3l63 6q14 -14 24 -15h6q4 8 28 14h1 q-19 67 -29 123q0 10 -16 22q-4 14 -26 94q-15 39 -37 70h-1z" />
<glyph unicode="b" horiz-adv-x="1061" d="M248 1305h7q7 0 10 -5q4 0 4 -1q9 1 11 2l13 -2l50 4h11q9 0 115 -12h1q7 0 35 8l8 1q38 -3 46 -3q5 -12 28 -12q7 -4 29 -8q0 -3 42 -4l7 3q32 -3 38 -3h2q17 -26 39 -26q32 -8 46 -8q10 -4 31 -37q5 0 30 -29q7 -9 45 -66q24 -25 24 -43q-1 -9 -1 -12q0 -6 22 -37 q10 -10 10 -70q1 -10 1 -38q0 -1 -1 -3q0 -1 1 -1l-5 -69q1 -2 1 -3q-23 -10 -28 -22l8 -35v-1q-22 -30 -30 -39q58 -58 82 -106q74 -132 74 -240q0 -55 -22 -83q-25 -37 -25 -59l2 -30q0 -24 -13 -30q-7 -6 -49 -57q-17 -16 -45 -51q-9 0 -25 -12h-4q-3 0 -13 16q-1 1 -4 1 q-6 0 -16 -3q13 -12 13 -16q-3 -19 -14 -19q-7 -7 -26 -15h-1q-24 1 -39 1q-11 0 -32 -10q-5 -2 -14 -2q-20 2 -30 2q-28 0 -77 -11q-13 1 -41 2q-19 0 -19 -10l-3 -2h-6q-5 0 -33 13q-7 1 -16 1h-25h-8h-4q-17 -2 -80 -2h-1q-58 4 -96 4h-62q-5 0 -17 13q-3 2 -15 3 q-3 0 -16 -16q-6 0 -46 15h-6q-25 0 -25 -10q0 -7 -39 -7l-61 -1l-1 1q10 37 41 58q15 15 25 34q10 14 10 25l-1 4v7q0 10 14 30q0 1 1 6q-2 2 -12 2v2q0 59 8 59q9 0 9 7v17q4 51 9 295h1l-1 2v3q0 2 1 8q0 1 -1 1l1 6v11l13 12q13 18 13 23q-2 2 -24 3l-3 3q4 77 4 168v40 q0 11 1 34q-6 6 -12 27v2q0 1 8 4q4 5 4 12q0 8 -1 18q2 15 2 21q-1 68 -1 85q0 2 -12 7q-1 4 -1 7q1 58 1 73v8v15q1 12 1 24q0 24 -33 73q-9 7 -30 27q-12 10 -12 16l1 1q4 0 80 -7q9 1 19 1q3 -13 10 -13h6q10 0 22 23q8 -12 51 -12h15q12 19 21 19zM497 1119 q-33 2 -39 2h-13q1 -17 -59 -25v-25q0 -39 -2 -39q0 -5 -9 -63q-4 -34 -4 -54q0 -8 12 -60q1 -3 1 -12v-14q0 -16 1 -41q0 -10 -12 -24q0 -9 -10 -12q-1 0 -3 -2q-2 -27 -2 -34q1 -12 5 -12h1l7 5l1 -3v-66q0 -34 1 -91q0 -15 -9 -19v-25q-2 -8 -2 -9q3 -3 23 -11q1 -1 1 -2 q-2 -6 -2 -9v-38q0 -9 1 -17q0 -46 -8 -46h-6v-18q0 -7 6 -26v-74q0 -30 2 -56h5q1 0 1 -1q2 1 3 1q67 0 86 -12q17 -4 34 -4h27q19 0 55 -1l2 -1q2 1 4 1h3q13 0 33 7q15 0 30 12q9 6 40 20q25 21 38 42q24 15 24 38q4 7 4 17q0 2 -3 13q6 3 14 24q6 8 6 21l-1 4 q26 15 26 31v8q-4 17 -7 17q1 9 1 13v7q0 9 -4 19q0 3 1 12l-1 11l1 6q-1 13 -1 16l1 4q-5 34 -15 45q-1 0 -1 1q1 5 1 7q0 26 -26 36q-4 2 -8 2h-1q-7 0 -17 -1q-8 3 -29 7h-6q-8 0 -21 -6q-12 0 -26 -14q-15 1 -19 1q-3 0 -27 -11q-11 6 -54 8q-10 0 -21 15q-17 15 -19 15 q-10 2 -24 16q0 6 -21 22q-2 7 -7 12v1l4 18q-5 27 -5 31v1q11 11 11 36q15 33 23 33q29 6 37 12q9 -1 14 -1q16 4 25 4l1 -2v-13q-15 -12 -25 -36q-2 0 -2 -11q3 -1 12 -19q16 -20 34 -20q10 0 20 6q2 0 16 -2h5q27 4 29 9q5 9 7 9l12 -3q4 0 12 20q20 0 28 26q0 4 3 4h7 q2 4 2 12v3q9 9 13 26q5 7 5 35q-3 74 -7 74q0 10 -8 24l-18 49q-1 0 -11 20l-11 18q-10 15 -19 22q-9 15 -36 26q-14 6 -37 10q-1 0 -13 14q-4 0 -31 9q-27 4 -48 4q-2 0 -6 -9h-6z" />
<glyph unicode="c" horiz-adv-x="1043" d="M684 1308l16 -1q13 -1 13 -5q0 -5 9 -6q47 -3 74 -5l26 -2h26q45 -6 45 -8q3 -24 7 -25h1q20 -1 42 15q45 -13 69 -24q17 -13 20 -18v-23q0 -38 -1 -98q0 -6 10 -13l1 -4q0 -10 -1 -21q1 -16 1 -33q-1 -6 -4 -6q-4 3 -6 3l-1 -2q1 -25 1 -34l-2 -1q-69 71 -94 75 q-25 13 -90 31q-16 6 -21 14q-20 1 -20 9q-5 4 -7 4h-17l-8 1v-1q2 -3 2 -6q0 -2 -2 -2l-53 4q0 -7 -9 -7q-26 5 -26 9l2 6q0 5 -15 6h-23l-5 1q-5 0 -7 -12q0 -5 -32 -12l-2 -3v-1l2 -3v-2q-9 -2 -10 -2q-8 1 -25 12l-6 1q-8 0 -16 -8q-64 -27 -98 -92q-16 -30 -54 -71 l-5 -3q0 1 -1 1q7 30 16 29q2 5 2 16q0 2 -1 15q-5 -3 -30 -39q-22 -35 -22 -44q-16 -80 -18 -87q-21 -22 -26 -26q-1 -1 -1 -4v-6q0 -3 1 -8q-2 -4 -4 -4h-1l-4 1v-44q0 -2 -9 -4l-1 -7v-25q0 -22 10 -23q9 -7 9 -16q-2 -21 -2 -28q1 -5 3 -5l3 3h2q2 -1 2 -2v-14 q0 -8 -8 -11q-4 1 -4 -7q0 -14 30 -112q5 -20 18 -49v-1q0 -34 17 -54q12 -20 52 -62q10 -7 22 -30q20 -20 20 -30q5 -7 6 -7t5 2q35 -19 46 -27l27 -24q24 -3 38 -4q22 -2 22 7q4 1 6 1q31 -5 75 -31l7 -1q6 -1 16 7h6h2q1 0 1 -2v-5q7 -3 11 -3l11 -1q2 0 2 -2l5 2l26 -2 q3 0 107 34q6 3 16 17q3 2 8 3q7 -2 18 -3h1q9 0 11 8q18 9 24 8h3q3 0 13 -10l15 -1l2 1l-1 1v6q0 5 -1 10q0 13 20 25q0 1 43 40h1v-1q0 -10 2 -29q-1 -25 -1 -42q0 -3 -9 -29q0 -3 -1 -8q0 -4 10 -26q0 -2 -9 -13q-1 -2 -1 -5v-76q-2 -5 -43 -19q-14 -7 -118 -52 q-60 -1 -134 -8q-5 -17 -8 -17q-8 12 -15 12l-2 1q-12 0 -16 -9q-3 -2 -11 -1h-3q-30 4 -33 4h-1q-8 1 -25 -7h-8l-11 1q-5 0 -50 15q-182 48 -210 61q0 5 -18 7q-5 -1 -7 0q-95 104 -105 105l-2 -2q23 -37 36 -59l1 -4l-2 -1q-13 2 -69 75q-14 24 -30 62q-3 4 -38 21 q-23 24 -31 49q-50 109 -50 117q0 37 -13 38q-7 4 -11 21q-7 29 -7 39q1 17 1 21t-9 12q-1 2 -1 4v4q2 28 2 29l-2 16q0 5 10 21v9q0 5 -9 31v4q9 7 9 11q0 6 -1 25h-2l-5 -5l-1 2q-2 35 -2 47q1 10 4 9h2l11 -4h2l1 4v2q0 3 -10 4q-1 6 -1 8q0 26 24 54q6 11 6 28t-2 48 q2 23 50 75l29 46q24 27 126 136l26 -2q46 40 102 72q31 16 44 15v0q1 0 3 -3l-1 -4l18 -4q5 0 5 2v2q0 5 -1 14l4 2q2 -2 4 -2h1l-1 5v2q0 3 29 6q0 1 9 3v4l-1 3q0 1 4 2q20 -2 32 -3l7 -1q5 0 16 8l5 -1l7 -9l6 -1h7q22 -2 31 8q7 6 12 9q13 -2 18 -2q7 3 12 7 q24 -1 39 -2z" />
<glyph unicode="d" horiz-adv-x="1156" d="M2 1310h13q43 0 99 -1q10 1 20 1q2 -2 3 -13q5 -4 14 -4q31 0 35 9q6 8 16 8h183q12 0 12 -15l7 -1q31 9 36 9q32 -1 41 -1q60 2 70 2q32 0 61 -15q11 -4 22 -4q4 0 28 2q15 0 80 -32q94 -37 99 -43l3 -3v-2q-9 -5 -16 -31v-3q8 -4 8 -6v-15q2 -1 3 -1q11 0 17 18 q13 18 22 24h1l12 -3q2 1 5 1h2q2 0 2 -2q-2 -12 -2 -16q0 -12 54 -48q37 -21 58 -65q18 -29 25 -35l3 2h1q13 -8 20 -20q23 -10 23 -18v-1q0 -3 -2 -14q0 -6 22 -39q22 -37 33 -118q0 -8 19 -41q5 -12 5 -27v-1q0 -2 -8 -17v-2q0 -10 1 -23q-1 -14 -1 -22q0 -9 7 -17 q1 -19 1 -28v-58l-7 -26v-26h-4q0 3 -9 10h-3l-1 -12v-10q0 -6 9 -18q1 -6 1 -12q0 -11 -27 -41q-5 -7 -16 -57q-4 -10 -16 -57q-10 -23 -80 -107q-8 -13 -32 -18q-33 -10 -33 -17q-22 -18 -37 -48q0 -8 -35 -16q-58 -25 -78 -42q-17 -11 -66 -29h-6q-6 0 -16 8h-5 q-16 0 -31 -21q-1 0 -3 -3h-2q-9 0 -9 14q-4 2 -7 2q-22 0 -43 -29q-12 -10 -79 -10q-16 0 -77 -16h-1q-63 12 -81 12q-34 0 -66 11q-4 1 -9 1h-4q-15 0 -36 1q-8 0 -31 -19q0 -4 -3 -6h-2q-4 0 -12 6q-4 2 -8 2h-60q-12 0 -56 -8h-1q-5 0 -23 7q-6 1 -12 1h-26v2 q51 52 51 62q13 23 18 69q4 9 17 33q2 10 2 15q0 11 -2 55q1 28 1 47q0 15 -15 28l-1 5v4q0 3 8 12q-1 99 -1 140q0 9 -2 28q0 5 18 23q1 7 1 11v85q0 7 -9 27v2q0 3 9 22q-1 11 -1 20v5q0 9 8 22v9q0 14 -12 23q-11 15 -11 36q-1 0 -1 1l1 6q0 2 -3 54q0 8 10 44q0 16 1 45 q0 20 -14 35q-2 5 -4 18l2 6v30q0 6 -9 17v1q0 19 2 127q0 21 -7 21q-3 0 -4 21q-6 29 -17 38q-47 28 -52 52zM402 1136q-3 0 -6 -8q-9 -8 -9 -17v-165q0 -8 -13 -16q-3 -4 -3 -8v-1q0 -9 16 -21v-3q0 -4 -8 -13q-1 -2 -1 -5v-12q0 -14 1 -23q-1 -8 -1 -22v-5q0 -11 14 -11 q3 -1 3 -2v-3q0 -5 -21 -46q-3 -10 -3 -15q8 -15 8 -17v-6q0 -4 -1 -4l1 -5v-19q0 -13 -1 -31q0 -6 7 -17q2 -26 2 -41v-27q-8 -26 -8 -35v-1l8 -8v-72q0 -22 1 -66q0 -4 -9 -23v-7q0 -3 9 -25q-1 -9 -1 -14v-3q-9 -11 -9 -26l10 -30v-1q-1 -9 -1 -11q9 -23 9 -29 q-1 -7 -1 -14v-3l7 2h12q6 0 10 -10h9q4 10 15 10q13 0 31 -2q6 0 60 17h2q6 0 25 -2q17 6 47 20q53 17 78 43q10 7 34 10q14 10 18 26q1 14 57 84q6 0 13 59q4 20 15 27q8 14 8 19v28q1 4 3 4l2 -1q2 3 4 15l-2 47q0 11 16 77q2 16 3 32q0 19 -29 122q-5 31 -8 31 q-6 0 -6 6q0 3 9 21v16q0 14 -2 36q2 1 2 4h-39l-33 61q-30 42 -43 43q-26 3 -32 10q-64 55 -117 62q-65 15 -131 15q-16 -1 -31 -1z" />
<glyph unicode="e" horiz-adv-x="1028" d="M526 1315q41 -18 118 -18h17q10 0 31 1q5 -8 10 -8h3q1 0 6 7h48q6 0 10 4h26q4 -4 10 -4h34q2 0 14 4h19q5 -4 14 -4h5q2 0 4 1q5 -1 5 -5h6q2 0 10 7q5 1 10 1h49q2 0 3 -6q0 -18 -1 -40q1 -22 1 -42q0 -7 -5 -15l1 -4q-1 -7 -1 -8q0 -12 8 -25q0 -1 -1 -4 q-4 -105 -5 -105t-24 24q-30 26 -65 33q-30 5 -63 5q-64 -4 -70 -4h-5q-5 14 -15 21q-2 0 -21 -21h-15q-24 0 -30 -4q-8 0 -16 1q-32 -1 -56 -1q-36 -4 -36 -8h-10q-9 0 -34 11q-12 -1 -18 -1h-29q-51 0 -51 -6q-10 -27 -10 -57v-6q0 -25 7 -72v-2q0 -2 -3 -3l-6 1 q-3 -4 -7 -57q-3 0 -4 -40v-6q0 -4 15 -8v-1q0 -5 4 -42q4 0 19 -3q23 1 37 1q0 -1 10 -13q12 10 28 10q2 0 42 -2q9 0 23 6h2q28 -4 37 -4q4 0 26 7q38 -3 48 -4q40 0 79 23q31 15 49 15q2 0 2 -2q-4 -19 -25 -53q-2 -4 -2 -7q15 -21 62 -35h4q9 3 12 3t40 -25l42 -23v-2 q-3 -6 -59 -33l-25 -19q-6 10 -9 11h-3q-4 0 -24 -14q-31 -12 -42 -26l-3 1v-1q21 -39 31 -68l-2 -1q-4 0 -38 15q-33 13 -48 14h-2l-38 -5h-9q-9 0 -12 9q-1 0 -8 1q-35 -4 -74 -5q-2 0 -22 5q-18 -10 -37 -13h-3l-21 7q-85 -5 -85 -10q0 -6 -10 -45v-11q0 -18 10 -71v-4 q0 -4 -13 -15v-22l-3 -34l1 -1q0 1 1 1l1 -2v-104q0 -6 -3 -16v-40q78 13 86 13q9 -11 63 -11l12 -1q11 1 11 10h6q93 -10 115 -10q14 0 48 10q22 -14 25 -14h1q2 0 8 8l39 -3q30 0 45 17h5q5 0 22 -8h1q72 11 86 19q8 1 53 27h1q2 -6 2 -15q0 -12 -20 -130v-2q7 -14 7 -17 v-2q-12 -29 -12 -69q0 -22 -4 -22h-1q-68 14 -114 14q0 1 -25 3q-16 -3 -43 -3q-4 9 -4 13h-6q-7 -8 -9 -8q-43 1 -47 1q-42 -20 -46 -20q-5 -2 -17 -2q-6 0 -57 23q-22 -11 -26 -11h-4q-60 3 -99 8l-6 -1q-131 -7 -131 -13q-36 -7 -42 -7l-5 1l-3 -1q-8 1 -20 8 q-36 0 -95 4h-7q-14 -5 -17 -5q-17 5 -42 5h-3h-9q-23 0 -121 -14v1q27 15 67 71q23 32 23 40v12q0 13 19 31l1 7q-8 16 -8 30q8 76 8 87q-7 95 -7 106v4q0 5 3 28v7l-7 33l4 19q0 1 -8 21v7q0 12 3 30q-2 13 -3 40q20 6 20 8q2 4 2 9v13q0 24 4 94q1 24 1 49q0 13 -11 26 q0 1 -1 9l4 63h1q0 1 -1 1l1 5q0 17 -10 31q-2 4 -2 8q6 69 6 80q-2 10 -6 27q4 24 4 31q-4 14 -4 16l7 35v1q-11 8 -11 21v15q0 10 2 19q0 37 -24 96q-7 25 -40 53q-12 15 -12 18l14 4q50 -5 74 -6q11 1 17 1q46 0 116 -1q18 0 107 6q17 0 37 -14q8 -3 22 -5q29 3 51 3 q24 -1 26 -1q13 0 30 24z" />
<glyph unicode="f" horiz-adv-x="943" d="M137 1300h21q2 0 10 -3q5 0 34 1l39 -5h4q4 0 8 -3q6 3 8 3h96l6 5h96q3 0 35 -14q35 5 77 5h62q9 0 27 -2q0 4 12 4h99q16 0 33 -1q2 1 24 1h11l8 6h16q2 0 4 1l5 -1q24 1 31 1q3 0 17 -1q2 1 4 1l1 -3q-2 -35 -2 -63v-15q5 -8 5 -10q0 -9 -2 -62q0 -1 -7 -16v-23 q9 -9 9 -28q0 -3 10 -45v-19l-1 -2q-114 69 -118 69h-7q-6 0 -30 -5q-11 8 -15 8h-3q-11 0 -14 -1q-10 1 -18 1h-19q-75 0 -75 -9q-4 -1 -7 -1q-18 11 -24 11q-9 -6 -14 -6h-16q-9 0 -13 11l-2 -1h-19q-2 0 -4 1q-48 -4 -48 -7l-4 -2q-38 2 -55 2h-17q-47 0 -47 -6 q-11 -31 -11 -41v-1q0 -12 24 -46v-87q0 -2 -13 -5q-5 -24 -5 -37q7 -23 11 -54h15q1 0 1 -1q6 4 16 4h6q5 0 5 -4q35 -4 45 -4h12q13 -2 18 -2h10q2 10 3 13l165 -4q59 32 84 32l1 -3q-11 -26 -25 -64l61 -33q10 3 11 3l72 -41l11 -5q0 -11 -61 -37q-17 -12 -20 -12 q-2 0 -14 5h-1q-17 -7 -53 -28q-6 -6 -6 -10v0q19 -39 23 -49q5 -16 5 -18h-1q-78 31 -82 31h-6l-4 -3h-36q-12 13 -16 13q-24 -1 -47 -4l-23 3q-4 -5 -15 -12h-4l-50 -2q-9 9 -12 9q-21 0 -84 -2q-6 -42 -6 -52q12 -22 12 -37v-14q9 -68 9 -93v-4q-23 -19 -23 -44v-1 q0 -20 9 -25q2 -1 2 -3q-1 -97 -1 -132q0 -31 12 -80q6 -9 64 -69l14 -21q-2 0 -2 -1q-14 3 -41 4q-43 -3 -50 -4q-1 0 -1 1q-3 0 -61 -7q-5 0 -13 -2l-2 2q-2 0 -2 -2q-24 2 -44 4q-35 -7 -49 -7h-12q-5 0 -22 2l-67 -11h-2q-3 0 -19 9q-1 0 -3 1q-4 -2 -8 -2h-2 q-12 0 -42 7q-5 0 -12 -3q-14 3 -14 5q38 35 47 52q6 16 18 27q28 109 34 114l2 20q-13 95 -13 104q20 18 20 30v4q0 6 -7 10q1 15 4 97q2 0 6 8v1q0 8 -25 45q4 11 4 16v25q0 21 3 71q-3 11 -3 23v18q0 8 3 13q-3 15 -3 35q0 19 13 49q5 22 5 42q0 2 -2 16q-16 2 -16 5 q4 53 4 98q0 50 -10 87v2q10 26 10 105q-7 25 -8 43q-8 19 -8 20v5l1 6q0 3 -12 20q-6 15 -12 15q-4 0 -30 31q-19 19 -27 31q15 4 48 4h36q5 0 11 -1q4 1 9 1h17q1 0 3 -1q4 0 13 7z" />
<glyph unicode="g" horiz-adv-x="1156" d="M775 1301q26 -2 40 -2q9 -24 25 -24h17q2 0 2 2q-2 0 -2 1v1q0 2 2 2h21q7 -6 8 -6q22 1 36 1q13 0 42 -17q23 -9 67 -15v-30q-8 -3 -8 -16v-22q0 -43 7 -43l2 -17q0 -5 -8 -10l-1 -4q1 -49 1 -79v-13h-1q-55 38 -78 58q-10 21 -47 31q-2 0 -33 21q-8 4 -16 4 q-10 0 -40 -2q-14 8 -19 8q-7 0 -22 -1q-4 0 -17 7h-15q-19 0 -48 1q-11 0 -23 -13q-5 -2 -8 -2q-4 0 -22 3q-11 0 -27 -14q-2 0 -2 1q-11 -1 -17 -1h-10q-3 0 -4 1q-19 0 -28 -8q-40 -26 -107 -92q-11 -12 -23 -44l-14 -21q0 -4 -2 -4h-2q-2 0 -2 3l5 20v1h-1l-4 -1 q-3 2 -5 2q-7 -22 -27 -41q-21 -27 -34 -69q-8 -22 -18 -61q-13 -11 -13 -22q0 -34 1 -106q-1 -17 -1 -27l2 -1h3q7 12 13 12l1 -2v-45q0 -2 -3 -2q-2 1 -3 1q-2 -4 -2 -8v-1q0 -19 2 -26q-1 -10 -1 -15v-16q0 -14 21 -49q3 -5 3 -8v-1q0 -2 -11 -7l-1 -2q24 0 28 -23 q24 -95 45 -117q47 -53 79 -73q40 -25 40 -41h2q6 0 15 1q6 0 6 -38q3 0 3 -6h1q2 0 14 8h2v15q0 2 3 2q12 0 59 -23l7 -1h1q6 8 53 8h1l5 1l1 -2l-2 -7h1q3 0 7 1q15 -1 27 -1h8q3 0 11 6q6 0 44 -7h18q28 0 38 21q3 7 3 11q0 9 -3 27q0 9 8 17q1 16 1 20q-7 3 -7 10v48 l6 55q-6 34 -6 38q1 21 1 31q0 33 -25 97q-6 18 -44 52q-43 35 -46 51l2 1h43q8 -5 110 -13q12 -5 16 -5h10q7 0 8 10l6 1q28 -6 34 -6h16q2 -1 2 -3v-2q0 -11 -1 -36q8 -3 10 -3h1q3 0 12 36q0 3 12 5q25 -3 33 -3h6q14 0 34 1q9 -1 9 -3q-2 -7 -2 -9v-1q1 0 3 -1l56 2 q1 -2 1 -3q-14 -25 -22 -62q-10 -52 -20 -117q-5 0 -5 -6v-5q7 -22 7 -42q0 -5 -7 -34v-1q0 -22 1 -59q-1 -16 -1 -29q-6 -3 -6 -8q3 -61 10 -61q2 0 2 -2v-27q6 -18 6 -24v-32q0 -7 12 -8q1 -2 1 -3q0 -2 -1 -15q13 -28 13 -30v-2q0 -14 -73 -24q-6 -6 -23 -6q-3 0 -32 7 h-2q-35 -8 -35 -16q-2 -2 -11 -3q-18 1 -22 1q-59 -12 -92 -12q-1 2 -1 3q0 8 2 35q-2 10 -2 11h-1q-11 -9 -11 -10q-16 -39 -34 -39q-11 -1 -23 -1q-20 0 -79 6q-124 0 -218 40q-19 8 -74 15q-8 2 -21 17q-26 5 -31 9q-6 7 -14 34h-5q-35 0 -116 55q-19 17 -31 37 q-37 33 -45 52q-7 12 -54 76q-2 0 -5 10v1q3 9 3 12v6q0 6 -29 47q-31 72 -48 178q-9 32 -9 54q0 8 1 21q0 3 -7 38q6 43 8 43h2q5 0 11 -9h1q2 1 13 19q-4 27 -16 55v5q30 25 35 25l-1 8q0 26 49 129q5 7 19 20h7q3 0 9 1q2 -1 3 -1q4 8 7 15q-3 6 -3 7q0 4 13 13 q7 19 13 19l6 -1q7 0 25 16q12 3 12 11q1 0 5 10q0 3 -7 7q-6 7 -6 11h1q12 1 21 1h14v16l2 2q1 0 3 -1q6 1 11 1q1 -1 2 -1q0 12 7 12v6q0 2 1 2q0 -1 1 -1q4 6 5 6q4 0 5 -1l6 1h5l-1 6h14v1l1 7q-1 1 -1 4h-3l-2 -1l-2 3v1q0 2 7 4l2 -2l6 2h3q0 4 2 6v5h1q13 -1 15 -1 q2 2 2 4q-2 7 -2 8l2 1q19 -1 25 -1q1 0 5 1v7q16 7 53 32q16 2 26 4l-1 12q4 2 9 2l3 -2l-1 -12h17q1 0 1 -1q1 1 2 1v4q0 8 -1 8l-6 -1l-1 1v3q0 1 1 1l-1 3v3q1 2 2 2q5 -7 10 -7t9 11q6 3 10 3q7 0 23 -1l19 6q2 -13 12 -13h1l10 1v-1q6 5 27 9q4 3 10 3v8q0 11 8 11h20 q30 0 83 -1q15 -12 41 -12h2q5 0 8 11q5 4 16 4z" />
<glyph unicode="h" horiz-adv-x="1213" d="M304 1301q32 0 32 -9q2 0 4 -1q25 1 29 1q61 -1 74 -1q7 1 11 1l1 -2v-11q-23 -17 -29 -32q-7 -1 -18 -22q-8 0 -10 -42q-5 -11 -8 -118q4 -19 4 -25v-10q0 -58 -9 -58t-9 -13q0 -19 2 -55q-2 -66 -2 -78q0 -22 10 -31v-8q-2 -16 -2 -18v-6q1 -3 6 -5q22 2 28 2 q11 -1 16 -2h52h17q14 0 47 4h5l26 -8h5q57 3 57 9q6 13 20 13q19 -5 19 -8l-2 -5q0 -4 8 -5q41 4 61 4q23 -3 29 -3h33l7 -1l1 2v44q-3 39 -3 42l3 17q-7 32 -7 41q6 32 11 32l8 -1v2v1q0 22 3 65q0 37 -14 48q-1 6 -1 8q0 21 1 45q0 4 -2 21h-1l-8 -6h-1q-4 0 -4 17v8 q0 21 1 57q-6 30 -20 45q-31 36 -31 44l1 2q10 -1 52 -3l77 3l1 -2v-1l-3 -10q4 -2 6 -2q31 1 43 1q0 1 1 1l-1 6v0q0 6 43 9q77 -1 77 -7q0 -9 11 -9q8 0 36 -1q8 1 8 3v2l-4 6v1q0 4 23 4q8 0 57 -1l1 -2v-11q-23 -18 -43 -39q-10 -16 -10 -18q1 -4 1 -7q0 -2 -11 -10 q-3 -7 -3 -11v-1q0 -12 1 -36q-3 -3 -12 -7q-2 -4 -2 -17q1 -92 1 -111v-55q0 -6 -12 -9q0 -2 -1 -4q-2 -39 -2 -57q7 -83 7 -93q0 -40 -5 -180q1 -20 4 -20h8q2 -4 2 -6q-1 -41 -1 -58l3 -19q-4 -84 -4 -119v-17v-8v-8v-19q0 -10 3 -10l6 5h3q2 -1 2 -3v-215q0 -15 18 -48 v-3q-4 -5 -4 -8v-2q2 -4 38 -22q38 -34 38 -39h-1q-46 -2 -87 -2l-76 5q-13 6 -22 6q-87 -9 -96 -9h-5q-2 0 -2 2q3 9 3 12l-2 1q-19 -3 -21 -3q-10 2 -15 2q3 -10 3 -12q0 -4 -70 -7q-17 0 -63 5q10 23 41 55q17 25 17 77v43q0 10 7 61l-2 78q0 43 5 43q9 0 9 8q0 1 1 6 q-1 16 -1 31v3h-1q-8 -5 -10 -5l-1 2v2q0 2 13 27q0 5 1 13q0 59 -37 82q-40 32 -72 32q-13 1 -18 1q-85 -8 -93 -8h-2q-5 8 -14 8h-2l-66 -5h-6q-10 0 -65 5q-17 0 -22 -10q0 -4 -13 -4h-33v-3q0 -39 1 -49q-1 -23 -1 -55v-23q0 -4 -6 -19v-2q0 -1 7 -8v-5q0 -30 -3 -108 q5 -1 5 -6l-7 -57v-14q0 -60 10 -60q7 0 8 -10q-1 -21 -1 -32q0 -29 11 -29q17 -20 40 -37q4 -6 4 -10q-2 -18 -5 -18q-12 0 -62 -1q-14 0 -78 7l-101 -6h-10q-18 0 -23 7l-11 1l-73 -6q-45 -2 -69 -2v0q12 28 38 48q7 9 16 34q10 12 11 22q0 18 -3 29q2 12 6 12q6 -3 10 -3 q1 3 1 5q-1 16 -1 20q0 5 3 5q7 -5 9 -5t3 45q0 30 -14 41l-1 5v4q0 11 2 49q-2 38 -4 119q0 16 12 26q4 10 4 34q0 18 -1 84q0 2 -7 13v3l7 109v4q0 2 13 10v3q0 7 -21 27q-7 8 -7 25q2 24 2 49v47q0 27 1 73q0 19 -11 19q-3 4 -3 6q-4 59 -4 94v12q5 18 5 63v4q0 14 -6 17 l-5 -1q-5 6 -5 18l5 31q-4 17 -13 17q-9 18 -39 36q-19 12 -28 29l-1 4l2 1h24q15 0 29 -2q39 2 53 4h12q49 0 49 -4q0 -5 9 -5q12 6 32 6q10 1 40 1h11q22 0 27 5q0 3 16 4z" />
<glyph unicode="i" horiz-adv-x="488" d="M53 1305h2l8 -8l3 1q24 -1 31 -1q3 -6 5 -6l18 7h2q3 0 4 -12l12 -3l20 2q5 0 19 -9h2q4 0 38 9q31 -1 32 -2q9 0 11 12q0 3 13 4h60q2 0 3 -10q6 -2 18 -2q5 0 15 11q1 1 2 1q11 0 33 -1q51 2 62 2q5 -1 5 -3q-16 -22 -30 -37q0 -7 -12 -13l-18 -23h-8q-4 -1 -4 -7 q0 -13 -1 -22q1 -10 1 -24q0 -12 -11 -12q-2 0 -5 -34v-7q0 -49 5 -57q2 -1 2 -4v-4l-6 -33l1 -5l-2 -20q0 -10 14 -10q2 -3 2 -36q0 -6 -14 -14q-2 -6 -2 -12v-2q0 -39 5 -39q2 0 2 -6v-1q-4 -40 -6 -93q0 -7 -13 -15q-2 -3 -2 -57q0 -64 4 -74v-1l-3 -64q0 -20 6 -20 t9 -19q-2 -51 -2 -81v-58q0 -64 8 -64q9 0 10 -41q3 -9 3 -28v-10q-7 -33 -7 -42q0 -8 1 -68q0 -5 15 -13q-2 -11 -2 -15q0 -46 7 -52q7 -15 23 -24q8 0 28 -23q16 -14 16 -15v-2h-8q-6 0 -15 2q-11 -2 -26 -2h-17q-26 0 -42 -2q-9 0 -27 14q0 3 -47 4q-10 -2 -10 -5v-2 l5 -7q0 -2 -7 -3l-50 4q-20 -3 -20 -5q-4 -3 -8 -3h-10q-55 2 -55 7l3 9q-1 5 -5 5h-3q-32 0 -32 -8q0 -10 -16 -10h-1q-27 0 -56 5q-12 -1 -19 -4q-11 1 -11 4q12 15 38 40q8 9 18 36q14 5 14 15q-1 6 -2 21q2 13 2 28q0 30 -2 76q0 5 14 10q1 2 1 3v4q0 5 -3 78v4 q5 6 5 10q5 19 5 29q-7 0 -7 17q-4 56 -4 79l4 39v6h-1q-9 -3 -12 -3q-2 0 -2 2q0 20 14 34h1q1 33 1 49v3q0 18 -7 111v3q0 3 6 16q0 6 2 18v3q-3 14 -3 23q0 58 -5 75h-1l-5 -1l-1 1v11q0 4 7 18v8q0 10 6 34q0 9 1 14q0 17 -12 114v6q0 15 11 23q0 2 1 4q-1 7 -3 12h-9 q-4 0 -5 16l3 37q0 1 -1 12h6q2 0 4 -1q7 0 10 10v1q0 2 -5 5v0q-2 0 -13 -3q-3 3 -3 4q5 39 5 43q0 18 -19 27q-9 0 -18 22q-8 7 -13 24q-13 0 -13 10q-10 12 -14 18q1 0 1 1q10 -1 14 -1h18q4 0 16 8z" />
<glyph unicode="j" horiz-adv-x="739" d="M476 1305h71q2 0 2 -3l-1 -2h15h7h7h9q5 3 10 5q11 -5 23 -6q5 -19 5 -23q13 3 25 14q9 6 23 10h5h8v4l1 1h16q21 -6 27 -6q3 -2 3 -3q-2 -3 -15 -6q-21 -13 -32 -48q-10 -51 -10 -155q-1 0 -4 -24q0 -4 1 -27q-1 -4 -4 -5q-1 -2 -1 -4v-18q5 -11 5 -16v-5q0 -14 -1 -33 q0 -7 6 -20q0 -37 -7 -37q-13 -1 -13 -6l-1 -7q2 -3 20 -3q1 -2 1 -3q-1 -31 -1 -32l-5 -4q0 -1 1 -1l-1 -4v-7q0 -5 6 -8q-1 -11 -1 -16q0 -30 2 -53q-1 -41 -1 -75v-29q0 -5 -1 -14q0 -3 6 -26v-3q0 -15 -5 -32v-14q-5 -11 -5 -12q6 -11 6 -14v-7q0 -2 -6 -21q-1 -1 -1 -3 t1 -10q-17 -174 -26 -174q-8 -34 -19 -67q-19 -15 -19 -23q1 -1 3 -13q0 -5 -18 -24q-4 -8 -4 -24l-33 -46q-12 -15 -23 -15q-8 0 -18 -23q-14 -13 -38 -24q-14 -6 -14 -15q0 -3 -20 -16q0 -5 -32 -11q-24 -5 -27 -11q-11 -8 -17 -8h-141q-41 0 -50 11q-3 4 -8 4h-5 q-2 0 -4 -1q-28 8 -47 20q-21 17 -41 35q-15 6 -23 18q-3 20 -12 24q-9 5 -28 53q-2 0 -3 21q-5 3 -5 4v8q0 8 5 26v11v14l-1 18q0 9 14 29q4 0 7 58q7 7 16 28q11 19 22 22h8v3q0 30 55 67q52 27 72 27q2 0 37 15q14 1 23 1h2q0 -3 -23 -28q-8 -15 -16 -15q-11 0 -11 -19 q-39 -44 -45 -63q-14 -36 -14 -88v-24q0 -11 7 -39q0 -31 37 -52q9 -10 9 -12q-1 -2 -1 -3l2 -1h13q2 0 8 1q3 0 19 -10q12 -1 13 -1t12 11h14q3 9 5 9h32q0 7 7 21q17 6 38 19q19 27 37 72q8 13 8 27v20q0 3 14 70q1 1 1 4q-1 11 -3 16q1 9 1 14v4q0 1 5 14v1q0 1 -10 7v1 q0 11 9 14q6 9 6 17v1l-1 4l-4 -1v30q0 42 1 77q-1 16 -1 61l-1 4q0 2 6 11q-10 19 -10 22q-4 40 -4 49v66q0 20 -10 80v3q1 91 1 135q10 10 10 11v3q0 2 -1 9h-7q-8 2 -8 9q0 6 1 15q-4 27 -4 46v38q-6 17 -6 22v1q0 2 2 2q1 -1 4 -1v2q-6 0 -6 6q1 9 1 13q0 17 -15 40 q0 1 -40 38v1h74h23l4 -5h2q0 4 5 5h24h3l-1 1v4z" />
<glyph unicode="k" horiz-adv-x="1246" d="M17 1310q20 -2 24 -2h24l2 -1l-1 -2q0 -11 14 -11h8q9 0 9 12q0 2 2 2h2q5 0 27 -12q6 -1 10 -1h4q23 0 37 7h1q2 0 52 2q1 0 3 1q23 0 30 -11q0 -7 18 -7q18 1 32 1q12 0 21 -15q5 0 39 35q6 2 23 2l58 -2h18q2 0 2 -2v-3q0 -2 -31 -22q-26 -28 -30 -61q0 -21 -23 -61 q-6 -19 -6 -51q0 -34 3 -81q0 -15 -14 -25q0 -2 2 -8h8q3 -2 3 -5q-2 -51 -2 -60q0 -24 9 -64q1 -10 1 -21v-40q9 4 11 4l2 -2v6l-1 2q2 1 3 1q5 -3 9 -3q7 4 22 8q-2 7 -2 13v0q0 5 11 18q0 5 41 54q6 16 21 24h3q1 -2 6 -2h1v5l-6 7v1h12q9 -11 20 -13v12l-8 5q0 21 30 28 q26 9 33 22q3 6 7 12v0q-7 -2 -11 -2h-1q-2 0 -2 3q4 10 91 89q27 16 27 29q7 28 9 28q0 2 25 9q9 0 19 28q23 54 35 105q1 7 2 7q2 0 12 -14l6 -1h4q3 0 9 8q4 0 10 7h1l32 -7q5 0 36 5q19 0 19 -14q1 -19 9 -19h4q18 0 27 23l11 5q5 -1 8 -1q12 10 76 10q12 0 44 -9h2 q5 0 54 7h23q2 -1 2 -2v-11q-1 -1 -36 -15q-60 -29 -207 -142q-45 -42 -85 -92q-8 -5 -31 -38q-6 -5 -24 -9q-8 -7 -31 -52q-19 -22 -40 -26q-1 0 -9 -2q0 -3 7 -13v-1q-84 -85 -95 -88q-25 -22 -25 -32q7 -12 25 -73q9 -18 9 -31q-1 -2 -1 -3q3 0 8 1q26 -9 51 -83 q18 -30 91 -115q19 -28 19 -44v-18q0 -8 8 -22q0 -9 23 -13q28 -23 28 -29q18 -54 24 -54q20 -28 48 -47q21 -16 67 -60q47 -37 54 -37l15 1q9 0 68 -55q23 -17 101 -58q43 -21 89 -39l2 -3q0 -5 -51 -5h-70q-15 0 -35 -1q-16 0 -61 8h-2q-16 0 -77 -1q-40 0 -87 16 q-48 4 -48 10q-11 6 -50 41q-22 17 -29 17h-24q-9 0 -29 1q-34 36 -48 42q-62 38 -92 61q-32 28 -40 46q-16 37 -34 46q-29 20 -45 38q0 2 -2 3v3q0 1 7 17q0 7 -35 50q-58 71 -58 85q-4 23 -20 39l-15 13v7q-2 0 -13 7v-154q0 -13 2 -36q0 -10 -15 -29q31 -37 31 -58 q1 0 3 -29q0 -30 -2 -77q0 -84 42 -107q0 -1 34 -22q7 -12 7 -18q-1 0 -1 -1q-2 0 -34 1q-14 0 -95 -3q-5 0 -49 2q-3 7 -4 7h-6q-6 0 -12 -11q0 -1 -15 -2q-11 0 -131 2q-108 -3 -138 -3l-1 2v3q0 8 37 14q19 8 22 8v0q-4 12 -4 17q4 15 4 19v1h1q4 -5 5 -5h1q-2 10 -2 14 q13 125 13 214h31l2 -1q13 11 13 13q-4 29 -12 29q-1 4 -3 4h-2q-9 0 -24 -1q-2 0 -6 2q19 118 19 183q6 62 6 116q0 32 -7 32l-5 -1h-3q-2 0 -9 27q-2 2 -3 9v4q9 54 9 110q-2 98 -2 126q8 85 8 96v7q0 16 -12 24q-4 9 -4 15v3q0 49 5 49t10 12q-20 22 -20 32q2 14 2 19v1 q0 35 -69 103v4q0 2 11 4z" />
<glyph unicode="l" horiz-adv-x="881" d="M17 1302h18q12 0 35 -15q12 -2 23 -2h7l103 6l13 -5q8 0 57 15h11h40l2 -2v-4q0 -1 -1 -1q1 -4 7 -4h27q5 0 19 11h4h53q2 0 2 -1q-13 -19 -25 -42q-9 0 -17 -23q-11 -6 -18 -56q0 -22 -12 -136v-2q0 -5 7 -30v-4q0 -25 -7 -135q2 -50 2 -69q0 -5 -13 -18l-3 -5 q-1 -56 -1 -85q0 -15 12 -15q3 0 3 -3v-4q0 -16 -12 -20q-4 -13 -4 -47v-24q0 -18 2 -82q0 -7 -1 -40q0 -11 11 -14q4 0 8 -58v-14l-5 -91q1 -1 3 -1v-7q0 -51 -2 -83q23 -1 34 -1h9q14 0 37 1q2 0 21 -15q9 -2 15 -2q32 2 34 2q74 -1 99 -1q20 0 20 8q4 9 13 9q51 -1 63 -1 q52 0 113 30q33 12 53 13q0 -1 1 -1q0 -1 -16 -28q-13 -13 -29 -47q-29 -29 -29 -33q2 -1 2 -2q0 -5 -29 -49q-7 -6 -13 -48q-1 -11 -5 -11q-17 0 -139 6q-88 -6 -96 -6q-2 0 -18 7l-6 1l-163 -8q-2 0 -12 14q-4 3 -12 3q-27 0 -27 -8q0 -9 -6 -9h-45q-7 0 -34 6h-3 q-3 0 -23 -7l-22 -1q-14 0 -117 2q-20 0 -33 -16q-2 3 -2 4q5 13 47 76q26 44 26 68l2 1h1q9 -3 12 -3v2l1 6q-12 5 -15 8v57q0 13 11 23q4 7 4 14q-2 103 -2 154q0 3 2 23q0 16 -14 37q-1 6 -1 11v3q0 11 11 27q6 13 6 162q0 15 -4 15q-2 0 -2 2v11q0 7 8 52h-1q-2 0 -4 5 q5 79 5 94q-3 53 -13 53q-6 0 -6 14v3q0 12 9 16q6 0 6 32q0 22 -1 114q0 9 -5 9l-7 -2q-3 5 -3 10q1 41 1 63q0 39 -16 50q-6 10 -6 15q0 12 -7 14q-20 36 -30 58z" />
<glyph unicode="m" horiz-adv-x="1284" d="M1210 1304h2v-21q0 -34 4 -95v-21l-16 -33v-2q7 -50 15 -64q1 0 1 -4q0 -125 8 -283l-1 -7l7 -48q-5 -13 -16 -31q-3 -6 -6 -15q2 -18 7 -145l13 -15q1 -5 1 -8q0 -8 -1 -39q3 -14 3 -19v-10q0 -9 -9 -12q-12 0 -12 -19q-7 -17 -7 -29v-9q0 -10 8 -61q0 -20 8 -55 q0 -1 -10 -12v-24q0 -3 1 -9l-1 -2q0 -1 1 -3q-1 -10 -1 -15v-8q0 -3 6 -10q0 -4 1 -5l-1 -16q0 -61 22 -100q0 -7 35 -39l7 -8q-1 -1 -3 -1q-68 0 -80 10q-7 2 -15 2l-11 -8q-7 0 -49 1q-26 0 -58 -2q-1 0 -1 1l-7 -1h-14l-7 -1v1l-2 -1q-55 -1 -83 -5l-1 2q0 10 38 57 q10 16 12 26q1 108 1 150q5 18 5 21q0 4 -8 15v12q0 3 3 46q-3 101 -4 209q7 137 9 169q-2 33 -6 44q-5 0 -36 -34l-5 -1h-8q-7 -14 -33 -38q-3 -12 -34 -42q-18 0 -27 -8q-4 -1 -18 -25q-58 -53 -58 -62q-1 -1 -9 -13q-3 0 -32 12h-1q-7 -2 -25 -24q-5 -4 -12 -18 q-17 -15 -30 -21q-36 -37 -36 -39q-3 -5 -3 -6h-2q-17 8 -31 31q-21 16 -31 26v26q-16 18 -26 21q-29 -12 -32 -12q-15 28 -45 56q-29 25 -32 37q-11 15 -34 15q-22 19 -32 36q0 4 -25 28q-6 8 -10 17l-2 -1h-6q-8 0 -33 31q-1 0 -8 4q-7 -29 -7 -45q3 -30 10 -168 q-1 -107 -4 -210q3 -41 3 -45v-12q-9 -11 -9 -15l6 -23q0 -33 1 -149q1 -15 37 -57q13 -19 13 -26q-1 0 -1 -1q-28 4 -85 5v1q-1 0 -1 -1l-7 1h-14l-6 1q-1 0 -1 -1q-32 2 -60 2q-37 -1 -49 -1q-7 8 -13 8q-8 0 -26 -8q-28 -4 -68 -4l-1 2q42 39 43 45q22 41 22 100v2l-1 14 q0 6 6 14v10q0 5 -1 15l1 2q0 1 -1 1l1 10v25q-9 10 -9 13q6 25 9 74q6 21 6 41v9q-8 45 -11 45q-16 6 -16 14v11q0 4 3 20q-1 30 -1 40q0 9 14 20v2q3 106 6 143q-3 14 -19 41q-2 3 -2 8l7 45l-1 10q8 153 8 283q8 15 15 65v2q0 2 -15 33v22q3 61 3 95v21h2q11 -4 27 -20 q27 -17 42 -17q17 1 33 1q15 -25 72 -70q3 -2 77 -72q62 -46 129 -112q17 -8 17 -11q-3 -19 -3 -27v-4q46 -37 82 -81l39 -35q18 0 41 -8q0 -5 12 -24q12 11 18 29q22 6 31 6q15 0 24 13q20 19 67 70l40 34v4q0 6 -3 28q15 7 38 31q61 56 112 94q63 63 110 101q20 16 36 38 h1q12 0 30 -1q22 0 56 29q0 2 13 8z" />
<glyph unicode="n" horiz-adv-x="1118" d="M742 1298q30 -3 38 -3h66q19 -4 54 -4h1q23 0 37 4h180v-1q-4 -5 -36 -30q-10 -11 -30 -38q-11 0 -20 -88v-29q0 -13 1 -31q-4 -7 -8 -7l1 -6v-24q9 -5 9 -11q3 -73 3 -84q-1 -9 -1 -10q1 -6 1 -17q0 -6 -10 -16v-1q12 0 14 -42v-2q0 -12 -1 -45q1 -27 1 -42 q-5 -14 -5 -18v-8q0 -37 1 -43q-1 -27 -1 -44q0 -33 1 -142l-1 -3q1 -2 1 -4q-1 -38 -1 -51q-11 -13 -11 -16v-21q-3 -19 -3 -22q3 -10 14 -24q0 -4 1 -5q-3 -13 -3 -19v-52q-3 -13 -3 -19v-97q0 -34 8 -34q11 -4 11 -11q-8 0 -16 -52q1 0 6 -7q-3 -10 -4 -45l5 -22v-51 q0 -75 -6 -75q-3 4 -10 38q-5 15 -26 51q0 7 -55 86q-61 89 -61 91q-32 36 -43 58q-11 14 -36 28q-10 5 -10 22q0 4 -30 14q-3 4 -17 31q-48 54 -62 58q-22 13 -30 24v32q-5 12 -46 52q-54 59 -66 61q-29 -11 -33 -11q-15 28 -45 55q-27 25 -34 40l-13 12q-22 0 -28 8 q-23 25 -27 38q-29 24 -30 35h-9q-9 0 -34 32q-1 0 -7 4q-5 -11 -7 -46q2 -30 10 -168q-1 -109 -5 -212q4 -39 4 -47v-10q-9 -11 -9 -15l5 -23q0 -32 2 -149q1 -17 37 -59q13 -19 13 -25l-3 -2q-41 6 -83 6l-1 1q-1 0 -1 -1l-6 1h-14l-7 1v-1q-34 2 -59 2q-43 -1 -50 -1 q-10 8 -13 8h-1q-9 0 -26 -8q-26 -4 -69 -4l-1 2q41 38 41 42q24 40 24 106v1l-2 13q1 6 8 14v2q0 16 -1 23q1 11 1 29v9q-10 10 -10 12q8 34 10 75q6 21 6 44v7q0 7 -10 44q-19 7 -19 16q1 14 4 31q-1 29 -1 38q0 11 12 21q2 1 2 2q4 106 7 145q0 6 -22 44v4l7 46 q-1 9 -1 11q7 154 7 283q14 30 14 51q1 0 3 17q-2 6 -17 33v22q5 61 5 97v20h2q11 -5 27 -20q27 -18 42 -18q17 1 32 1q21 -30 77 -74q24 -22 72 -68q54 -41 112 -93q19 -21 32 -26q4 -3 4 -6q-3 -18 -3 -26v-6q29 -19 78 -73q42 -42 45 -42q17 0 40 -8q0 -16 62 -74 q55 -52 102 -88q19 -16 45 -45v57q0 6 -3 47q0 9 1 34q0 2 -1 12q1 9 1 22q0 10 -17 46q20 24 20 61v21q0 58 -11 58q-15 14 -15 22q0 3 6 11q4 16 4 27v28l3 10v1q0 5 -10 17v38q-7 67 -15 83q-14 35 -58 71v1z" />
<glyph unicode="o" horiz-adv-x="1303" d="M829 1329h1q54 -12 84 -25q105 -42 132 -73q52 -42 64 -57q2 -2 4 -11l-2 -1h-7q-14 0 -17 10q-5 9 -41 23q-8 25 -15 25q0 2 -22 5q-22 29 -32 29q-27 9 -27 17v3q-34 10 -49 17q-30 17 -68 33q-5 3 -5 4v1zM526 1302h49q4 -5 8 -5h6q16 0 50 2q10 0 38 -6q5 0 37 9h6 q12 0 49 -22l8 -2l12 3q7 0 11 -20q0 -5 24 -8q22 0 31 9q-48 10 -57 16q0 2 -2 4l2 1h11q10 -5 37 -8l6 1h6q16 0 99 -34q28 -15 31 -19q-1 0 -1 -1l-15 2q-2 -1 -4 -1v-1q15 -10 45 -24l55 -48q21 -9 21 -18q0 -4 -1 -18q0 -5 26 -20q13 0 25 -30q6 -11 21 -29v-2 q-14 -14 -14 -29v-1q8 -10 14 -10q4 -2 54 -7q10 -13 20 -55q7 -17 17 -17q9 -8 18 -36q35 -93 35 -174v-38q0 -121 -40 -250q-7 -18 -26 -35q-10 -6 -24 -41q-29 -36 -38 -59q-9 -10 -14 -10q-8 5 -11 5h-1q-7 0 -26 -15q-9 0 -13 -54q-2 -7 -11 -14q-9 0 -96 -43 q-31 -16 -83 -36q-4 -4 -4 -8v-4q0 -7 2 -7q15 8 36 15q29 17 48 17q0 -1 11 -8v-4q-3 0 -49 -25q-12 -5 -29 -24q-8 -6 -50 -13q-39 -19 -47 -19q-105 -19 -159 -27q-5 0 -16 8h-2q-33 0 -33 -6q0 -9 -11 -9q-61 4 -79 11q-54 20 -64 20q-35 3 -44 10q-37 31 -67 31 q0 2 -32 2h-4q-19 0 -19 11q-46 32 -85 72q-13 17 -13 21q0 6 1 15q0 9 -47 22q-30 10 -30 20q-97 128 -120 237q-11 66 -11 82v1q0 1 9 3q2 6 2 13v2q0 14 -14 22l-1 4v2q0 8 14 96q2 2 16 5q3 4 3 12v10q-9 10 -9 18q3 20 21 52q17 11 19 14q-3 8 -3 16v5q28 41 51 55 l5 -1l3 3l-1 4q18 29 32 33q0 -4 9 -8q2 0 25 17q14 6 44 27q6 4 33 11q0 4 32 13q1 1 6 1q3 0 15 -8l11 13q11 2 28 3q57 -2 57 -8q1 -6 4 -11l1 1l7 -1l23 7q29 0 88 -43q41 -39 49 -64q14 -37 14 -59q0 -10 -7 -10q-5 0 -35 31l-45 30l-4 -1q-5 0 -26 12q0 6 -79 7h-20 q-35 -11 -52 -29q-4 -3 -24 -10q-32 -37 -40 -37q-17 5 -22 5h-10v-3q23 -35 23 -39v-3q-42 -92 -42 -108q0 -33 18 -103q19 -43 45 -86q11 -38 27 -38q23 -8 23 -17q8 -13 28 -31q10 -29 14 -29q9 5 13 5l4 -2q2 1 3 1q5 -12 18 -19q51 -12 68 -31q24 -22 50 -22h5 q30 2 33 2h6q15 0 51 -25q11 -6 33 -12q6 32 9 33q2 0 4 2h1q5 -6 9 -6h1q3 0 22 11q5 3 9 3h4q10 -8 14 -8q12 4 52 19q38 7 38 15q35 29 58 33q2 1 3 1v10q0 8 21 14q6 5 34 35q23 18 23 45q9 23 19 23v2v14q8 1 8 7q0 3 -1 10q22 60 22 103q0 7 -9 76q2 4 3 4 q15 -9 15 -24q5 -48 8 -48q1 -1 4 -1v2v43l-3 4v29q0 30 -33 117q-11 23 -11 34l1 5q0 2 -4 10h-10q-26 36 -26 42v15q0 12 -18 35q-35 39 -63 60q-55 39 -137 66q-79 26 -186 26h-5q-17 0 -29 -6q-67 0 -124 -24q-10 0 -71 -31l-9 -1h-2q-1 0 -3 3v1l6 22q-19 -9 -19 -11 q-6 -3 -10 -25q-18 0 -36 -12q-9 -10 -11 -23l-3 -2h-13q-6 0 -19 -17l-1 -1h-15q-10 0 -85 -84q-32 -39 -47 -78l-6 -6h-1q-6 0 -6 14v3q0 36 21 88q1 0 12 11v1q-6 0 -8 11v1q17 40 67 104q18 9 48 53q45 46 60 51q9 5 32 36q5 2 8 2l3 -1q7 0 20 16q4 4 19 6q3 -1 15 -2 q6 19 18 19q71 31 85 31h4l2 1q0 -7 10 -15q26 15 63 27q13 13 16 23q4 4 6 4zM1124 1147q38 -26 66 -72q3 -7 3 -9t-4 -2l1 -11v-7q0 -2 -2 -2h-1l-10 26q-13 25 -44 60q-6 6 -9 16v1zM997 744h1q8 -10 8 -17v-17l1 -11l-3 -2v0q-9 0 -9 17q0 3 -3 8q3 22 5 22zM1131 207 l4 -2q-16 -35 -43 -47q-6 -3 -7 -11q-3 -2 -25 -9q-8 -5 -38 -14l-5 5v1q17 17 37 23q50 17 77 54z" />
<glyph unicode="p" horiz-adv-x="1014" d="M521 1308l8 -10q6 -3 20 -3h33q74 -14 89 -14q2 0 26 1q17 0 37 -12q10 -2 20 -2h27q14 0 29 -13q16 -10 16 -11q1 -6 1 -16q-14 -11 -14 -13q13 -4 19 -4q3 0 14 17h3h4q16 -14 27 -15q0 -3 55 -72q23 -34 36 -44q5 -6 5 -13v-5q-4 -39 -4 -44q0 -15 33 -77q9 -22 9 -42 v-30q0 -125 -84 -280q-21 -33 -50 -65q-38 -36 -67 -44q-36 -20 -80 -20q-89 0 -223 49l-37 11q0 7 -44 54q-15 24 -18 47q2 1 8 2q3 0 22 -11q9 -3 13 -3l6 1q17 -5 40 -5l102 5q10 0 40 -1q28 0 57 73q14 47 24 69q11 12 11 29q-1 28 -2 37l5 41q0 19 -35 64q-5 9 -5 17 v10q0 7 1 13q0 30 -77 113q-32 29 -73 29h-4q-25 0 -90 1q-23 0 -47 -15h-36q0 -6 -1 -14q1 -95 1 -150v-14q14 0 14 -13q1 -10 1 -18q-1 -67 -1 -77q2 -4 2 -7q-3 -3 -25 -9q-6 -3 -6 -25v0q0 -10 12 -14q3 -6 4 -15q-1 -121 -2 -152q1 -3 1 -14l-2 -1l-7 5q-6 -2 -6 -15 q0 -36 6 -36q8 0 12 -15q11 -8 11 -26q0 -17 -1 -38q1 -10 1 -18q0 -7 -14 -62q-1 -7 -1 -12q8 -72 15 -108q0 -15 5 -15q9 -13 9 -39v-13q0 -20 -2 -84q0 -46 21 -64q50 -43 57 -53q3 -7 3 -8l-2 -1h-95q-20 0 -58 -1q-11 0 -17 14q-8 1 -8 2q-12 -2 -12 -3q0 -12 -12 -12 l-8 -1l-16 15h-9h-58h-13q-23 14 -34 14h-1q-29 0 -29 -6q0 -8 -3 -8l-20 1q-45 -1 -68 -1h-18l-1 1q11 13 38 36q19 16 31 41q13 27 13 38q-1 21 -2 24q1 14 1 26q-3 72 -3 77q0 7 14 9q2 3 2 7q0 12 -1 22q2 20 2 49v5q0 16 -2 30q1 11 1 21t-14 14v1q3 10 15 31 q0 18 -2 18q1 21 1 31v98q0 36 -2 99q4 4 7 4h19q2 0 2 2q-7 24 -21 31q-4 0 -6 8q0 7 1 53q0 34 -1 109q2 103 2 111q0 3 -2 43q1 14 1 29l-2 7h-7q-5 0 -5 50v6q0 4 13 5v4q0 3 -13 25v5q0 6 1 19q-10 30 -33 54q-22 12 -33 47q-1 7 -1 8l1 1h87q8 0 14 -12q5 -3 24 -3 q4 0 44 15h4q12 -15 18 -15q14 0 25 14l6 1h77q26 0 83 4q9 0 34 -4q2 0 2 1l3 -1q31 -1 35 -1q14 0 44 14h10z" />
<glyph unicode="q" horiz-adv-x="1335" d="M644 1299q8 -4 11 -4h3q1 0 12 2q5 -11 19 -11q11 3 32 5q0 2 33 5q0 1 6 3q16 -3 23 -3l8 1l15 -5q15 1 22 1q16 -3 17 -3h3q4 0 10 1q14 -4 26 -24l44 -18q70 -32 148 -90q38 -28 62 -49q0 -5 38 -37q43 -50 43 -56q55 -78 58 -105q-4 -8 -4 -11q0 -5 27 -45 q6 -11 6 -22q-9 -11 -11 -17q8 -17 11 -30q-2 -18 -2 -22q4 0 8 -28q3 -11 13 -34q1 -1 1 -6q-9 -18 -9 -40q0 -2 19 -18v-2q-3 -27 -5 -48q2 -6 2 -10v-32q0 -6 -13 -55v-1q11 14 13 14h3q-9 -49 -20 -76q-8 -14 -18 -41l-7 -17q-24 -21 -30 -38q-3 -11 -11 -16q-2 2 -3 11 h-1q0 -9 -3 -9q-1 2 -2 10q1 7 1 12h-1q-6 -4 -6 -13v-9q4 -6 4 -10q-8 0 -22 -59q-12 -15 -40 -29q-13 -31 -29 -45q-20 -21 -30 -30q-5 -16 -15 -22q0 -2 -17 -21q-4 -6 -10 -6q-8 1 -9 1q-3 -7 -20 -13q0 -5 -18 -8q-27 -24 -44 -27q-13 -13 -31 -20q-6 -5 -39 -19 q-17 -11 -25 -11h-2l-3 1q0 6 11 15v1h-1q-17 -4 -17 -15q-3 0 -23 -22h-4q-18 1 -20 1q-15 -13 -18 -13q-7 2 -10 2h-22q-5 0 -34 -9q-6 -2 -26 -2h-7v-1q8 -5 27 -20v-2q-7 -2 -9 -2v-2q1 -2 3 -2q7 0 18 2q15 0 40 -23q23 -10 54 -16q43 -21 51 -27q15 -4 62 -7v-1l-2 -8 q3 0 3 -6h4q45 8 45 11q0 2 4 5q2 0 22 -11h44q66 0 191 23q2 4 21 8q12 -6 92 -8l16 -3l-1 -8v-2q14 -3 15 -3q3 0 20 6h2q4 0 54 -17q12 0 21 -13l10 -12q32 -10 50 -41q21 -35 21 -58h-1q-32 49 -76 76q-10 11 -16 11l-10 -2q-65 17 -95 17h-10q-94 -10 -112 -10h-3 q-16 -14 -28 -16q-53 -23 -71 -23l-3 -2l1 -6q-56 -27 -165 -27q-66 0 -169 17q-36 0 -39 5l1 5v2q0 5 -42 9q-63 20 -96 44q-1 0 -7 2q-10 -2 -11 -2q-4 0 -19 18q-46 14 -109 65q-16 32 -30 32q-3 4 -18 9q-25 14 -27 17q0 11 -13 22q-47 53 -49 65q1 0 1 1q1 0 1 -1 q1 0 9 1q4 0 41 -11q15 -1 29 -4q6 1 10 1q9 0 19 -2l23 2l7 -1q4 0 22 2q10 -1 13 -1q14 1 23 1l2 -1q3 2 25 4q0 3 12 14q18 -2 21 -2q2 0 16 15q8 -4 21 -7q15 14 22 14h11q2 1 4 6l8 -1q18 5 18 9q-1 2 -1 4q23 13 47 13q6 0 11 -3h2q10 0 64 57q10 0 62 55q13 0 63 65 q15 24 21 30q0 3 31 48q29 65 37 95q16 47 20 96q-14 71 -14 78q0 3 1 5q-7 15 -7 37q-4 6 -12 11q-5 42 -15 42q-4 13 -21 29l-28 49q-5 0 -14 25q-8 13 -22 17q-3 0 -8 13q-3 0 -5 5v7q0 20 -36 30q-24 28 -52 47q-21 13 -61 29l-17 13q-6 -3 -8 -3q-8 10 -12 10 q-6 -4 -14 -4q-3 0 -41 19q-10 1 -12 1q-21 -1 -31 -4q-5 2 -10 2q-17 0 -41 -11h-2q-7 9 -10 9q-2 0 -30 -16q-8 -3 -48 -7q-9 -3 -20 -16q-13 -8 -53 -27q-5 -5 -8 -21q-8 -7 -31 -13q0 -2 -4 -4l1 -5v-6q-10 0 -42 -30q-12 -4 -12 -15q0 -28 -36 -53q-22 -27 -22 -53 q0 -39 -13 -59q-11 -23 -11 -25v-4q0 -8 4 -19q-2 0 -10 -11q-3 0 -7 -2v-1q10 -22 13 -36v-11q0 -2 -1 -4l8 -32q-9 -25 -9 -29v-1q0 -6 21 -49q9 -39 29 -80q14 -13 28 -40q4 -2 32 -36q11 -13 55 -24q2 -14 16 -14h6l-1 5l1 2q17 -9 42 -13q3 -5 3 -8h5q10 0 26 -12 q7 2 10 2h3q4 0 31 -11q25 0 52 15q3 0 9 -5q0 3 4 3l35 -2q10 5 55 7q12 8 27 20h11q35 31 50 47q15 20 27 30h4q5 0 7 -18q0 -37 -31 -103q-15 -30 -48 -61q-56 -40 -70 -40q-6 0 -15 8q-7 0 -19 11h-1l1 -2v-1q0 -3 -5 -3l2 -8q0 -11 -10 -18h-1q-2 0 -2 2 q-61 -33 -94 -37h-1q-3 0 -11 11q-3 1 -4 1q-4 0 -9 -17q-7 -3 -13 -3h-10q-7 0 -15 3l-2 -1q-1 0 -7 4h-2q-7 -8 -13 -8h-4q-13 0 -25 -2q-40 3 -40 6q-12 12 -12 15q-19 -6 -25 -6h-2q-46 17 -48 17q0 1 -5 6q-9 -7 -15 -8q-31 9 -31 31q-2 3 -22 15q-2 4 -33 21 q-6 6 -21 14q-2 4 -2 7v13q0 12 -23 19q-1 -3 -6 -3h-1q-18 14 -45 52q-47 57 -59 98q-21 46 -44 133q-10 38 -10 46q5 16 6 16l-5 8v36q-4 18 -4 19v2q0 5 9 16q-3 0 -6 53q5 29 7 71q-3 6 -3 11t26 33q2 5 4 20q8 13 18 26v3q0 1 -1 1q5 50 14 50q6 13 19 28q0 8 13 32 q10 21 11 30l21 33q1 0 8 7h2q5 -23 8 -23h3q12 21 12 34q-1 6 -1 9q2 0 2 2q4 -2 7 -2q0 12 20 23q4 0 6 16l77 65q3 4 20 14q5 8 31 25q0 6 45 23q6 12 28 20q13 11 38 19h2q3 0 15 -3q19 0 59 22q12 0 37 17h33q0 4 2 4q15 -3 23 -3z" />
<glyph unicode="r" horiz-adv-x="1265" d="M505 1312h42q8 -12 38 -12q3 -3 7 -3h6q4 0 25 -4h40q10 4 12 4h24q5 0 14 -1q0 1 10 1q12 -21 23 -21q0 -3 64 -9h10q12 0 38 -36q10 -4 32 -28q11 -10 46 -64q29 -32 29 -41v-8q0 -3 -5 -15v-4q0 -4 20 -34q8 -14 8 -30q0 -48 -22 -162q-1 -17 -8 -17q-24 -11 -24 -24 l3 -33v-3q-23 -33 -39 -47q-9 -5 -40 -38l-2 -1l-13 4h-1q-4 0 -17 -30q-4 -9 -42 -12q-23 -10 -48 -10h-13q-19 0 -39 2q-1 -1 -4 -1v0q8 -8 36 -16q12 -5 12 -8q0 -13 5 -13h1q13 15 22 15q26 -7 85 -17q17 -6 17 -15q13 -23 57 -79q20 -30 20 -36q-3 -12 -3 -15 q9 -44 20 -44q19 0 24 -9q0 -4 27 -35v-9q0 -4 -4 -9v-1q0 -5 17 -9q3 -5 8 -28q12 -21 45 -41q23 -19 39 -42q26 -24 151 -114q13 -9 41 -26q6 1 8 1q3 0 36 -23q8 -5 13 -5q12 0 27 -12q25 -14 72 -38v-2h-22q-43 -4 -54 -4h-113q-10 0 -67 4h-5q-4 4 -6 4q-3 0 -17 1 q-1 0 -9 -8q-2 0 -3 -1q-25 0 -102 21q-23 0 -31 11q-5 6 -47 35q-20 20 -24 20h-11q-1 0 -1 1q-1 0 -1 -1q-12 1 -17 1h-20q-39 40 -95 73q-30 17 -60 54l-35 31q-4 29 -11 29q0 4 -52 57q-4 6 -4 8v17q0 6 -71 98q-20 25 -20 29q-1 1 -1 6v17q-5 21 -38 54q-15 4 -20 15 q-5 15 -19 37q-1 2 -2 2q0 2 1 4q-1 8 -1 14v1q-2 4 -12 9q-9 20 -38 66q0 6 -24 45v4l4 1q85 -10 102 -10q0 12 20 12h14q25 0 73 -1q44 3 44 21q16 30 37 98q3 8 4 22q0 38 -37 97v4q2 11 2 16q0 13 -42 58q-11 23 -30 23q-5 3 -16 18q-40 10 -57 10q-10 2 -31 2 q-7 0 -10 -10q-2 -2 -5 -2h-19q-10 0 -22 1l-50 -5q-6 1 -14 1q-5 -4 -5 -14v-1q4 -38 4 -48v-52l15 -20l-4 -25v-2q0 -23 -3 -140q-14 -6 -14 -13v-51q3 0 3 -2v-15q0 -1 -3 -1v-26q3 -3 3 -7v-77q-11 -15 -11 -19v-12q0 -9 22 -38l1 -7v-88q-3 -9 -3 -10v-66q0 -2 1 -4 q-1 -2 -1 -4v-15q16 -14 16 -23q0 -1 -4 -16v-2q0 -6 1 -16l-1 -2l8 -29q0 -164 17 -188q0 -13 35 -37q34 -22 34 -43q-65 3 -82 3q-1 0 -1 1l-5 -1h-49l-8 -1q-3 13 -18 13q-22 0 -31 -11q0 -1 -9 -6q0 2 -55 4q0 -3 -2 -3h-12q-7 0 -10 5h-7q-6 0 -14 -3q-5 0 -11 6 q-12 4 -18 4h-6l-31 -8q-11 1 -13 1q-6 -3 -7 -3q-74 5 -74 7v1q44 36 50 54q8 13 14 48q0 8 2 8q-2 17 -2 26v37q0 3 2 8q-2 2 -2 5q5 54 5 61v36q0 3 1 9l-1 2q1 10 1 19v12q0 5 1 10l-2 19q0 8 9 18v3q0 11 -16 19l-1 3v5q13 10 13 24q-2 17 -2 34v23q0 5 -13 15l-2 7 q15 25 15 58v16q0 9 -11 132v20q3 12 3 15v34q-3 10 -3 13v12q0 4 3 8v76v105q0 42 -12 111q-1 5 -1 8q0 7 12 12q0 3 1 4q-19 29 -19 42q0 1 2 16q0 16 -44 74q-21 15 -21 31l2 1q29 1 36 1q32 -5 33 -5q3 0 21 1q2 0 10 -4q10 0 12 -1q10 1 18 1h11q2 0 22 -12q7 -3 14 -3 h31q21 0 21 7q12 15 17 15q4 1 9 1h1q6 0 13 -6l60 4q18 5 39 5q13 0 73 -9q8 0 39 11q6 2 23 2z" />
<glyph unicode="s" horiz-adv-x="763" d="M487 1305q23 0 102 -16q55 -19 55 -30v-2q-2 -23 -3 -40q-7 -9 -7 -16q0 -70 10 -96v-22q5 -26 5 -35v-3q0 -1 -8 -3q-3 1 -10 15q-14 18 -26 23q-8 3 -20 21q-46 36 -72 37q0 -4 -89 -22q-21 -8 -29 -8h-1q-2 0 -17 5v-5q-31 -17 -40 -23q-16 -19 -21 -19l-4 4h-1 q-6 -4 -28 -36h-9v-4q3 0 5 -1q-4 -11 -12 -11h-5q-2 0 -4 -4q0 -7 2 -7q-1 -9 -1 -13v-27q0 -58 15 -70q16 -23 45 -41q7 -7 31 -14q67 -36 68 -39l-1 -11q4 -1 15 -13q4 -2 6 -2q23 3 29 3h1q4 -7 13 -31q9 -10 65 -23q8 -4 30 -23q18 -8 24 -21q-6 -12 -6 -15v-21h2 q7 3 19 13q9 0 18 -24q0 -3 34 -39q37 -41 42 -56l-1 -11q1 -4 3 -4h7l5 1q6 -6 13 -41q8 -9 8 -41q11 -19 11 -58l1 -33l-1 -1h-5q0 7 -14 29v2q0 5 1 20q0 3 -10 16q-3 16 -15 32h-3q10 -25 10 -53q1 0 1 -6q-2 -1 -3 -1v-7q8 -36 8 -53v-10q-7 -41 -16 -114 q-19 -29 -38 -54l-11 -54h-3l-1 6h-1q-9 0 -9 -14q-50 -38 -58 -38q-16 0 -67 -17q-52 -14 -76 -23q-12 1 -12 2q-1 0 -1 -1l-62 1q-30 -15 -36 -15h-2q-16 1 -16 4v1q0 1 1 3q0 8 -31 8h-4q-13 0 -43 -4h-4q-41 5 -64 5q-7 15 -43 15q0 1 -17 2v1q0 14 11 18q11 10 11 17 l-2 2h-1q-11 0 -48 -36q-66 12 -66 15v14q0 1 2 1h5q16 60 16 92q-5 1 -5 8q0 35 12 76q0 6 13 45q2 25 12 25q7 -17 45 -52q2 -2 3 -6q-1 -2 -1 -3q20 -7 26 -10q11 -8 42 -15q49 -4 50 -10q-12 -9 -12 -16v-1l2 -20h5v3q9 28 11 29q2 3 18 8q14 -4 75 -4q4 0 45 3 q1 0 4 -1q15 0 30 25q11 14 24 14q14 4 20 14q21 34 21 73v7q0 49 -45 122q-25 32 -52 39q-41 10 -65 29q-13 6 -13 16q0 1 2 13v3q-2 0 -10 -2h-6q-30 0 -30 8q0 12 -29 32q-12 6 -79 32q-9 6 -12 6l-7 -1q-49 32 -80 78q-10 11 -19 40q-7 4 -19 39q-9 17 -9 27q0 4 1 12 q-2 11 -2 14q2 14 2 23q0 3 -7 10q-5 35 -5 49v4q17 12 25 24q-2 3 -13 6q-2 0 -2 1v5q0 24 45 117q22 34 54 89q39 43 47 43q0 4 74 9q26 14 81 33q20 11 41 16v-1l1 1q2 0 2 -2v-12l5 -1q16 2 20 2h1q-4 14 -4 18q0 2 35 10q11 0 72 -1q3 5 8 5z" />
<glyph unicode="t" horiz-adv-x="1028" d="M175 1321q1 0 14 -8h4h20l25 -6q6 0 46 1q39 -9 43 -9l35 8q8 0 8 -10q0 -5 7 -5q15 10 33 10q101 -2 128 -3q52 1 71 3q18 0 18 -12l1 -6h2q6 0 15 15q11 0 11 4q0 3 3 4q18 -8 29 -8h17q9 0 23 6q102 9 130 9q19 0 19 -6q1 0 1 -1q19 -2 27 -2h14q7 0 24 8l4 1 q12 0 15 -11q5 -17 20 -94q6 -26 19 -26q15 -7 15 -22q0 -9 -2 -38q0 -15 13 -42q6 -22 6 -28q-2 -7 -4 -7h-1q-49 50 -62 53q-64 33 -154 33l-50 7q-3 -1 -4 -1q-6 8 -8 8h-1q-12 0 -48 -34q-9 -9 -13 -9l1 -2q-7 -20 -10 -20l-4 1q-4 -17 -9 -80q-7 -19 -7 -34 q1 -36 1 -41q0 -9 -4 -9h-2q-1 -1 -3 -18q1 -44 1 -71q0 -12 -1 -36q0 -16 12 -16h10q2 0 2 -3q0 -6 -11 -11q-4 0 -7 -69q1 -3 1 -4h1q3 0 5 1q3 -1 3 -3v-12q-8 -8 -8 -28v-3q0 -3 -2 -3q0 2 -3 4v-1q0 -3 1 -8q-3 -19 -3 -29q0 -3 7 -10v-58q0 -4 7 -14q1 -5 1 -8v-4 q0 -11 -1 -36q-8 0 -8 -16q0 -23 9 -45v-5q0 -32 -1 -124q0 -2 1 -53q-1 -24 -1 -49v-10l3 1q6 -11 6 -39l-1 -4h-7q-1 -13 -1 -21q0 -6 15 -10l2 -6q-2 -24 -2 -38q4 -16 28 -40q27 -17 37 -32l-2 -1q-61 9 -86 9h-23q-79 0 -79 13q0 3 -19 4q-3 0 -27 -4h-8q-6 0 -6 -10 l-3 -1h-3q-4 0 -28 -4h-2q-29 0 -79 -1q-4 0 -17 8h-57q-3 0 -3 3q6 12 25 21q12 10 25 40q18 18 18 46q2 10 12 25q8 27 8 57v1q0 4 -9 18v3q0 8 9 52q0 8 -13 23q-2 6 -2 11q6 25 6 33v3l-6 55q0 19 -2 54q2 8 5 8h2l7 -2q3 0 3 26v49v1l-1 5q1 2 1 6q0 13 -10 90v11 q0 6 24 11q0 1 1 1q0 6 -18 11q-8 5 -8 29q2 44 5 115q0 6 -3 15q1 12 1 20v7q0 5 -14 7q0 2 -2 5q24 35 24 42h-2h-1q-7 -5 -10 -5q-2 0 -2 2v4q0 5 6 16v4q0 77 -11 169q-8 16 -25 25l-40 15q-5 0 -20 1q-76 -1 -102 -1q-19 8 -25 8h-4q-58 0 -92 -25q-46 -49 -62 -55 q-3 -2 -5 -2l-2 10q0 34 20 107q5 18 19 26q5 0 18 112h2h105q8 -1 13 -1v6q0 1 3 3z" />
<glyph unicode="u" horiz-adv-x="1232" d="M292 1302h2q15 -17 21 -17h2q10 0 44 14h3q16 0 59 1q46 -1 70 -1l1 -2q-14 -13 -32 -22q-35 -38 -35 -61q-5 -24 -10 -72q-5 -12 -5 -33v-66q0 -33 -11 -112q-4 -8 -17 -25l13 -19l9 -38q0 -23 1 -46q0 -93 -8 -121q-1 -8 -1 -11q7 -48 7 -59v-25q0 -22 7 -55v-11 q0 -1 -6 -2q0 -1 -1 -3q7 -47 22 -89q3 -11 6 -34q23 -4 23 -15q3 0 5 -44q5 -25 22 -42q23 -16 23 -35q5 -13 51 -29q11 -4 40 -28q7 0 11 1q13 -1 24 -1h4q9 0 9 -7l5 -1h20l9 -6h1q0 10 19 15q15 -2 18 -2q6 0 41 16q3 0 13 4l1 -1q30 12 42 27q9 14 27 14q42 29 54 72 q8 27 14 81q6 12 25 42q9 20 9 40q-2 27 -2 50v159q0 18 -7 67v199q0 21 2 75q0 11 -9 51q-1 9 -1 25v9q0 7 8 14v4q0 5 -12 16q-3 5 -3 7q0 7 1 17q0 24 -22 51q-47 47 -47 60l2 1h41q3 0 9 1q10 0 29 -8h37q2 0 18 -2h1q15 0 55 9h2q27 -7 33 -7h5q3 0 16 6q5 1 11 1h110 q2 -1 2 -2v-12q-14 -7 -21 -17q-39 -51 -41 -70v-4q2 -14 2 -15q0 -5 -21 -38q-4 -24 -4 -54q0 -70 10 -93q0 -2 1 -4l-8 -71l1 -64l-8 -42q1 -17 2 -84l-2 -28q1 -6 1 -8v-23q0 -40 -14 -79q0 -6 17 -24q4 -12 4 -25t-1 -58v0v-1q0 -3 -6 -27l-1 -5q1 -27 1 -48v-7 q-9 -29 -34 -98q0 -2 -23 -35q-5 -6 -16 -55q-4 -19 -8 -19q0 -3 -10 -5h-20q-19 0 -28 -43q-9 -20 -72 -69q-29 -24 -79 -39q-87 -21 -118 -21q-40 2 -60 2q-11 0 -11 -10q-2 -4 -9 -4q-16 0 -106 23q-48 0 -54 11q-6 13 -33 22q-80 25 -100 35q-36 14 -47 42q0 1 -4 10 l2 2h2q37 0 42 6h-2q-47 0 -99 21q-58 96 -91 163l-33 75v3q0 6 7 24l-13 219v3q0 5 6 49q-22 13 -22 17q-2 9 -2 15v12l4 58q0 17 -2 40q0 13 16 73v3q0 8 -16 49q-5 5 -6 113q1 12 2 39q0 22 -7 22l-2 4q3 35 3 39q0 24 -42 63q0 4 -30 16q-19 16 -19 27l2 1h139 q4 0 10 -1q2 1 4 1q12 0 12 -7q18 -1 26 -1h4q12 0 30 9l9 -1q12 0 49 -1q2 0 7 4z" />
<glyph unicode="v" horiz-adv-x="1331" d="M167 1310q6 0 12 -8v0l-1 6l1 1q1 0 24 1q9 0 12 -8h2q3 0 6 7l12 1h3q60 0 60 -7q10 -9 27 -9h1q5 0 10 8q2 0 4 1l6 -1h4q3 0 13 6q6 1 11 1h89q2 0 3 1q2 -1 4 -1q7 0 27 -1l5 1l1 -2q0 -2 -29 -27q-24 -21 -24 -36v-11q0 -2 -1 -4q1 -11 3 -11l3 2h2l2 -7v-8 q0 -3 -2 -11q5 -15 37 -80q30 -66 30 -84q0 -21 11 -21q24 -58 56 -165q36 -94 53 -136q21 -40 41 -86q17 -15 17 -21q1 -49 17 -60h1q18 0 30 67q9 26 32 94q20 18 20 57q0 7 23 50q19 49 94 199q19 41 43 111q11 29 15 31q23 4 23 10q-16 24 -16 29q2 1 4 1l4 -1 q1 12 15 34v18l-1 6l-5 -1l-2 4v4q0 6 2 20q0 7 -29 23l-3 5h22l6 7h6q6 0 13 1q8 0 13 -7q1 -1 3 -1h11q51 -8 58 -8q9 1 14 1h37q14 0 28 -16l4 -1q3 0 23 2q2 -1 3 -1v20q1 3 3 3h52l36 7h2q19 -3 28 -8v-13q-43 -37 -50 -55q-11 -24 -38 -51q-40 -27 -58 -81 q-16 -39 -24 -79q0 -2 -24 -42l-27 -65q-24 -39 -29 -59q-5 -30 -18 -30q-19 -5 -19 -10q-14 -51 -38 -108q-17 -45 -22 -47q-16 -9 -16 -21v0q3 -14 3 -15q0 -13 -77 -160q-9 -34 -17 -38q-4 -6 -6 -15q8 -10 8 -13l-2 -1q-1 0 -2 1q-13 -2 -22 -2q-2 1 -3 1v-7q9 -7 9 -17 v-6q0 -13 -30 -70q-61 -154 -101 -248q-18 -38 -29 -50q-53 35 -61 67q-9 24 -39 67q-5 9 -5 13v1q0 5 15 28v2q-5 6 -15 24q-26 8 -26 12l-2 7q6 3 6 10q0 15 -16 22q-10 20 -28 78q-38 89 -114 234q-9 19 -18 47q-28 32 -32 51q-4 10 -11 20q0 3 1 3q4 0 20 -9v0 q-12 55 -25 55q-12 12 -36 76q-14 24 -14 37q0 3 1 5q-3 13 -29 57v1q0 3 7 4v2q-8 28 -26 44q-33 47 -49 88q-34 87 -96 174q-23 33 -66 63q-3 1 -41 25v1h63q5 0 14 -6q3 -1 7 -1q1 7 3 7h1q4 0 38 -7q2 0 22 7q6 0 19 1z" />
<glyph unicode="w" horiz-adv-x="1819" d="M1506 1324q8 0 12 -8q2 -1 4 -1h9q55 -8 62 -8l7 1h42q14 0 27 -15l5 -1q3 0 23 2q2 -1 3 -1v20q0 2 2 2h53l35 8h2q7 0 29 -8v-14q-44 -37 -51 -56q-10 -25 -41 -51q-30 -26 -39 -45q-34 -74 -36 -103q0 -8 -30 -55q-21 -67 -40 -89q-6 -10 -19 -53q-4 -8 -26 -14 q-6 0 -9 -20q-11 -36 -38 -101q-13 -42 -23 -42q-11 -8 -11 -15v-3q3 -13 3 -17q0 -9 -75 -154q-12 -39 -22 -45l-3 -12q8 -10 8 -13l-2 -1q-2 0 -2 1q-13 -2 -22 -2q-2 1 -3 1v-7q10 -8 10 -16v-6q0 -13 -31 -71q-59 -149 -101 -247q-14 -30 -29 -50q-50 32 -60 64 q-9 26 -42 71q-2 8 -2 11q0 7 13 28q1 2 1 3q-4 5 -14 25q-27 7 -27 12l-2 7q6 3 6 11q0 13 -12 18q-11 8 -27 71q-44 103 -96 196q-36 -67 -43 -95q-13 -16 -13 -26q7 -9 7 -13l-2 -1q-2 0 -2 1q-13 -1 -22 -1h-3v-6q10 -8 10 -17v-6q0 -13 -31 -71q-59 -149 -101 -247 q-13 -30 -29 -50q-50 32 -60 65q-9 25 -41 70q-3 8 -3 11q0 7 14 29q1 2 1 3q-5 4 -15 24q-27 7 -27 12l-2 7q6 3 6 12q0 13 -15 20q-11 21 -28 78q-38 88 -115 233q-7 18 -17 48q-28 30 -32 51q-8 15 -12 20q1 2 2 2q4 0 19 -9h1q-12 55 -26 55q-12 13 -35 77 q-15 23 -15 37q0 2 1 4q-8 25 -28 57v2q0 2 7 3v2q-8 27 -34 55q-21 26 -56 112q-31 70 -86 146q-35 39 -52 49l-50 32v1h63q5 0 14 -7q3 -1 6 -1q2 8 4 8h1q4 0 38 -8q3 0 21 8q7 0 20 1q6 0 12 -9q2 0 2 2q-3 0 -3 5l2 1l23 1q9 0 12 -9h2q2 0 6 8l12 1h4q58 0 58 -8 q10 -8 27 -8h3q3 0 9 7q2 0 4 1l5 -1h4q3 0 14 7q4 1 8 1h87q4 0 9 1q0 -1 29 -2l6 1l1 -2q0 -2 -27 -24q-26 -25 -26 -37q0 -15 -1 -17q1 -11 2 -11l3 2h3l1 -7v-10q0 -3 -1 -9q5 -16 32 -70q34 -74 34 -94q0 -19 10 -19q6 -5 34 -94h-2q-13 -2 -13 -12q2 -12 13 -19 q6 -2 13 -20h3l2 1q50 -139 79 -197q22 -49 27 -54q14 -4 14 -27q0 -29 13 -46q2 0 3 -1q18 0 30 67q10 25 31 92q21 21 21 56q0 11 21 49q1 2 1 4v10q8 0 12 17q32 18 32 47q0 2 -1 11q0 5 6 26q1 6 1 10l-1 2q14 24 14 34q7 5 12 28q18 12 26 36q5 7 10 29q10 2 10 10v23 q0 1 10 7q9 32 11 33q10 0 15 20h1q22 -16 26 -29l12 -28v-9l8 -36q0 -14 7 -21v-9q6 -26 14 -40q0 -5 14 -25q0 -19 21 -38q0 -9 11 -25v-1q-8 -18 -12 -32q41 -114 69 -172q23 -49 27 -55q15 -7 15 -29q0 -30 14 -47h3q18 0 30 66q9 25 31 93q20 19 20 50q0 16 20 51 q28 68 97 204q21 44 41 105q13 35 17 37q24 7 24 12q-16 24 -16 28v1h1l7 -1q1 12 15 36v18l-1 5l-5 -1l-2 3v5q0 6 2 20q0 6 -29 23l-3 4h22l6 8h6q6 0 13 1z" />
<glyph unicode="x" horiz-adv-x="1346" d="M85 1299v0l31 -4q65 3 70 3q7 0 23 -18h8l4 2v2l-9 10v1q53 3 72 3h1q101 -2 101 -6v-1q0 -2 -8 -9v-2h9q5 0 12 10q9 6 38 6h29q21 0 69 -1l1 -2v-1q-2 -3 -13 -7v-3q1 -6 1 -9q0 -4 -2 -27q0 -1 1 -8q-1 -16 -1 -23t9 -21q9 -40 30 -55q27 -33 50 -79q15 -23 26 -23 q11 -6 27 -58q3 -25 34 -62l2 1h3q4 -3 4 -5q12 5 46 78q18 35 88 109q4 4 7 4h2q16 -2 18 -2l6 3q-4 8 -4 17v2q0 39 14 53q3 9 3 11q-1 29 -1 38h1q-4 17 -25 43q-11 11 -16 25q19 4 45 4h11q59 -3 67 -3h25q6 0 12 -13q8 -3 21 -3h3q9 0 15 13l2 2h67q39 0 63 5h3l99 -4 l1 -2v-11q-1 -2 -24 -11q-27 -11 -97 -79q-37 -41 -66 -68q-42 -83 -58 -102q-56 -64 -79 -106q-9 -20 -44 -55q-33 -28 -33 -57q-7 -14 -40 -62q-5 -11 -5 -16q30 -27 46 -56q64 -88 64 -101v-5q-6 -22 -6 -27v-1q2 -18 15 -18t19 -12q32 -23 32 -34q13 -47 23 -66 q29 -34 41 -52q69 -121 156 -253q44 -51 68 -62q25 -18 36 -27q16 -20 19 -29h8v-2h-6q-37 0 -42 8q-9 7 -21 7q-69 -1 -100 -1q-6 0 -17 11q-9 5 -25 5h-1q-46 0 -46 -4q0 -12 -13 -12q-48 0 -48 7q-3 8 -15 8q-5 -1 -5 -3t1 -9q-3 -3 -8 -3q-54 -1 -66 -1q-21 0 -56 13 q-15 4 -26 4q-32 -1 -40 -1l-1 2v12q18 21 18 50v7q0 20 -12 66q0 24 -24 48q-27 48 -70 128q-21 31 -86 115q-1 3 -1 4h-1q-4 0 -24 -13q-2 0 -9 -8q-4 -1 -35 -40q-41 -48 -82 -122l-56 -99q-16 -41 -16 -61l8 -53v-23q0 -13 -3 -13h-24q-11 13 -13 13q-15 -1 -23 -1 q-14 2 -23 2q-55 0 -55 -9q-5 -5 -6 -5h-4q-10 0 -14 10q0 4 -39 4h-8q-11 0 -28 -12q-2 -2 -7 -2q-7 0 -39 13h-2v-1l3 -9v-3h-104q-15 0 -41 -14q-2 -1 -4 -1l-1 2q0 4 13 23q0 4 25 21q45 41 59 46q19 12 44 37q70 70 76 85q29 43 70 117q12 15 53 49q10 8 38 68 q14 22 22 22h3l13 -2q7 0 9 13v4q0 3 -8 19l-1 3q1 16 80 109q5 9 26 35q6 12 6 19q0 16 -36 53l-36 55q-6 38 -14 38q-9 3 -37 10q-21 58 -102 156q-22 31 -88 129q-38 36 -39 39v1h1l14 -4v1q-25 51 -36 67q-14 3 -17 12q-29 45 -52 68q-1 0 -3 1q0 4 7 8z" />
<glyph unicode="y" horiz-adv-x="1384" d="M0 1331h9q34 0 40 -9q9 -7 18 -7q69 1 104 1q5 0 19 -12q9 -3 25 -3q5 0 5 4q0 12 14 12q47 0 47 -7q3 -8 15 -8q6 1 6 2q-1 5 -1 9q1 3 6 3q60 2 69 2q18 0 59 -14q14 -3 22 -3q32 1 41 1l1 -2v-10q0 -1 -13 -22q-6 -19 -6 -31v-6q0 -21 14 -68q0 -24 23 -47 q28 -51 70 -130q14 -19 104 -150q2 -2 2 -4h1q3 0 23 13q25 34 32 43q5 1 30 33q48 55 93 139q13 24 51 89q17 42 26 73q-8 44 -8 63v13q0 13 3 13h24q11 -13 13 -13q15 1 23 1q14 -3 23 -3q56 0 56 9q5 6 6 6h4q10 0 14 -11q0 -3 39 -3h9q11 0 27 12q3 2 7 2q8 0 40 -13h1 v1l-3 11l2 1h105q13 0 42 14h2l1 -2q0 -3 -13 -23q0 -4 -25 -20q-46 -42 -56 -45q-16 -7 -97 -88q-44 -50 -75 -108q-31 -57 -44 -70q-57 -41 -65 -75q-25 -51 -37 -51h-3q-13 2 -14 2q-7 0 -8 -12v-4q0 -3 8 -23v-1q0 -15 -70 -98q-18 -27 -38 -43q-10 -9 -10 -21 q1 -8 1 -9q0 -9 -9 -20q-2 -5 -4 -23q-10 -12 -10 -25v-10q0 -2 -1 -4q9 -14 9 -18v-84q-4 -10 -4 -13v-67q0 -5 -1 -15q0 -2 15 -19v-10l-4 -13q1 -14 2 -15q-1 -2 -1 -3q2 -12 8 -27v-79q0 -28 1 -34l-1 -2q1 -9 2 -11q0 -1 -1 -1q9 -65 24 -77q8 -10 40 -31 q18 -19 19 -32q-1 0 -1 -1q-68 5 -100 6l-2 -1l-6 1h-13q-6 0 -12 -1q-14 0 -14 7q-5 5 -11 5h-12q-15 0 -24 -11l-8 -5l-33 3q-1 0 -1 -1l-6 1h-12q-1 0 -1 1l-5 -4h-8q-12 0 -14 5h-8l-19 -3q0 6 -24 10h-3q-8 0 -32 -8q-11 1 -18 1q-7 -3 -9 -3q-7 0 -75 7l-1 2l37 28 q29 31 31 47q0 1 7 27q1 5 1 12v26q0 2 1 4l-1 2q10 84 14 194l-1 6q0 9 9 19l1 4q0 10 -16 20v4q0 4 7 9q5 6 5 15v9q0 6 -1 15l1 2q-1 2 -1 4q0 1 1 1q0 1 -1 3q1 15 1 24l-12 14q-2 3 -2 5q16 23 16 66v10q0 1 1 1l-1 2v10l-1 6l1 2q-3 14 -22 35q0 2 -12 18q0 7 -33 19 q1 5 1 7q0 13 -26 50q-22 13 -32 24q2 8 2 14v2q-2 19 -14 19q-16 0 -16 13q0 18 -33 51q-19 23 -22 39q-8 15 -39 49q-78 135 -162 265q-40 46 -72 67q-42 23 -54 54h-8v2z" />
<glyph unicode="z" horiz-adv-x="1293" d="M179 1321q4 0 33 -13h8q7 5 15 5q29 -10 55 -10h5l7 -5l1 2q0 1 -3 8l3 1h2q8 0 96 -13q5 -1 20 -1h9q40 0 60 8h32q27 3 34 3h13q25 0 51 -1q56 6 64 6q18 -2 36 -2h36q1 0 1 -2q0 -3 -20 -8l-4 -4h2q8 0 19 -1q63 4 84 4h44q1 11 3 11h75q9 -10 15 -10q21 5 24 5 q14 -1 25 -1h3l128 6q6 0 37 -8h1l34 2q0 1 8 3h4q6 -8 11 -8h15l10 5h12l2 -2q-7 -21 -32 -52q-5 -9 -5 -14v-22q0 -6 -33 -46q-28 -37 -52 -79v-2q0 -10 -2 -25q2 -1 2 -2q-22 -17 -49 -72q-29 -45 -80 -133q-23 -35 -29 -35q-23 -3 -23 -4v-1q12 -16 12 -18l-1 -4 q1 -4 1 -6q-10 -6 -25 -37q-4 -2 -6 -2h-11v-25q-37 -43 -74 -111q-11 -17 -18 -60q-6 -19 -31 -19q-11 0 -19 -16q-47 -62 -63 -86q0 -8 16 -15l2 -8q-21 -12 -32 -42q-9 -22 -86 -107q-11 -16 -21 -34q3 0 7 -3h4q62 3 62 6q6 0 19 -3q15 2 29 2h5q14 0 87 -8h2q5 0 31 3 q34 -3 39 -3h28q4 0 8 -16q5 0 38 19q12 1 17 1h11l72 -3h1q14 0 44 10q32 3 42 11q3 1 57 57h3q0 -2 2 -2l-1 -13v-3q0 -2 2 -9q0 -19 -17 -75q1 -24 1 -39v-4q0 -2 -18 -4q-12 -6 -12 -46q0 -3 -16 -57q-4 -30 -6 -30h-1q-43 8 -48 8l-73 -8q-52 0 -68 18l-3 1q0 -2 -6 -8 h-12q-13 0 -13 -1q-12 1 -20 1h-65q-13 11 -17 11h-6q-19 -9 -28 -9q-31 0 -82 9q-11 0 -64 -8h-56q-4 0 -26 11q-6 1 -14 1h-2q-59 -4 -68 -4h-4q-9 0 -12 -3h-6q-3 0 -20 10h-4l-51 -7l-115 -3q-23 -5 -58 -9q-17 -8 -32 -10h-18q-57 -8 -111 -12q-4 -3 -10 -3 q-23 0 -58 9v2q56 26 76 43q23 21 51 21h6q2 16 6 16q18 2 40 22q45 37 94 97h5h29h1h4q-3 4 -22 18v1q46 33 64 52l39 51q46 61 69 108q7 14 7 20q-7 11 -11 18q11 4 23 15q19 29 45 87q32 40 33 47q-10 13 -10 18v1q38 35 55 64q0 20 34 79q12 35 22 35q2 -1 4 -1h3 q8 8 31 62q26 47 59 94q21 44 31 44q7 0 11 26q4 13 12 19q15 12 55 66q3 1 14 17h-1q-41 -22 -49 -22q-3 9 -15 9q-47 -1 -49 -2q-14 0 -19 10v1q4 16 4 20v3h-2q-4 0 -17 -32l-4 -4h-4q-8 11 -20 11h-2q-10 -8 -14 -8h-9q-22 8 -49 8q-58 0 -137 -17q-10 -7 -18 -7 q-19 1 -23 1q-11 -2 -48 -21q-5 -4 -13 -23q-5 -3 -10 -3q-4 0 -24 34l-66 79q-58 73 -82 99q-25 23 -30 31v3z" />
<glyph unicode="|" d="M600 1597q0 -10 -12 -59q-3 -12 -3 -17v-5q2 -22 2 -56l1 -21q0 -13 -1 -22q3 -135 6 -183q-1 -13 -1 -27l1 -11q0 -4 -3 -55q0 -31 7 -137l-2 -122q1 -13 1 -17v-38q1 -36 1 -42q0 -80 -1 -97q1 -19 1 -35q-1 -22 -1 -133q-2 -106 -2 -238v-12q0 -31 1 -57q-1 -11 0 -32 v-21v-37q0 -14 4 -153v-52q0 -22 1 -39v-6q0 -16 -2 -15v1l-5 14l-1 1v-2q0 -7 -3 -59q0 -9 14 -30l1 -3v-2q-2 -4 -2 -12q0 -5 3 -50q1 -17 -7 -16q-32 12 -39 9q0 -1 -2 0q-3 2 -5 6q-4 0 -10 -4q-1 0 -2 1q-1 0 -6 6q-5 4 -12 -15q-7 -3 -27 0q-9 -15 -16 -13q-1 0 -1 2 q2 21 2 41l-1 21q0 6 1 61v5q-1 25 -2 81v54q0 10 -5 113v10q0 21 3 101q-1 22 0 57q-2 78 -2 125v7q-1 54 2 129q0 11 -1 40l1 15q-3 57 -3 91q-1 20 8 47q3 10 3 15v8q0 13 -1 43v12v14q0 9 -3 67v72q-3 195 -3 237q0 10 5 46q1 7 1 20v9q-1 11 -7 57q-1 10 -1 22v16 q-1 60 1 109q0 11 -1 27q-1 51 6 154l1 2v0q1 -4 3 -5l2 -2q7 -5 54 13q25 7 42 -5l2 -2q15 -14 15 -22z" />
<glyph unicode="~" d="M221 352h-7q-50 15 -21.5 18t36.5 23q6 7 9 44q7 33 11 33q-21 -6 13 44q4 18 49 46l4 3l6 1l18 6l33 7q-6 -11 9 -5l18 8h6q54 0 80 -16l26 -16q14 -13 38 -20q53 -59 72 -68l18 -10q22 -12 52 -12l8 -1q10 0 33 8h7l14 -1q38 7 48 17q2 9 1 16v0q6 10 3 44.5t51 -25.5 q6 -7 7 -11l2 -5q10 -29 -19 -77q-1 -13 -11 -16q-72 -68 -64 -43q-38 -28 -108 -21l-8 6q-43 -7 -91 28l-10 14v-11l-19 16q-34 35 -59 45q-17 10 -34 16v0v5h-28h-16q-56 0 -102 -45q-7 -13 -21 -29q3 -8 -6 -8q-27 -8 -25 -2l-13 -6h-10z" />
<glyph unicode="&#xa1;" horiz-adv-x="672" d="M595 793v0h1v0h-1zM424 821q0 -3 -2 -5q-11 -39 -11 -54l3 -66q-2 -21 -2 -43q0 -2 -1 -4l1 -2q0 -54 6 -130q-14 -9 -14 -10v-3q0 -4 6 -11l8 2l2 -1q0 -36 6 -74h2q3 0 5 24h3l1 -6v-2q0 -12 -4 -48q5 -21 5 -31v-5q0 -27 5 -72l3 -3q-10 -76 7 -103q11 -197 15 -250 v-1h-5v-1q0 -3 3 -6q8 0 8 -32v-18q0 -26 4 -85q3 0 5 -2q0 -6 -1 -41q6 -38 8 -41q-1 0 -1 -1q-9 3 -22 3h-3l-16 -3l-82 -1l-46 18q1 -16 -13 -16h-1l1 -2l-1 -2l-18 1q-14 0 -81 6q-6 -1 -10 -1q0 -7 -26 -8q0 1 -2 1q0 68 4 104l-14 -6q7 6 16 63v1q0 17 12 17 q0 3 -11 9q0 7 13 161q25 19 25 21t-3 2q-1 0 -8 -2h-7q-2 0 -6 2q4 64 7 88q10 7 10 17q-10 19 -10 45l9 9q0 2 1 3l2 -1q5 189 12 205l4 62v7q0 12 9 12q0 22 -2 56q0 13 5 40q-3 29 -3 31v2q2 3 3 3q0 47 -2 57q1 1 1 6q-3 42 -3 47l1 9l-5 15l8 8h2q-5 29 -10 34v1 q11 0 18 -6q47 -20 61 -23l13 5q7 -7 14 -7h5q7 0 21 1q8 0 24 15q2 0 2 -5h2q23 22 32 22zM249 781v0h1v0h-1zM272 1025q-3 0 -15 4q-1 0 -3 2q-2 0 -5 6l-3 9l-1 1v-2q-6 11 -6 15v4l-1 3v1l-1 5q1 1 1 2v1q0 6 3 11q2 6 4 10q0 3 3 6q2 2 6 4q1 7 3 11q0 5 4 8l14 14 q7 6 14 8q1 0 6 1h1q1 0 15 5q16 2 22 3t9 1h1q4 0 10 -3l5 -1q0 1 3 2l11 -4q2 -1 4 -1h3q5 0 16 -7q2 -1 2 -5q0 -1 2 -1l3 2q1 0 5 -4q4 -1 6 -1q4 -5 8 -6q17 -16 17 -22q0 -1 -1 -8v-1l4 1q0 -4 3 -5q3 -5 3 -7q-1 -3 -1 -4q0 -2 3 -8v-1q-3 -2 -3 -3l1 -4v-1l-1 -20 q0 -1 1 -3l-1 -2v-3q0 -1 -2 -9v-4q0 -3 -4 -19q0 -2 -2 -2l-2 2h-1q1 -4 1 -5q0 -3 -6 -20q0 -6 -7 -12l-1 -1h-1q-1 0 -5 1q-1 0 -1 -1t2 -3q0 -5 -5 -12l-16 -16q-2 -1 -4 -3l1 -1v-1q-4 -3 -10 -6h-2q-2 0 -5 -3q-5 -3 -6 -3q-5 3 -8 4q-1 -3 -3 -3h-1q3 -2 3 -3t-6 -1 h-14q-4 0 -6 -4q-1 0 -1 -1q4 0 4 -1q-4 -2 -6 -2l-20 1q-3 0 -6 -1q-2 0 -4 4q-1 0 -1 -1v-3h-2q-3 0 -9 2q-2 0 -4 2q-11 5 -12 7h-2l2 1v1q-3 1 -10 2q-10 3 -13 7q-1 2 -10 9q-7 7 -12 10q1 0 1 2q0 3 -9 17l-1 1v-1h-1q-2 11 -5 11q0 1 -4 8q-5 8 -5 12v3q-2 4 -2 7v1 l1 3q-1 6 -1 12q0 19 10 39q1 3 3 6q1 2 2 5q3 9 9 11q-7 -13 -8 -23q-1 -6 -1 -17q0 -2 2 -12q1 -3 5 -19l1 -2l1 5q3 -12 6 -17q2 -1 4 -6l3 -4l1 1l5 -4q9 -6 15 -8h3v-1h-2q0 -2 18 -3h7q0 1 1 1q1 -3 2 -3t5 3l1 1l2 -2q4 1 5 2q3 1 8 4q2 1 5 2h2q1 0 1 3h1l1 -2 q1 0 8 8q6 4 6 7q0 2 -2 4q6 4 6 6q0 1 3 4q1 4 5 11q0 10 1 10l3 4q0 1 -2 2v8q0 2 1 3q-2 0 -2 1q2 4 2 8q0 1 -1 6q0 1 -1 1l-4 -2q-1 4 -5 7h-1q-1 0 -4 4q-2 1 -2 3l1 2l-4 1q-1 2 -6 3q-4 1 -6 1q-1 0 -3 -1q-2 2 -4 2h-2q-2 0 -10 3q-1 1 -3 1t-7 -3h-1q-2 0 -2 2h-2 l-3 -2v-1l-4 -2q-2 -4 -4 -14v-4q2 -12 3 -12l6 -10q2 -4 4 -4h1q1 0 5 -6l-1 -1h1q1 0 2 1h2q0 -1 -2 -2h4q4 -3 10 -3q4 0 7 2q2 1 4 3h1q-6 -12 -8 -14l-1 2q-7 -4 -8 -4l-3 -1q-3 2 -4 2q-2 0 -3 -1q-4 0 -20 4z" />
<glyph unicode="&#xa2;" d="M1247 1452q-5 -10 -40 -54q-8 -11 -10 -16l-2 -3q-3 -21 -14 -51l-6 -19q-5 -12 -8 -20q-40 -121 -52 -165q-5 -12 -9 -24l-3 -10q-2 -4 -23 -50q-10 -27 -34 -123l-43 -111q-4 -10 -5 -15q-4 -11 -12 -34q-11 -32 -13 -38q-26 -72 -32 -88q-6 -17 -11 -31 q-8 -20 -44 -120q-39 -96 -83 -215l-4 -11q-9 -27 -18 -51q-3 -10 -10 -29l-6 -18q-4 -11 -12 -35q-5 -12 -45 -137q-3 -8 -17 -48q-6 -19 -11 -34l-2 -5q-5 -15 -7 -13h-1l-3 13h-1q-1 1 -2 -1q-1 -6 -22 -53q-4 -9 11 -28v-2v-3q-4 -3 -7 -10q-1 -4 -11 -45 q-6 -15 -16 -14q-47 11 -59 8q-1 -2 -4 -1q-2 2 -5 6q-6 0 -17 -4h-3q-1 2 -7 6t-24 -13q-12 -2 -42 0q-19 -13 -29 -12q-1 0 -1 3q10 19 16 36l6 19q2 5 21 55l2 5q8 23 24 73q13 32 18 48q4 10 30 102l2 10q7 18 37 91q8 19 20 50q24 71 38 113l3 7q17 49 46 115 q3 11 11 38l6 13q14 51 25 81q6 18 29 44q8 8 10 13l2 7q5 12 12 38q3 8 4 11l5 13q3 9 17 60q5 14 24 66q60 176 73 214q3 8 24 41q3 7 7 18l3 8q2 10 8 52q2 8 6 19l5 14q19 54 37 99q4 9 8 24q16 47 60 140l2 1v0q1 -3 4 -4l2 -2q9 -4 89 11q41 7 63 -5l4 -1 q18 -13 16 -19zM864 1308l16 -1q13 -1 13 -5q0 -5 9 -6q47 -3 74 -5l26 -2h26q45 -6 45 -8q3 -24 7 -25h1q20 -1 42 15q45 -13 69 -24q17 -13 20 -18v-23q0 -38 -1 -98q0 -6 10 -13l1 -4q0 -10 -1 -21q1 -16 1 -33q-1 -6 -4 -6q-4 3 -6 3l-1 -2q1 -25 1 -34l-2 -1 q-69 71 -94 75q-25 13 -90 31q-16 6 -21 14q-20 1 -20 9q-5 4 -7 4h-17l-8 1v-1q2 -3 2 -6q0 -2 -2 -2l-53 4q0 -7 -9 -7q-26 5 -26 9l2 6q0 5 -15 6h-23l-5 1q-5 0 -7 -12q0 -5 -32 -12l-2 -3v-1l2 -3v-2q-9 -2 -10 -2q-8 1 -25 12l-6 1q-8 0 -16 -8q-64 -27 -98 -92 q-16 -30 -54 -71l-5 -3q0 1 -1 1q7 30 16 29q2 5 2 16q0 2 -1 15q-5 -3 -30 -39q-22 -35 -22 -44q-16 -80 -18 -87q-21 -22 -26 -26q-1 -1 -1 -4v-6q0 -3 1 -8q-2 -4 -4 -4h-1l-4 1v-44q0 -2 -9 -4l-1 -7v-25q0 -22 10 -23q9 -7 9 -16q-2 -21 -2 -28q1 -5 3 -5l3 3h2 q2 -1 2 -2v-14q0 -8 -8 -11q-4 1 -4 -7q0 -14 30 -112q5 -20 18 -49v-1q0 -34 17 -54q12 -20 52 -62q10 -7 22 -30q20 -20 20 -30q5 -7 6 -7t5 2q35 -19 46 -27l27 -24q24 -3 38 -4q22 -2 22 7q4 1 6 1q31 -5 75 -31l7 -1q6 -1 16 7h6h2q1 0 1 -2v-5q7 -3 11 -3l11 -1 q2 0 2 -2l5 2l26 -2q3 0 107 34q6 3 16 17q3 2 8 3q7 -2 18 -3h1q9 0 11 8q18 9 24 8h3q3 0 13 -10l15 -1l2 1l-1 1v6q0 5 -1 10q0 13 20 25q0 1 43 40h1v-1q0 -10 2 -29q-1 -25 -1 -42q0 -3 -9 -29q0 -3 -1 -8q0 -4 10 -26q0 -2 -9 -13q-1 -2 -1 -5v-76q-2 -5 -43 -19 q-14 -7 -118 -52q-60 -1 -134 -8q-5 -17 -8 -17q-8 12 -15 12l-2 1q-12 0 -16 -9q-3 -2 -11 -1h-3q-30 4 -33 4h-1q-8 1 -25 -7h-8l-11 1q-5 0 -50 15q-182 48 -210 61q0 5 -18 7q-5 -1 -7 0q-95 104 -105 105l-2 -2q23 -37 36 -59l1 -4l-2 -1q-13 2 -69 75q-14 24 -30 62 q-3 4 -38 21q-23 24 -31 49q-50 109 -50 117q0 37 -13 38q-7 4 -11 21q-7 29 -7 39q1 17 1 21t-9 12q-1 2 -1 4v4q2 28 2 29l-2 16q0 5 10 21v9q0 5 -9 31v4q9 7 9 11q0 6 -1 25h-2l-5 -5l-1 2q-2 35 -2 47q1 10 4 9h2l11 -4h2l1 4v2q0 3 -10 4q-1 6 -1 8q0 26 24 54 q6 11 6 28t-2 48q2 23 50 75l29 46q24 27 126 136l26 -2q46 40 102 72q31 16 44 15v0q1 0 3 -3l-1 -4l18 -4q5 0 5 2v2q0 5 -1 14l4 2q2 -2 4 -2h1l-1 5v2q0 3 29 6q0 1 9 3v4l-1 3q0 1 4 2q20 -2 32 -3l7 -1q5 0 16 8l5 -1l7 -9l6 -1h7q22 -2 31 8q7 6 12 9q13 -2 18 -2 q7 3 12 7q24 -1 39 -2z" />
<glyph unicode="&#xa5;" d="M1050 655q-17 6 -82 11t-85 3h-12l-43 -4q36 4 27 0t-72 -1l-52 2h-8q-5 -1 -16 0q-16 -1 -18 -1q-35 -1 -42 0q-8 -1 -15 -1q-10 1 -57 1q-46 2 -103 2h-5h-24h-14l-9 -1h-16q-6 0 -67 -3h-22q-10 -1 -17 -1h-2q-7 -1 -7 1v0l7 5l1 1q0 1 -1 0q-3 0 -25 3q-4 0 2 -17 l-18 2l-23 -6q-18 -3 -6 20q-2 16 1.5 20t2.5 12l1 1q1 3 3 5q0 4 -1 10q0 1 1 2q0 1 3 6t-4 13q-1 6 3 26q-5 9 -3 16q0 1 1 1q9 -1 17 -1h9h26h3q10 0 35 1h23q4 0 49 5h5q8 0 43 -2q9 0 24 -1q34 2 54 2h3q24 1 55 -2q5 0 18 1l6 -1q25 3 40 4q9 0 19 -9q4 -3 6 -3h3 q6 0 19 2q3 -1 5 -1l6 1q4 0 30 2h31q84 3 102 3q4 1 57 1q4 1 10 1h7q25 1 46 -1q5 1 12 1q22 1 66 -5v-1v-1q-1 -1 -2 -3l-1 -2q-3 -7 -2 -54q-13 -19 -8 -42l-1 -2q-8 -15 1 -21zM1050 378q-17 6 -82 11t-85 3h-12l-43 -4q36 4 27 0t-72 -1l-52 2h-8q-5 -1 -16 0 q-16 -1 -18 -1q-35 -1 -42 0q-8 -1 -15 -1q-10 1 -57 1q-46 2 -103 2h-5h-24h-14l-9 -1h-16q-6 0 -67 -3h-22q-10 -1 -17 -1h-2q-7 -1 -7 1v0l7 5l1 1q0 1 -1 0q-3 0 -25 3q-4 0 2 -17l-18 2l-23 -6q-18 -3 -6 20q-2 16 1.5 20t2.5 12l1 1q1 3 3 5q0 4 -1 10q0 1 1 2 q0 1 3 6t-4 13q-1 6 3 26q-5 9 -3 16q0 1 1 1q9 -1 17 -1h9h26h3q10 0 35 1h23q4 0 49 5h5q8 0 43 -2q9 0 24 -1q34 2 54 2h3q24 1 55 -2q5 0 18 1l6 -1q25 3 40 4q9 0 19 -9q4 -3 6 -3h3q6 0 19 2q3 -1 5 -1l6 1q4 0 30 2h31q84 3 102 3q4 1 57 1q4 1 10 1h7q25 1 46 -1 q5 1 12 1q22 1 66 -5v-1v-1q-1 -1 -2 -3l-1 -2q-3 -7 -2 -54q-13 -19 -8 -42l-1 -2q-8 -15 1 -21zM0 1457h8q33 0 37 -9q9 -8 18 -8q64 1 96 1q4 0 -16 -13q7 -4 23 -4q41 0 41 5q0 13 14 13q43 0 70 -3q-23 -14 15.5 -5t46.5 9q17 0 55 -16q13 -3 20 -3q31 1 39 1v-2v-10 q0 -2 -11 -25q-6 -20 -6 -33v-7q0 -23 12 -74q0 -27 22 -52q27 -56 66 -143q12 -21 89 -136q2 -3 2 -5h1q11 -29 21 -7q21 32 35 41q4 1 27 37q44 60 87 151q12 27 47 99q16 45 24 79q-8 49 -8 69v14q0 14 4 14h22q10 -14 12 -14q14 1 22 1q13 -3 20 -3q53 0 53 10q5 6 6 6 h3q10 0 13 -11q0 -4 37 -4h7q11 0 26 13q3 2 7 2q6 0 36 -14h2v1l-3 12l1 1h99q12 0 39 16h2v-2q0 -3 -11 -25q0 -5 -24 -22q-43 -46 -52 -50q-15 -7 -91 -97q-41 -53 -69 -117q-29 -63 -41 -77q-53 -45 -61 -82q-23 -56 -34 -56h-2l-13 2q-7 0 -9 -13v-4q0 -4 9 -25v-1 q-1 -17 -66 -107q-17 -30 -35 -48q-10 -10 -10 -23q1 -9 1 -10q0 -9 -8 -22q-2 -5 -4 -25q-9 -13 -9 -27v-11q0 -3 -1 -4q8 -16 8 -20v-92q-4 -11 -4 -14v-74q0 -6 -1 -16q0 -2 15 -21v-11l-4 -14q1 -15 1 -17v-3q1 -13 7 -29v-87q0 -30 2 -37l-1 -2q1 -11 2 -12q0 -2 -1 -2 q8 -71 21 -83q8 -12 38 -35q17 -21 17 -35v-1q-63 5 -94 6l-2 -1l-5 1h-12q-6 0 -12 -1q-12 0 -12 8q-5 5 -11 5h-11q-14 0 -22 -12l-7 -5l-31 3q-1 0 -1 -1l-6 1h-12v1l-5 -4h-7q-11 0 -13 5h-7l-18 -3q0 7 -23 11h-2q-8 0 -30 -9q-10 1 -17 1q-6 -3 -8 -3q-6 0 -70 8l-1 2 l35 31q26 33 29 51q0 2 6 30q1 5 1 13v29q0 2 1 4l-1 2q9 92 13 213l-1 6q0 10 8 20l1 5q0 11 -15 22v4q0 5 7 10q4 6 4 17v10q0 6 -1 16l1 2q-1 2 -1 4q0 1 1 1q0 1 -1 3q1 18 1 27l-11 15q-1 4 -1 6q14 25 14 72v11q0 1 1 1l-1 3v11l-1 6l1 2q-2 16 -20 39q0 2 -11 19 q0 8 -31 21q1 5 1 8q0 15 -24 54q-20 14 -31 27q3 9 3 15v2q-3 21 -14 21q-14 0 -14 14q0 21 -31 56q-17 25 -21 43q-7 16 -36 53q-72 148 -151 291q-36 51 -66 74q-39 24 -50 58h-8v2z" />
<glyph unicode="&#xa6;" d="M600 568q0 -5 -12 -26q-3 -5 -3 -7v-2q2 -10 2 -24l1 -9q0 -6 -1 -10q3 -58 6 -78q-1 -6 -1 -12l1 -5q0 -1 -3 -23q0 -14 7 -59l-2 -53q1 -5 1 -7v-16q1 -16 1 -18q0 -35 -1 -42q1 -8 1 -15q-1 -10 -1 -57q-2 -46 -2 -103v-5q0 -13 1 -24q-1 -5 0 -14v-9v-16q0 -6 4 -66 v-22q0 -10 1 -17v-3q0 -6 -2 -6v0l-5 6l-1 1v-1q0 -3 -3 -25q0 -4 14 -13l1 -2v0q-2 -2 -2 -6q0 -2 3 -21q1 -7 -7 -7q-32 5 -39 4q0 -1 -2 0q-3 1 -5 2q-4 0 -10 -1h-2t-6 3q-5 1 -12 -7q-7 -1 -27 0q-9 -6 -16 -5q-1 0 -1 1q2 9 2 17l-1 9q0 3 1 26v3q-1 10 -2 34v24 q0 4 -5 48v5q0 9 3 43q-1 9 0 24q-2 34 -2 54v3q-1 23 2 56q0 4 -1 17l1 6q-3 25 -3 39q-1 9 8 21q3 4 3 6v4q0 5 -1 18v5v6q0 4 -3 29v31q-3 84 -3 102q0 4 5 20q1 3 1 8v4q-1 5 -7 25q-1 4 -1 9v7q-1 26 1 47q0 5 -1 12q-1 21 6 66l1 1v0q1 -2 3 -3h2q7 -3 54 5 q25 3 42 -2l2 -1q15 -6 15 -9zM600 1003q0 -5 -12 -26q-3 -5 -3 -7v-2q2 -10 2 -24l1 -9q0 -6 -1 -10q3 -58 6 -78q-1 -6 -1 -12l1 -5q0 -1 -3 -23q0 -14 7 -59l-2 -53q1 -5 1 -7v-16q1 -16 1 -18q0 -35 -1 -42q1 -8 1 -15q-1 -10 -1 -57q-2 -46 -2 -103v-5q0 -13 1 -24 q-1 -5 0 -14v-9v-16q0 -6 4 -66v-22q0 -10 1 -17v-3q0 -6 -2 -6v0l-5 6l-1 1v-1q0 -3 -3 -25q0 -4 14 -13l1 -2v0q-2 -2 -2 -6q0 -2 3 -21q1 -7 -7 -7q-32 5 -39 4q0 -1 -2 0q-3 1 -5 2q-4 0 -10 -1h-2t-6 3q-5 1 -12 -7q-7 -1 -27 0q-9 -6 -16 -5q-1 0 -1 1q2 9 2 17l-1 9 q0 3 1 26v3q-1 10 -2 34v24q0 4 -5 48v5q0 9 3 43q-1 9 0 24q-2 34 -2 54v3q-1 23 2 56q0 4 -1 17l1 6q-3 25 -3 39q-1 9 8 21q3 4 3 6v4q0 5 -1 18v5v6q0 4 -3 29v31q-3 84 -3 102q0 4 5 20q1 3 1 8v4q-1 5 -7 25q-1 4 -1 9v7q-1 26 1 47q0 5 -1 12q-1 21 6 66l1 1v0 q1 -2 3 -3h2q7 -3 54 5q25 3 42 -2l2 -1q15 -6 15 -9z" />
<glyph unicode="&#xa8;" horiz-adv-x="1024" d="M477 1269v-3q-2 -1 -2 -4v-1q2 -17 2 -18v-1q-1 -7 -5 -7v0h-1v-6q-2 -6 -10 -17q-6 -7 -14 -11t-14 -4h-3q-4 -1 -9 0q0 -4 -4 -8q-1 0 -8 -1q-3 -1 -7 -1h-1q-13 0 -25 4q-3 2 -5 6h-18q-7 1 -17 9q-10 10 -12 15q-6 8 -10 17q-3 7 -7 20q-5 15 -5 24v2q0 13 6 28 q1 3 4 8h1v0v0v-4q1 -3 3 -3q3 0 9 7v4v1v2t-1 1h-2l-1 -1v1v5l9 9q22 18 36 18h3q3 0 7 -1q8 9 12 9q2 -1 2 -2q-2 -3 -2 -4q0 -2 7 -9q4 4 6 4v0q3 0 8 -7q3 -5 3 -8v0q0 -1 -3 -2v0q13 -3 18 -5q2 -1 2 -2q1 -6 6 -6q4 0 13 5v0q1 0 3 -4q17 -21 17 -26v-2v-1q0 -2 -2 -2 h-1h-1h-6v-7l6 -5q7 1 9 1q4 -2 4 -17zM776 1272q-6 -7 -8 -7q-5 -2 -5 -6t7 -13v-6v0q-10 4 -16 4q-8 0 -8 -11q0 -4 1 -10q-3 -6 -8 -14q-6 -7 -10 -9q-9 -6 -24 -13h-12q-1 0 -2 4t-4 4h-3q-5 0 -8 -4h-5q-15 -1 -29 7q-11 7 -15 15v17v9v0v0h-13l-13 13q-2 7 -2 13v0 q0 5 2 6v1v1q-1 9 -1 12v2q1 11 1 13q0 5 -1 10q6 10 15 22q9 10 19 14q17 8 25 10v-2q0 -4 3 -5q2 -1 3 -1h1q1 0 9 2h2q4 0 8 -1q7 8 8 8v0q19 -1 19 -2l12 -6l12 -12v-13h13v0v-7q8 -6 8 -7l5 -12v-13h1q5 0 7 -8q2 -3 6 -5v0z" />
<glyph unicode="&#xaa;" horiz-adv-x="869" d="M553 371q-9 6 -41 11t-42 3h-6l-22 -4q18 4 13.5 0t-35.5 -1l-26 2h-4q-3 -1 -8 0q-8 -1 -10 -1q-17 -1 -20 0q-4 -1 -8 -1q-5 1 -28 1q-24 2 -52 2h-2h-12h-8l-4 -1h-8q-3 0 -34 -3h-10q-6 -1 -9 -1h-1q-4 -1 -4 1v0l4 5v1v0q-2 0 -12 3q-2 0 0 -17l-8 2l-12 -6 q-9 -3 -3 20q-1 16 1 20t1 12l1 1q0 3 1 5q0 4 -1 10q0 1 1 2q0 1 1 6q2 5 -2 13q0 6 2 26q-2 9 -2 16q0 1 1 1q5 -1 9 -1h4h13h1q6 0 18 1h12q2 0 24 5h2q4 0 22 -2q4 0 12 -1q17 2 27 2h1q12 1 28 -2q2 0 9 1l3 -1q12 3 20 4q4 0 10 -9l2 -3h2q3 0 10 2q1 -1 2 -1l3 1 q2 0 15 2h16q42 3 50 3q2 1 29 1q2 1 5 1h4q12 1 22 -1q3 1 6 1q12 1 34 -5v-1v-1q-1 -1 -2 -3v-2q-2 -7 -1 -54q-7 -19 -4 -42l-1 -2q-4 -15 1 -21zM345 774h4q3 -3 15 -24q2 -10 10 -22q0 -2 12 -14q3 -6 9 -36q4 -10 13 -34q6 -8 7 -12q-1 -4 -3 -4h-4l-1 -1q5 -23 7 -23 v0q0 2 5 2q0 1 2 1q1 -6 7 -19q4 -17 8 -17q3 0 6 -3q8 -3 8 -7q2 -4 6 -29q0 -8 4 -15q0 -5 12 -23q18 -34 18 -47q1 -16 2 -16h1q1 3 2 3h1q0 -4 22 -29q12 -23 17 -33q-2 1 -3 1q-3 -1 -3 -3v-3q0 -9 16 -29q5 -8 11 -22q15 -27 20 -32q3 0 14 -19l16 -15l1 -2h-1h-1 l-29 3h-3q-12 -1 -13 -1h-2q-5 0 -12 8q-3 2 -4 2q-8 -3 -12 -3h-28h-6h-9h-3q-3 0 -3 -3h-2h-45h-1q7 22 7 29v1q0 8 -8 32q-10 16 -16 29q-9 23 -11 23q-3 0 -9 7h-4l-15 -3q-19 3 -22 3h-2q-3 0 -7 -5q-1 -2 -16 -4h-2h-1q0 1 2 8v1h-9q-25 0 -30 -2q-1 -1 -5 -1 q-2 0 -14 3h-10q-6 0 -6 -3q-3 -3 -7 -11q-10 -7 -10 -15q-5 -30 -8 -30q-6 0 -11 -33v-4q0 -5 3 -5q0 -1 6 -5q1 -2 4 -15h-1h-15h-25h-6v0q0 2 1 3h-1h-4q-7 0 -7 -2q0 -1 -5 -1h-8q-15 0 -15 1q1 3 1 4q-2 2 -11 4q-4 -9 -14 -9h-12q-4 0 -9 -3h-26q-1 0 -1 1 q22 16 24 19l12 26q2 2 7 5q7 17 15 26q8 6 8 10l23 53q1 0 1 -1q9 5 9 9v4v1q1 3 1 4v1l-2 2q0 3 16 25q2 5 8 19q7 5 8 5q1 2 1 4h-1h-2v1q0 6 21 47q7 13 24 30l-5 5q8 23 14 34q4 8 25 44q5 8 10 29q9 27 12 27h2h1q1 3 1 4v1q-1 2 -1 3q1 4 2 15q0 3 12 5h2l-3 19 q0 1 8 10q3 6 11 30q4 6 7 6zM327 560q-9 -24 -13 -26q-3 -5 -10 -28q-1 -3 -4 -3q-3 -5 -8 -25q-12 -32 -12 -39q-1 0 -2 -2q5 1 13 1h9q14 0 21 -4h1l25 3q6 -6 10 -6h2q2 3 11 5h1q-8 27 -12 50q0 4 -6 8q-2 6 -11 38q-6 16 -14 28h-1z" />
<glyph unicode="&#xab;" horiz-adv-x="987" d="M69 563v0q0 11 18 39q2 4 4 19q1 3 36 68l12 20h1q2 -3 3 -3v0q4 7 26 49q14 22 43 58q6 7 7 7q2 -3 4 -3h1q5 0 34 44q18 17 34 34v0q1 0 1 -1v-3v-5l1 -2q3 3 14 22q100 81 104 81q2 2 2 3v2q-4 2 -4 4v1q5 6 42 19q7 4 12 4q27 -5 27 -14q0 -3 24 -7q4 -4 22 -15v-2 q-1 0 -19 -28q-11 -12 -21 -16q-5 0 -16 -22q-3 -4 -16 -23q-4 -5 -7 -5l-3 2q-8 -3 -8 -6l1 -4q-2 0 -23 -26h-2l-2 1q-19 -16 -23 -26q-6 -12 -9 -12h-1q-1 1 -3 9l-2 -4q1 -2 1 -5q-11 -13 -29 -38q-22 -27 -31 -39q-9 -20 -18 -20q-4 -6 -17 -10q-9 -4 -9 -19 q0 -10 -10 -22q-22 -36 -30 -43q-3 -6 -5 -6v0q-3 4 -3 6h-1q-9 -26 -16 -30q-4 0 -8 -8q-10 -11 -10 -18l20 -10l4 -12l6 -9v0q3 3 4 3v0q21 -37 39 -57q12 -15 13 -18v-2q-1 -11 -1 -18q1 -1 1 -4v-6v0q4 0 8 24l1 1q8 -15 26 -33q10 -12 21 -18q5 -3 5 -7q-1 -3 -1 -5 q0 -4 23 -11q6 -3 13 -18q2 -4 48 -42q14 -14 31 -22q6 -1 16 -12l2 -10q5 -5 24 -15q16 -17 43 -37v-2v-3q-1 -5 -25 -22q-9 3 -12 3l-1 -2q2 -6 2 -9t-21 -10q-2 0 -18 -13h-1v1l1 3v1q0 4 -12 4h-9q-20 0 -24 8q-4 7 -9 9v-3q0 -5 -1 -6h-1q-4 0 -6 12q-2 2 -28 15 q-10 13 -21 19q-8 8 -20 12q-3 2 -8 16l-1 1q-1 -16 -2 -16q-2 0 -28 33l-18 14v2q8 2 8 5q0 4 -13 11q-2 -8 -3 -10q-40 34 -89 88q-21 23 -31 37q-3 16 -5 18q-14 4 -14 8l-26 39q-14 18 -14 26q2 10 2 11l-1 3v0q-1 0 -3 -5q-1 5 -8 8q-13 25 -14 25zM454 578v1 q0 10 19 38q1 5 3 19q1 4 36 68l12 20h1q2 -2 3 -2v0q4 6 26 48q14 22 43 58q6 7 7 7q2 -3 4 -3h1q5 0 34 44q18 18 34 35v0q1 0 1 -2v-3v-5l1 -1q3 2 14 22q100 81 104 81q2 2 2 3v2q-4 2 -4 3v1q5 6 42 19q7 4 12 4q27 -5 27 -14q0 -3 24 -7q4 -3 22 -15v-1q-1 0 -19 -28 q-11 -13 -21 -17q-5 0 -16 -22q-3 -3 -16 -22q-4 -6 -7 -6l-3 3q-7 -4 -7 -7v-4q-2 0 -23 -26h-2l-2 1q-19 -16 -23 -26q-6 -11 -9 -11h-1q-1 0 -3 8l-2 -3q1 -3 1 -6q-11 -13 -29 -38q-22 -26 -31 -39q-9 -19 -18 -19q-4 -6 -17 -11q-9 -3 -9 -19q0 -10 -10 -21 q-22 -37 -30 -43q-3 -6 -5 -6v0q-3 3 -3 6h-1q-9 -27 -16 -31q-4 0 -7 -8q-11 -11 -11 -18q14 -6 20 -10l4 -11l6 -10v0q3 4 4 4v0q21 -38 39 -58q12 -15 13 -17v-3q-1 -11 -1 -18q1 0 1 -4v-5v0q4 0 8 24h1q8 -15 26 -33q10 -12 21 -18q5 -3 5 -6q-1 -4 -1 -6q0 -3 23 -11 q6 -2 13 -17q2 -5 49 -43q13 -14 30 -22q6 -1 16 -11l2 -11q5 -5 24 -15q16 -17 43 -37v-2v-2q-1 -6 -25 -23q-9 3 -12 3l-1 -2q2 -6 2 -8q0 -3 -21 -11q-2 0 -18 -13h-1v1l1 4v0q0 4 -12 4h-9q-20 0 -24 8q-4 7 -9 9v-2q0 -6 -1 -7h-1q-4 0 -6 13q-2 2 -28 14 q-10 14 -21 19q-8 8 -20 12q-3 3 -8 17h-1q-1 -16 -2 -16q-2 0 -28 33l-18 15v1q8 2 8 5q0 5 -13 11q-2 -8 -3 -9q-40 33 -89 87q-21 24 -31 37q-3 16 -4 19q-15 3 -15 7l-25 39q-15 19 -15 27q2 9 2 10l-1 3v0q-1 0 -3 -5q-1 5 -8 8q-13 25 -14 25z" />
<glyph unicode="&#xad;" horiz-adv-x="774" />
<glyph unicode="&#xb0;" horiz-adv-x="722" d="M344 1123q-3 0 -6 2q-4 1 -10 1h-1h-6q-4 1 -10 6q-3 4 -9 6t-6 3l-3 5q-8 9 -8 14v5v0q0 1 -3 3q-1 0 -2 6l-1 2l-2 -1q-1 0 -1 6q-2 7 -3 9q-3 3 -3 11v1q0 4 2 23q1 4 2 10q2 7 7 16q1 2 3 3q2 3 2 6h1h2q3 0 5 4v1q0 6 6 8q9 5 7 7v0q4 5 9 7q4 3 11 5q11 3 20 3h4 q5 1 8 1h1q4 0 10 -4h1l3 1q5 0 9 -6q4 1 6 1h1q2 0 4 -3q5 -5 9 -7q2 0 2 -1q1 -3 1 -4q6 -2 6 -3q8 -7 12 -12l6 -16q3 -3 3 -5q2 -5 2 -11v-5q1 -1 1 -3v-2q0 -5 -2 -23q-3 -12 -5 -15l-6 -9q-1 -2 -4 -5q-2 -4 -5 -9l-9 -3v0q1 0 1 -2q0 -3 -5 -7q-8 -6 -13 -10 q-5 -2 -5 -3v0q-1 0 -4 2h-1q-3 0 -7 -4v-1h-6t-9 -2q0 -1 -12 -2zM378 1164h2v2l3 1l1 5q5 3 7 9q1 4 2 11l4 1q-1 2 -2 3v5q2 4 2 10v14q0 6 -7 20q0 2 -4 3q-1 0 -2 3q-2 2 -3 4q-4 4 -8 6h-3l-5 5h-6q-4 3 -7 3h-1q-1 0 -1 -1q-2 -1 -9 -3q-1 2 -4 2v0q-6 0 -15 -9 q-4 -5 -6 -10q-2 0 -3 -5q-1 -7 -3 -9v-7q-1 0 -2 -4q3 0 3 -3v-6q0 -5 -2 -6h-1q2 -4 4 -19q0 -4 1 -4q3 -3 3 -7v-3q2 -4 7 -9l6 -6q3 -1 5 -4q10 -4 11 -4q10 -1 12 -1h1q11 5 12 6q2 2 5 6q1 1 3 1z" />
<glyph unicode="&#xb1;" d="M252 138q2 0 18 -14q3 -3 6 -3h1q7 1 17 1h7h7q44 3 58 5h8h4q2 0 18 -5q9 0 44 8l38 -3h6h12q10 1 13 1q25 -1 31 -1h10q8 -2 43 -2q33 -3 76 -4h3h18h11h5h12q6 0 50 3q2 0 16 -2q6 2 12 2h2q6 0 4 -2v0l-4 -5h-1q0 -2 1 -2q3 0 19 -2q3 0 9 14h2h1q0 -2 3 -2q1 0 16 5 q5 0 5 -9q-5 -35 -4 -42v-2q-1 -2 -3 -5q0 -4 2 -12v-1t-3 -7q-1 -4 5 -13q0 -7 -1 -28q4 -10 4 -18h-1q-7 1 -12 1h-8q-2 0 -19 2h-1q-8 0 -27 -2h-16q-4 0 -36 -4h-4q-7 0 -32 3q-7 0 -17 1q-26 -1 -40 -1h-3q-17 0 -40 4q-4 0 -13 -1l-4 1q-19 -3 -30 -3q-6 0 -14 10 q-3 3 -6 3h-1q-5 0 -15 -1h-4h-4q-2 0 -21 -2h-23q-61 -1 -74 -1q-4 0 -15 5q-3 2 -7 2h-2q-4 -2 -19 -7q-3 -2 -7 -2h-5q-19 0 -35 3q-2 0 -8 -1q-16 0 -49 7v1v0q1 2 1 4v2q3 7 -1 58q-1 28 3 45v2q5 16 8 16zM296 607q11 -5 53.5 -9t55.5 -2h7l28 3q-23 -3 -17 0t47 1 l34 -2h5q3 1 10 0q11 1 12 1q23 1 27 0q6 1 10 1q7 -1 37 -1q30 -2 68 -2h3h15h10l5 1h11q4 0 44 3h14h11h1q5 1 5 0v0l-5 -5v0v0q2 0 17 -3q2 0 -2 14l12 -1l15 5q12 2 4 -17q1 -14 -1 -17t-2 -10v-1l-2 -4v-8v-2t-2 -5t2 -11q1 -5 -2 -22q4 -8 2 -13v-1q-6 1 -11 1h-6h-17 h-2q-7 0 -23 -1h-15q-3 0 -32 -4h-3q-5 0 -28 1q-6 0 -16 1q-22 -2 -35 -2h-2q-16 0 -36 2q-3 0 -12 -1l-4 1q-16 -2 -26 -3q-5 0 -12 7q-3 3 -4 3h-2q-4 0 -12 -2q-2 1 -4 1l-3 -1q-3 0 -20 -2h-20q-55 -2 -67 -2q-2 -1 -37 -1q-2 -1 -6 -1h-5q-16 -1 -30 1q-3 -1 -8 -1 q-14 -1 -43 4v1v1q1 1 2 3v1q2 6 1 46q9 16 6 35v2q6 12 0 17zM506 276q6 12 10.5 54t2.5 55v8l-4 28q4 -23 0.5 -17.5t-1.5 47.5l2 33v6q-1 3 0 10q-1 10 -1 12q-1 23 0 27q-1 5 -1 10q1 6 1 37q2 30 2 67v4v15v9l-1 6v11q0 4 -3 43v15v11v1q-1 5 0 5v0l5 -5l1 -1q1 0 0 1 q0 2 3 16q0 3 -16 -1l2 12l-6 15q-2 12 19 4q14 1 18 -1.5t11 -1.5l1 -1q3 0 5 -2q3 0 9 1q1 0 2 -1q1 0 5 -1q5 -2 12 2q6 1 24 -2q8 3 15 2v-1v-11v-5v-17v-2v-23v-15q0 -3 5 -32v-3q0 -6 -2 -28q0 -6 -1 -16q2 -22 2 -35v-2q1 -16 -2 -36q0 -3 1 -12l-1 -4q3 -16 4 -26 q0 -6 -8 -12q-3 -3 -3 -4v-2q0 -4 2 -13q-1 -1 -1 -3l1 -4q0 -2 2 -19v-20q2 -55 2 -67q1 -3 1 -37q1 -3 1 -7v-4q1 -17 -1 -30q1 -3 1 -8q1 -14 -4 -43h-1h-1q-1 1 -3 1l-2 1q-6 2 -49 1q-18 9 -39 5l-2 1q-13 5 -19 -1z" />
<glyph unicode="&#xb4;" horiz-adv-x="1024" d="M609 1434q5 0 19 -23q6 -7 14 -7h4q4 0 10 -5q10 -8 25 -15q2 -2 4 -2h1l6 3q4 1 6 1q13 -1 13 -2q2 -9 5 -15q1 -4 3 -4v0q1 0 10 1q3 -1 3 -3v-1q0 -5 -11 -10q-15 -4 -33 -14q-46 -24 -50 -26l-16 -13q-6 -4 -19 -7q-1 0 -15 -6q-24 -8 -36 -17q-20 -13 -25 -13 q-4 -1 -19 -4q-3 -1 -14 -13l-52 1q-4 2 -2 10q-1 2 -1 3q0 8 12 23q7 8 17 14q7 4 16 14q5 6 18 23q17 19 35 43q12 16 26 31q15 14 20 16q7 5 21 16q3 1 5 1z" />
<glyph unicode="&#xb7;" horiz-adv-x="508" d="M310 693h2h7l7 -7h13v0v-7l20 -7q7 -14 9 -15l11 -17v-20l-7 -7v-19q-2 -7 -11 -18q-8 -8 -12 -11q-8 -5 -15 -8q-6 -3 -11 -4q-3 -1 -5 -1q-10 0 -25 1v0q1 -2 1 -3v0q0 -4 -5 -4q-11 1 -11 2v0v1q0 2 2 4q-4 -2 -8 -2t-8 6q-9 7 -12 12q-3 4 -6 10h-1v0l-2 -2h-1 q-2 0 -3 7v6q0 17 1 17q4 -2 6 -2l1 1v0v1l1 4v0q0 3 -5 4h-2q-3 0 -8 -2q-1 6 -1 11q0 14 11 23q12 12 20 21q9 9 13 11q5 4 9 7q12 4 17 6q4 1 8 1z" />
<glyph unicode="&#xb8;" horiz-adv-x="1068" d="M401 -142l-1 -1q1 0 1 1zM405 -138l-4 -4q-2 0 -7 3q-3 -1 -7 -1q-12 -4 -20 -11q-8 -5 -11 -7q-7 -6 -16 -18q-6 -3 -6 -10q-5 -17 -5 -22v-6q-2 -6 -2 -17v-16q-2 -4 -2 -6q6 -18 12 -28q2 -18 10 -29l2 -2h3q2 0 10 -17q16 -15 25 -20v-3l2 -1q4 1 5 1q3 -1 12 -7 q13 -5 15 -5q1 0 3 2h1q4 0 13 -3q5 0 6 1q9 0 15 4q7 3 21 10l-7 3q2 2 14 5q18 15 25 25q0 2 9 11v1q-1 2 -1 3v1q0 2 10 16v2q-2 3 -2 4q9 34 9 51q0 1 1 2l-3 22v7q-2 19 -19 49q-6 14 -9 14q-2 -1 -4 -1q-18 16 -25 16q-7 2 -7 7q0 4 -3 4q-3 -2 -4 -2q-14 5 -26 7 q-4 -4 -6 -4t-6 4q-2 0 -4 1h-10q-3 -1 -7 -3q-2 -2 -3 -2t-3 2l-19 2l-6 -3q-8 -1 -23 -8l-1 11q14 14 19 14q5 2 7 6q2 5 18 20q7 14 10 14q5 0 12 9q17 20 27 43q1 6 7 11q12 25 12 37q1 5 1 16q0 14 -3 20v4h1q5 -1 10 -4v-4q12 -2 19 -4q1 -1 2 -1q0 6 -2 9v4h1 q5 -1 10 -4v-4q12 -2 19 -4q5 -3 13 -4q3 -3 5 -4q3 1 5 2l1 1h2q5 1 11 2h3v-2l5 -4q8 4 22 6h3v-1q0 -6 -24 -17q-9 -7 -16 -9q-2 -2 -7 -10q-20 -23 -25 -36q-1 0 -1 -2q1 -4 1 -5q0 -2 -12 -17q-4 -14 -9 -18q-1 -3 -1 -5v-4l-2 -7q9 1 20 1q1 -2 1 -3q3 0 5 1 q10 2 24 2q1 -3 2 -5l8 -2q2 1 4 6q20 -2 57 -18q10 -4 10 -11q2 -6 11 -10q13 -4 25 -22l10 -9q2 -3 6 -19q6 -14 10 -35q2 -18 5 -18q1 -2 1 -4l-2 -15v-4q0 -22 -3 -38h-1l-3 2h-1q-4 -5 -4 -6v-1q0 -2 5 -10v-1q0 -1 -7 -9q-1 -1 -3 -16q-8 -18 -31 -42q-25 -23 -42 -31 q-6 -4 -10 -4h-10q-1 0 -1 -1q4 -2 4 -3l-9 -9h-14q-24 -9 -60 -15q-9 0 -27 -7q-3 -1 -4 -1l-6 1h-20q-3 -1 -4 -1l-6 1h-20q-2 0 -13 3q-7 -1 -11 -1h-1q-1 0 -2 5h-1l-2 -4q-6 0 -33 9q-27 13 -27 17l-6 8l-3 -3q-19 16 -26 27l-1 2v5q0 1 -8 6q-11 15 -11 17q0 8 -4 18 q1 9 1 14q-1 0 -1 1l-2 -1q-3 0 -6 26v11l5 6v2q0 4 -5 4q0 11 6 33q0 5 3 5q0 7 13 27q2 8 11 14q11 10 16 13q9 11 41 18q4 0 6 3h1q2 0 13 -1h6q4 0 9 -1q0 1 1 2h1q2 0 13 -1h6q13 0 26 -5q0 -2 8 -4q17 -9 22 -25v-1q-16 17 -29 19q1 0 1 1q-2 0 -10 5l-2 1l-5 -2h-9z " />
<glyph unicode="&#xba;" horiz-adv-x="860" d="M408 904v0q22 -5 34 -10q42 -17 52 -30q21 -16 26 -22q1 -1 2 -5h-1h-3q-6 0 -7 4q-2 3 -16 9q-3 10 -6 10q0 1 -9 2q-9 12 -13 12q-11 3 -11 6v2q-13 4 -19 6q-12 7 -27 14l-2 1v1zM286 893h20q2 -2 3 -2h3q6 0 20 1q4 0 15 -3q2 0 15 4h2q5 0 20 -9l3 -1l5 1q2 0 4 -8 q0 -2 10 -3q8 0 12 4q-19 4 -23 6q0 1 -1 2h1h5q4 -2 14 -3h3h2q7 0 40 -13q11 -6 12 -8v0l-6 1q-1 -1 -2 -1v0q6 -4 18 -10l22 -19q9 -4 9 -7q0 -2 -1 -7q0 -2 11 -8q5 0 10 -12q2 -5 8 -12v-1q-6 -5 -6 -11v-1q4 -4 6 -4q2 -1 22 -3q4 -5 8 -22q2 -6 6 -6q4 -4 8 -15 q14 -37 14 -69v-16q0 -48 -16 -100q-3 -7 -11 -14q-4 -2 -9 -16q-12 -14 -16 -24q-3 -4 -5 -4q-3 2 -5 2v0q-3 0 -10 -6q-4 0 -6 -21q0 -3 -4 -6q-4 0 -38 -17q-13 -6 -34 -14q-1 -2 -1 -4v-1q0 -3 1 -3q6 3 14 6q12 7 19 7q0 -1 5 -3v-2q-2 0 -20 -10q-5 -2 -12 -10 q-3 -2 -20 -5q-15 -7 -18 -7q-42 -8 -64 -11q-2 0 -6 3h-1q-13 0 -13 -2q0 -4 -5 -4q-24 2 -31 4q-22 8 -26 8q-14 2 -18 4q-14 13 -26 13q0 1 -13 1h-2q-7 0 -7 4q-19 13 -34 29q-6 7 -6 8q0 3 1 6q0 4 -19 9q-12 4 -12 8q-39 51 -48 95q-4 26 -4 33v0l3 1q1 3 1 5v1 q0 6 -6 9v2v0q0 4 6 39q0 1 6 2q1 1 1 5v4q-3 4 -3 7q1 8 8 21q7 4 8 5q-2 3 -2 7v2q12 16 21 22l2 -1l1 1v2q7 12 12 13q0 -1 4 -3q1 0 10 7q6 2 18 11q2 1 13 4q0 2 13 5q0 1 2 1q1 0 6 -4l4 6q5 0 12 1q22 -1 22 -3q1 -3 2 -5v1l3 -1l9 3q12 0 36 -17q16 -16 19 -26 q6 -15 6 -23q0 -4 -3 -4q-2 0 -14 12l-18 12h-2q-2 0 -10 4q0 3 -32 3h-8q-14 -4 -20 -11q-2 -2 -10 -4q-13 -15 -16 -15q-7 2 -9 2h-4v-1q9 -14 9 -16v-1q-16 -37 -16 -43q0 -14 7 -42q7 -17 18 -34q4 -15 11 -15q9 -3 9 -7q3 -5 11 -12q4 -12 6 -12q3 2 5 2l1 -1q1 1 2 1 q2 -5 7 -8q20 -5 27 -12q10 -9 20 -9h2q12 1 13 1h3q6 0 20 -10q4 -3 13 -5q3 13 4 13t1 1h1q2 -3 3 -3h1q1 0 9 5q2 1 3 1h2q4 -3 5 -3q5 1 21 7q15 3 15 6q14 12 24 14h1v4q0 3 8 6q3 2 14 14q9 7 9 18q4 9 8 9v1v5q3 1 3 3q0 1 -1 4q9 24 9 41q0 3 -3 31q0 1 1 1 q6 -3 6 -9q2 -20 3 -20h2v1v17l-2 2v11q0 12 -13 47q-4 9 -4 14v2l-1 4h-4q-11 14 -11 16v6q0 5 -7 14q-14 16 -25 24q-22 16 -55 27q-32 10 -74 10h-2q-7 0 -12 -2q-27 0 -50 -10q-4 0 -28 -12l-4 -1v0q-1 0 -2 2v0l3 9q-8 -4 -8 -5q-2 -1 -4 -10q-7 0 -14 -4q-4 -4 -5 -10 h-1h-5q-2 0 -8 -7v-1h-6q-4 0 -34 -33q-13 -16 -19 -31l-2 -3h-1q-2 0 -2 6v1q0 14 8 35q1 0 5 5v0q-2 0 -3 4v1q7 16 27 41q7 4 19 22q18 18 24 20q4 2 13 14q2 1 3 1h1q3 0 8 6q2 2 8 3q1 -1 6 -1q2 7 7 7q28 13 34 13h2v0q0 -3 4 -6q11 6 26 11q5 5 6 9zM526 831 q15 -11 26 -29q1 -3 1 -4h-1v-5v-3h-1v0l-4 10q-5 10 -18 24q-2 2 -3 6v1zM475 670v0q3 -4 3 -7v-7l1 -4l-1 -1v0q-4 0 -4 7q0 1 -1 3q1 9 2 9zM528 455l2 -1q-6 -14 -17 -19q-3 -1 -3 -4q-1 -1 -10 -4q-3 -2 -15 -5l-2 2v0q7 7 15 9q20 7 30 22z" />
<glyph unicode="&#xbb;" horiz-adv-x="987" d="M915 538q-7 -3 -9 -8l-2 5h-1l-1 -3q0 -1 3 -11q0 -8 -15 -26l-26 -39q0 -4 -14 -8q-2 -2 -5 -18q-9 -14 -30 -37q-49 -54 -90 -88q-1 2 -3 10q-13 -7 -13 -11q0 -3 8 -5v-2l-17 -14q-26 -33 -28 -33q-1 0 -3 16l-1 -1q-4 -14 -7 -16q-12 -4 -21 -12q-10 -6 -21 -19 q-26 -13 -27 -15q-3 -12 -7 -12v0q-2 1 -2 6v3q-4 -2 -8 -9q-4 -8 -24 -8h-10q-12 0 -12 -4v-1l2 -3v-1h-2q-16 13 -18 13q-21 7 -21 10t2 9v2q-4 0 -13 -3q-24 17 -25 22v3v2q28 20 43 37q19 10 25 15l1 10q11 11 17 12q16 8 30 22q47 38 48 42q7 15 13 18q23 7 23 11 q0 2 -1 5q0 4 5 7q11 6 21 18q18 18 26 33l1 -1q5 -24 8 -24v0v6q1 3 2 4q0 7 -1 18v2q0 3 13 18q17 20 38 57v0q2 0 4 -3h1l5 9l4 12l20 10q0 7 -10 18q-4 8 -8 8q-7 4 -16 30h-1q0 -2 -2 -6h-1q-1 0 -4 6q-8 7 -30 43q-10 12 -10 22q0 15 -10 19q-13 4 -17 10q-8 0 -18 20 q-8 12 -31 39q-18 25 -28 38v5q-1 4 -2 4q-1 -8 -3 -9h-1q-2 0 -9 12q-4 10 -23 26l-2 -1h-1q-22 26 -24 26l1 4q0 3 -8 6q-2 -2 -3 -2q-3 0 -7 5q-12 19 -16 23q-11 22 -16 22q-9 4 -21 16q-17 28 -19 28v2q18 11 22 15q24 4 24 7q0 9 27 14q5 0 12 -4q37 -13 42 -19v-1 q0 -2 -4 -4v-2q0 -1 2 -3q5 0 104 -81q12 -19 14 -22l2 2l-1 5v3q0 1 1 1v0q16 -17 34 -34q29 -44 34 -44h2q1 0 4 3q1 0 6 -7q29 -36 43 -58q22 -42 26 -49v0q2 0 3 3h2l12 -20q34 -65 35 -68q2 -15 4 -19q18 -28 18 -39v0q-1 0 -13 -25zM530 553q-7 -3 -9 -8l-2 5h-1 l-1 -3q0 -1 3 -10q0 -8 -15 -27l-26 -39q0 -4 -14 -7q-2 -3 -5 -19q-9 -13 -30 -37q-49 -54 -90 -87q-1 1 -3 9q-13 -6 -13 -11q0 -3 8 -5v-1l-17 -15q-26 -33 -28 -33q-1 0 -3 16h-1q-4 -14 -7 -17q-12 -4 -21 -12q-10 -5 -21 -19q-26 -12 -27 -14q-3 -13 -7 -13v0 q-2 1 -2 7v2q-4 -2 -8 -9q-4 -8 -24 -8h-10q-12 0 -12 -4v0l2 -4v-1h-2q-16 13 -18 13q-21 8 -21 11q0 2 2 8v2q-4 0 -13 -3q-24 17 -25 23v2v2q28 20 43 37q19 10 25 15l1 11q11 10 17 11q16 8 30 22q47 38 48 43q7 15 13 17q23 8 23 11q0 2 -1 6q0 3 5 6q11 6 21 18 q18 18 26 33h1q5 -24 8 -24v0v5q1 4 2 4q0 7 -1 18v3q0 2 13 17q17 20 38 58v0q2 0 4 -4h1l5 10l4 11q6 4 20 10q0 7 -10 18q-4 8 -8 8q-7 4 -16 31h-1q0 -3 -2 -6h-1q-1 0 -4 6q-8 6 -30 43q-10 11 -10 21q0 16 -10 19q-13 5 -17 11q-8 0 -18 19q-8 13 -31 39 q-18 25 -28 38v6q-1 3 -2 3q-2 -8 -3 -8h-1q-2 0 -9 11q-4 10 -23 26l-2 -1h-2q-21 26 -23 26l1 4q0 3 -8 7q-2 -3 -3 -3q-3 0 -7 6q-12 19 -16 22q-11 22 -16 22q-9 4 -21 17q-17 28 -19 28v1q18 12 22 15q24 4 24 7q0 9 27 14q5 0 12 -4q37 -13 42 -19v-1q0 -1 -4 -3v-2 q0 -1 2 -3q5 0 104 -81q12 -20 14 -22l2 1l-1 5v3q0 2 1 2v0q16 -17 34 -35q29 -44 34 -44h2q1 0 4 3q1 0 6 -7q29 -36 43 -58q22 -42 26 -48v0q2 0 3 2h2l12 -20q34 -64 35 -68q2 -14 4 -19q18 -28 18 -38v-1q-1 0 -13 -25z" />
<glyph unicode="&#xbf;" horiz-adv-x="1203" d="M706 -374q-1 0 -13 -4h-2q-39 3 -94 -11q-2 -1 -20 -6l-1 2q-3 0 -19 -7q-24 -3 -24 2v1q5 6 5 7q-9 4 -56 3q-74 14 -102 28l-21 -5q-6 -2 -12 4l-47 26v1q0 1 7 5l-1 2q-54 17 -68 25q-23 21 -34 29q-40 17 -41 41q0 3 3 23l-1 3q0 3 -5 12q-23 19 -24 30q0 2 5 21 q-1 12 -15 25v2q5 1 8 -1h1l-1 17q-1 0 -9 2q1 4 9 26v2q-1 4 -11 12v5q-1 2 1 8q0 4 -3 22q10 10 10 12q-1 6 -2 15q4 22 4 24q3 11 10 15q8 2 10 14q0 22 22 58q28 54 37 67q15 15 34 22q13 8 22 31q5 17 44 56q0 -2 -2 -14v-1q0 -2 2 -2l4 1q15 5 49 40q39 41 43 42t10 1 q8 2 11 8q19 11 175 71q5 1 58 25l5 1q11 3 24 0q8 4 13 6q3 5 4 6h1q29 -4 39 -4q1 0 9 6q5 1 4 -3l9 2q3 1 10 1q7 5 7 8q10 5 18 18h1l5 -1l1 1q-1 14 10 62q6 5 6 10l-1 22v21q-4 4 -5 4q2 8 1 12v2q0 12 -2 22l-8 -1v17q-25 39 -39 36q-8 13 -9 12q0 -2 -1 -3l-26 6 q-31 2 -38 8l-1 -1l-25 -12q-2 0 -6 1q-3 -1 -25 -11q-28 -24 -28 -49q1 -9 11 -27q11 -17 31 -19q1 -4 0 -9q11 -5 16 -4q14 8 14 11q11 3 29 31q-5 23 -8 22q-3 -2 -16 13l2 2h6q31 -2 32 -11q3 -14 8 -23v-3q0 -17 -18 -47l-3 -1h-6q-2 -2 -2 -4q0 -9 -30 -18l-3 -2 q-27 -6 -59 10q0 -1 -4 -3q-1 -1 -4 2q-15 25 -20 28q-9 -3 -16 47v7q-1 12 15 43q1 1 -1 3q-1 2 6 4q10 23 26 33q2 1 3 -8l7 1q1 1 1 3q1 5 -2 11q40 21 51 23l2 1q5 1 5 -1q40 4 60 2q18 -8 21 -8q31 2 60 -17l1 -2q-8 -3 -7 -5q1 1 2 0q18 4 31 -8q22 -16 25 -29 q1 -2 23 -24q13 -13 20 -51q1 -4 -1 -25q1 -4 3 -3q6 1 6 -22v-8q2 -19 1 -37q2 -9 5 -8l-7 -10q-4 -36 -9 -37q-2 -48 -6 -56q-8 -6 -24 -24l1 -1q2 1 3 -2v-2l-26 -32l-2 -1q-9 1 -31 1q-22 6 -38 2l-30 -8q-5 -1 -11 -4v-1l1 -2l-3 -1l-2 -1l-20 1q-3 -1 -5 -2 q-17 -12 -25 -13q-9 -3 -29 -5l-62 -23l-8 -2q-3 -1 -22 -17l-45 -29l-5 -1l-9 -17q-21 -16 -22 -26q-7 -2 -46 -46q-25 -23 -23 -52q-16 -26 -17 -41l-20 -37q1 -12 1 -14q1 -5 -8 -8q-17 -12 -20 -74q1 -25 9 -48q27 -39 49 -32h2q-4 -15 -4 -16q3 -7 17 -21q5 -21 10 -20 q25 -26 32 -24v2q-1 5 -6 21q1 0 1 2q8 -3 34 -17q23 -23 35 -30q43 -28 76 -28q41 -17 108 1l11 3l7 2l-2 4q-1 4 25 13q7 1 8 -4l47 12h3q0 -1 -2 -3v-1q26 5 41 9l8 1q48 13 112 65q10 3 17 30q14 10 26 30v6h2q7 -2 27 -54l1 -2q-8 -30 -8 -35q-4 -16 -14 -21 q-9 -2 -10 -19q1 -11 -26 -35q-21 -26 -41 -32q-48 -27 -57 -29q-36 -9 -58 -14l-56 -14q-14 -3 -13 -8q0 -3 -27 -9l-24 -7q-12 -3 -23 1zM718 983q1 1 1 2q0 2 -3 7l2 3q0 2 5 11l-3 1q3 2 18 9v-1q-2 -3 -4 -4q-2 -4 -2 -10q0 -7 4 -13v-4q1 1 2 1v-1q0 -2 -1 -3v-1l1 1 q8 -6 8 -7v-1q0 -2 5 -4l13 -9q0 -1 16 -3h4q13 2 18 4l4 6l1 1l1 3v2q-1 0 -1 2v1q3 8 3 9q0 3 -2 4q-2 10 -2 13v4q0 2 -4 5q1 1 1 2q0 3 -1 9q-1 5 -4 7l-1 6l-3 -1q-1 0 -3 2q-6 3 -6 4v2q-3 6 -8 7l3 4q0 1 -2 1q-7 2 -8 2q-5 0 -10 -3q-1 0 -1 3q-2 -2 -4 -2h-10 q-2 4 -3 4l-5 -5q0 -1 -13 -1q-9 -4 -14 -6q-4 -4 -5 -4q-3 0 -7 -7q-3 3 -6 3q-5 0 -9 -9q-10 -8 -10 -9l3 -3v-1q-4 0 -4 -1v-3q-1 -3 -3 -5q-3 -8 -5 -10q-1 -2 -2 -8l2 -2l-1 -2q-4 -4 -4 -5t4 -4q0 -1 -1 -1v-8q1 -23 4 -23v2h1v-3q2 -9 10 -20l5 -5l-1 -2l5 -5 q6 -2 7 -5q9 -3 22 -7l-6 -2l3 -1q20 -4 24 -5q13 -3 15 -3q14 0 22 2q12 1 29 9q-3 -7 -14 -11q-3 -1 -7 -4q-3 -2 -7 -3q-25 -13 -50 -13q-8 0 -15 1l-4 -1h-1q-2 0 -9 3h-4q-5 0 -15 7q-9 4 -10 4q0 5 -15 8v1h2l-2 1q-17 12 -21 12q-3 0 -3 -2q-4 6 -12 16q-9 11 -12 12 q-5 3 -9 16q-1 10 -2 13h-2l-1 -2v2q-3 1 -9 15q-2 2 -2 6q-3 7 -3 12v2h4q1 0 1 1q-5 3 -5 4q1 4 1 9l-1 26q0 2 3 6q1 0 1 -4q1 0 1 2q5 1 5 7v18q0 8 1 8q2 0 4 -5v1q0 4 4 5q-1 4 -5 9q0 1 4 9q4 2 4 5v4q3 6 7 12h2l1 -1q1 3 4 5q12 13 20 21q9 6 16 6q2 -2 3 -2t1 1 q-1 4 -1 5v1l1 3q8 8 16 8q20 8 25 8q2 0 7 -1v1l-3 3q0 1 3 1q20 6 24 6h5q10 3 13 3h2l3 1q3 -1 4 -1l25 1h2l5 -1q1 0 3 4h2q7 -4 10 -4q1 0 5 1q4 0 9 -4q1 -4 6 -4l-1 -4h1q9 1 11 1q7 0 28 -23q1 -4 7 -9q0 -4 2 -8q5 -5 5 -6l-3 -5q0 -1 1 -1q5 0 7 -3q10 -14 10 -22 v-2q0 -3 1 -5l4 -14q-1 -5 -3 -5l2 -6q4 -8 4 -12v-2q0 -4 -2 -11q-1 -9 -4 -28q-6 -19 -6 -20v-2q-1 -5 -1 -6q-3 -9 -10 -19q-11 -12 -18 -17q-4 -6 -10 -6q-6 -2 -14 -4l-6 -6q-2 -5 -7 -5q-5 -3 -13 -4q-6 -4 -14 -4h-1q-2 0 -3 -3l-6 3h-1l-4 1h-6q-4 0 -18 7h2l-1 1 l-12 5q-7 4 -7 5q-3 3 -3 4q-5 16 -5 20q-5 19 -5 26zM777 -272l-11 -3l-1 -1q-34 2 -80 -9q-2 0 -17 -4q-1 1 -1 2q-2 -1 -15 -6q-20 -2 -21 1v2l5 4q-7 4 -46 3q-63 11 -86 22l-18 -5q-5 -1 -11 4l-39 20v1q0 1 6 4l-1 1q-46 14 -57 19q-20 17 -29 24q-33 13 -34 31 q0 3 1 18v2q-1 3 -3 10q-21 15 -21 22q-1 3 3 17q0 9 -13 19l2 2q2 0 5 -1h1l-1 14q-1 -1 -6 1q0 4 7 20l-1 2q0 2 -9 10v2q0 2 1 7q0 3 -3 18q9 7 9 8q-1 6 -3 12q4 18 4 19q2 8 8 12q7 1 9 10q-1 17 18 45q23 42 30 52q13 12 29 17q11 7 18 24q5 13 37 43q1 -1 -2 -11 l1 -1q0 -1 1 -1l3 1q12 4 41 32q32 31 36 31q5 1 9 2q6 1 9 6q16 7 145 55q6 1 50 19l4 2q10 2 20 0q7 3 11 4q3 4 4 4h1q24 -3 32 -3l7 5q5 0 4 -2l8 1q2 1 8 0q5 5 6 7q7 4 15 14h1l4 -1v1q0 11 9 47q5 6 5 8l-1 18v16q-3 4 -5 3q2 6 2 10l-1 2q0 8 -2 16l-6 -1q0 4 1 14 l12 62v-2q-6 -3 -6 -5h2q16 3 26 -5q18 -13 22 -24q0 -1 27 0q3 -28 9 -57v-20q0 -3 2 -2q4 1 5 -16l1 -7q1 -15 0 -29q3 -7 5 -7l-6 -7q-3 -28 -8 -29q-2 -37 -4 -43q-8 -5 -20 -19v-1q2 1 3 -1v-1l-23 -26h-1q-7 1 -26 1q-19 4 -32 1l-24 -6q-5 -1 -10 -4v0l1 -2l-3 -1h-2 h-17q-2 0 -3 -1q-14 -9 -21 -11q-7 -1 -25 -2l-51 -19l-8 -2q-2 0 -17 -13l-37 -22h-6l-7 -13q-17 -13 -17 -20q-8 -2 -40 -37q-20 -17 -19 -40q-12 -20 -13 -32l-18 -28q2 -10 2 -11q-1 -5 -7 -6q-15 -9 -16 -58q0 -20 8 -37q21 -30 40 -26l2 1l-4 -12q4 -6 16 -17 q4 -16 7 -15q22 -20 27 -19v1q-1 5 -5 17q1 0 1 2q8 -2 30 -13q19 -19 28 -24q37 -23 64 -23q34 -12 91 2l9 3l6 2l-2 3q0 2 21 10q7 0 8 -3l39 8h1v-2v-1q21 4 34 8l7 1q39 9 93 49q8 3 14 24q12 8 22 23v5h2q6 -2 24 -42v-2q-4 -42 4 -29q-14 -10 -22 -14q-9 -2 -8 -14 q0 -10 -23 -29q-17 -19 -34 -23q-40 -22 -48 -23q-30 -7 -48 -11l-46 -11q-13 -3 -13 -6q1 -2 -21 -8l-21 -4q-10 -2 -19 1z" />
<glyph unicode="&#xc0;" horiz-adv-x="1535" d="M616 1625q-2 5 14 26q5 7 2 14q0 2 -1 4q-2 3 1 11q3 12 5 27q1 3 0 4v1q0 1 -4 5l-4 6l-3 11q9 5 13 9q3 3 2 5v0q0 1 -4 8q0 3 3 5v0q5 1 13 -7q9 -13 23 -25q37 -34 40 -37l18 -10q6 -4 13 -15l10 -11q15 -19 28 -28q17 -12 19 -17q3 -3 10 -16q2 -3 9 -8q4 -3 8 -5 q7 -2 9 -3q6 -4 7 -8v0q2 -4 -4 -16q-5 -12 -4 -15q0 -5 -1 -6q0 -2 -2 -2q-7 -3 -25 3q-9 4 -18 12q-5 4 -17 9q-8 3 -27 8q-23 9 -50 17q-19 6 -38 14q-17 8 -22 12q-6 5 -21 15q-2 2 -2 3zM782 1506h13q9 -9 42 -70q5 -30 31 -63q0 -8 33 -43q10 -17 27 -102 q10 -30 38 -100q15 -23 19 -34q-2 -10 -10 -10h-10q-1 0 -3 -4q13 -66 19 -66h2q0 4 14 6q0 2 5 3q5 -19 22 -54q12 -51 23 -51q8 0 15 -10q25 -8 25 -18q6 -13 16 -85q0 -24 11 -42q2 -15 35 -68q54 -97 54 -136q1 -46 6 -46h1q3 8 6 8h2q0 -9 64 -83q37 -67 49 -96 q-5 4 -9 4q-7 -2 -7 -10v-6q0 -28 45 -86q14 -21 31 -63q46 -77 60 -92q8 0 39 -54l46 -44l4 -6l-3 -1h-2l-85 9h-8q-35 -2 -38 -2h-4q-16 0 -35 24q-9 4 -14 5q-21 -9 -33 -9q-29 0 -82 1q-2 0 -16 -1q-9 1 -27 1h-8q-9 -1 -9 -9l-5 -1h-131q-2 0 -2 2q21 63 21 83v3 q0 22 -24 91q-31 46 -47 84q-26 66 -32 68q-7 0 -27 18h-9l-44 -9q-55 9 -63 9h-8q-6 0 -18 -15q-5 -3 -49 -11h-4q-2 0 -2 2t4 23v1q-10 2 -25 2q-72 0 -87 -7q-3 -2 -15 -4q-6 0 -40 10h-28q-17 0 -17 -9q-8 -8 -23 -32q-26 -20 -26 -42q-16 -87 -24 -87q-18 0 -31 -95 v-12q0 -16 9 -16q0 -2 15 -13q4 -5 12 -43l-2 -1h-43q-29 0 -74 -1q-5 1 -16 1l-1 2q0 3 3 7l-3 1h-12q-19 0 -19 -6q0 -5 -15 -5h-22q-43 0 -43 4q1 8 1 12q-5 5 -32 11q-12 -26 -39 -26q-5 0 -34 1q-11 0 -28 -10h-75q-2 0 -2 2q62 48 71 57l34 74q5 7 20 16q19 48 42 75 q24 17 24 29l65 152q3 0 5 -1q25 14 25 25q-1 6 -1 10v3q3 10 3 13v2l-5 7q0 8 47 73q6 12 22 54q21 13 22 15q4 6 4 11h-1q-4 -2 -7 -2q-1 2 -1 3q0 19 62 138q20 36 69 85q-13 14 -13 15q20 68 40 99q11 23 72 126q14 23 27 85q26 77 36 77l6 -1h2q4 9 4 13v3q-5 5 -5 8 q5 11 8 44q0 9 32 13q0 1 7 2l-9 54q0 3 23 28q9 18 34 88q9 18 18 18zM732 886q-28 -69 -39 -74q-8 -16 -28 -82q-4 -8 -13 -8q-8 -13 -22 -71q-36 -94 -36 -113q-1 0 -3 -7q13 2 36 2h26q41 0 60 -9h4l72 7q17 -17 28 -18h7q5 9 32 17h2q-23 77 -34 142q0 11 -18 25 q-5 16 -31 109q-17 45 -42 80h-1z" />
</font>
</defs>
</svg>
